<ttFont>
    <TTGlyph name="A" xMin="59" yMin="-25" xMax="1403" yMax="1567">
      <contour>
        <pt x="788" y="634" on="1"/>
        <pt x="907" y="524" on="1"/>
        <pt x="1095" y="666" on="1"/>
        <pt x="1095" y="1118" on="1"/>
        <pt x="1095" y="1425" on="0"/>
        <pt x="1257" y="1529" on="1"/>
        <pt x="1316" y="1567" on="0"/>
        <pt x="1403" y="1567" on="1"/>
        <pt x="1403" y="1518" on="1"/>
        <pt x="1267" y="1518" on="0"/>
        <pt x="1145" y="1290" on="0"/>
        <pt x="1145" y="1118" on="1"/>
        <pt x="1145" y="344" on="1"/>
        <pt x="1145" y="180" on="0"/>
        <pt x="1271" y="76" on="1"/>
        <pt x="1309" y="44" on="0"/>
        <pt x="1353" y="16" on="1"/>
        <pt x="1325" y="-25" on="1"/>
        <pt x="1213" y="51" on="0"/>
        <pt x="1172" y="106" on="1"/>
        <pt x="1095" y="212" on="0"/>
        <pt x="1095" y="338" on="1"/>
        <pt x="1095" y="607" on="1"/>
        <pt x="905" y="459" on="1"/>
        <pt x="758" y="594" on="1"/>
        <pt x="629" y="430" on="0"/>
        <pt x="570" y="363" on="1"/>
        <pt x="458" y="240" on="1"/>
        <pt x="354" y="135" on="1"/>
        <pt x="246" y="32" on="0"/>
        <pt x="164" y="-24" on="1"/>
        <pt x="127" y="11" on="1"/>
        <pt x="310" y="148" on="0"/>
        <pt x="508" y="365" on="1"/>
        <pt x="827" y="713" on="0"/>
        <pt x="939" y="988" on="1"/>
        <pt x="977" y="1081" on="0"/>
        <pt x="977" y="1152" on="1"/>
        <pt x="977" y="1296" on="0"/>
        <pt x="735" y="1517" on="0"/>
        <pt x="414" y="1517" on="0"/>
        <pt x="262" y="1378" on="0"/>
        <pt x="262" y="1223" on="0"/>
        <pt x="286" y="1176" on="1"/>
        <pt x="324" y="1099" on="0"/>
        <pt x="420" y="1026" on="1"/>
        <pt x="460" y="994" on="0"/>
        <pt x="495" y="958" on="1"/>
        <pt x="577" y="872" on="0"/>
        <pt x="577" y="624" on="0"/>
        <pt x="478" y="560" on="1"/>
        <pt x="404" y="512" on="0"/>
        <pt x="326" y="512" on="1"/>
        <pt x="324" y="512" on="0"/>
        <pt x="323" y="511" on="1"/>
        <pt x="195" y="511" on="0"/>
        <pt x="128" y="576" on="1"/>
        <pt x="59" y="642" on="0"/>
        <pt x="59" y="737" on="1"/>
        <pt x="59" y="830" on="0"/>
        <pt x="125" y="895" on="1"/>
        <pt x="191" y="961" on="0"/>
        <pt x="284" y="961" on="1"/>
        <pt x="284" y="911" on="1"/>
        <pt x="212" y="911" on="0"/>
        <pt x="109" y="808" on="0"/>
        <pt x="109" y="733" on="1"/>
        <pt x="109" y="661" on="0"/>
        <pt x="217" y="561" on="0"/>
        <pt x="298" y="561" on="1"/>
        <pt x="300" y="561" on="0"/>
        <pt x="301" y="561" on="1"/>
        <pt x="444" y="562" on="0"/>
        <pt x="504" y="666" on="1"/>
        <pt x="528" y="705" on="0"/>
        <pt x="528" y="762" on="1"/>
        <pt x="528" y="822" on="0"/>
        <pt x="480" y="902" on="0"/>
        <pt x="445" y="936" on="1"/>
        <pt x="410" y="970" on="0"/>
        <pt x="370" y="1002" on="1"/>
        <pt x="212" y="1128" on="0"/>
        <pt x="212" y="1291" on="1"/>
        <pt x="212" y="1396" on="0"/>
        <pt x="302" y="1481" on="1"/>
        <pt x="394" y="1566" on="0"/>
        <pt x="570" y="1566" on="1"/>
        <pt x="571" y="1567" on="1"/>
        <pt x="747" y="1568" on="0"/>
        <pt x="886" y="1448" on="1"/>
        <pt x="1026" y="1328" on="0"/>
        <pt x="1026" y="964" on="0"/>
      </contour>
    </TTGlyph>
    <TTGlyph name="AE" xMin="60" yMin="0" xMax="2304" yMax="1567">
      <contour>
        <pt x="1384" y="1567" on="1"/>
        <pt x="1555" y="1567" on="0"/>
        <pt x="1581" y="1443" on="1"/>
        <pt x="1664" y="1546" on="1"/>
        <pt x="1749" y="1292" on="0"/>
        <pt x="1918" y="1292" on="1"/>
        <pt x="2016" y="1292" on="0"/>
        <pt x="2130" y="1433" on="0"/>
        <pt x="2130" y="1542" on="1"/>
        <pt x="2180" y="1542" on="1"/>
        <pt x="2180" y="1337" on="0"/>
        <pt x="2028" y="1265" on="1"/>
        <pt x="1980" y="1242" on="0"/>
        <pt x="1922" y="1242" on="1"/>
        <pt x="1820" y="1242" on="0"/>
        <pt x="1681" y="1358" on="0"/>
        <pt x="1645" y="1444" on="1"/>
        <pt x="1506" y="1271" on="1"/>
        <pt x="1454" y="1208" on="0"/>
        <pt x="1454" y="1111" on="0"/>
        <pt x="1470" y="1081" on="1"/>
        <pt x="1501" y="1025" on="0"/>
        <pt x="1576" y="980" on="1"/>
        <pt x="1649" y="938" on="1"/>
        <pt x="1771" y="870" on="0"/>
        <pt x="1828" y="818" on="1"/>
        <pt x="1862" y="919" on="0"/>
        <pt x="1893" y="960" on="1"/>
        <pt x="1954" y="1039" on="0"/>
        <pt x="2033" y="1039" on="1"/>
        <pt x="2093" y="1039" on="0"/>
        <pt x="2173" y="970" on="0"/>
        <pt x="2195" y="969" on="1"/>
        <pt x="2254" y="969" on="0"/>
        <pt x="2254" y="1093" on="1"/>
        <pt x="2304" y="1093" on="1"/>
        <pt x="2304" y="1013" on="0"/>
        <pt x="2289" y="981" on="1"/>
        <pt x="2260" y="919" on="0"/>
        <pt x="2195" y="919" on="1"/>
        <pt x="2158" y="919" on="0"/>
        <pt x="2099" y="967" on="0"/>
        <pt x="2061" y="989" on="0"/>
        <pt x="2030" y="989" on="1"/>
        <pt x="1974" y="989" on="0"/>
        <pt x="1896" y="870" on="0"/>
        <pt x="1867" y="775" on="1"/>
        <pt x="1927" y="695" on="0"/>
        <pt x="1927" y="481" on="0"/>
        <pt x="1783" y="311" on="0"/>
        <pt x="1541" y="311" on="0"/>
        <pt x="1398" y="446" on="0"/>
        <pt x="1398" y="642" on="0"/>
        <pt x="1450" y="714" on="1"/>
        <pt x="1488" y="685" on="1"/>
        <pt x="1448" y="629" on="0"/>
        <pt x="1448" y="571" on="1"/>
        <pt x="1448" y="469" on="0"/>
        <pt x="1563" y="361" on="0"/>
        <pt x="1662" y="361" on="1"/>
        <pt x="1760" y="360" on="0"/>
        <pt x="1876" y="500" on="0"/>
        <pt x="1877" y="578" on="1"/>
        <pt x="1877" y="650" on="0"/>
        <pt x="1854" y="694" on="1"/>
        <pt x="1831" y="740" on="0"/>
        <pt x="1788" y="783" on="1"/>
        <pt x="1744" y="826" on="0"/>
        <pt x="1664" y="872" on="1"/>
        <pt x="1515" y="956" on="0"/>
        <pt x="1473" y="997" on="1"/>
        <pt x="1404" y="1064" on="0"/>
        <pt x="1404" y="1222" on="0"/>
        <pt x="1444" y="1274" on="1"/>
        <pt x="1526" y="1376" on="1"/>
        <pt x="1535" y="1392" on="0"/>
        <pt x="1535" y="1412" on="1"/>
        <pt x="1535" y="1456" on="0"/>
        <pt x="1470" y="1518" on="0"/>
        <pt x="1402" y="1518" on="1"/>
        <pt x="1271" y="1518" on="0"/>
        <pt x="1150" y="1290" on="0"/>
        <pt x="1150" y="1118" on="1"/>
        <pt x="1150" y="446" on="1"/>
        <pt x="1150" y="262" on="0"/>
        <pt x="1408" y="50" on="0"/>
        <pt x="1857" y="50" on="0"/>
        <pt x="2024" y="197" on="1"/>
        <pt x="2154" y="311" on="0"/>
        <pt x="2227" y="501" on="1"/>
        <pt x="2273" y="483" on="1"/>
        <pt x="2150" y="160" on="0"/>
        <pt x="1868" y="44" on="1"/>
        <pt x="1761" y="0" on="0"/>
        <pt x="1629" y="0" on="1"/>
        <pt x="1375" y="0" on="0"/>
        <pt x="1100" y="231" on="0"/>
        <pt x="1100" y="440" on="1"/>
        <pt x="1100" y="607" on="1"/>
        <pt x="910" y="459" on="1"/>
        <pt x="763" y="594" on="1"/>
        <pt x="556" y="318" on="0"/>
        <pt x="322" y="116" on="1"/>
        <pt x="248" y="52" on="0"/>
        <pt x="185" y="10" on="1"/>
        <pt x="148" y="45" on="1"/>
        <pt x="447" y="271" on="0"/>
        <pt x="982" y="941" on="0"/>
        <pt x="982" y="1151" on="1"/>
        <pt x="982" y="1300" on="0"/>
        <pt x="866" y="1397" on="1"/>
        <pt x="750" y="1494" on="0"/>
        <pt x="574" y="1494" on="1"/>
        <pt x="571" y="1495" on="1"/>
        <pt x="397" y="1494" on="0"/>
        <pt x="309" y="1438" on="1"/>
        <pt x="220" y="1382" on="0"/>
        <pt x="220" y="1181" on="0"/>
        <pt x="310" y="1107" on="1"/>
        <pt x="431" y="1012" on="1"/>
        <pt x="550" y="919" on="0"/>
        <pt x="550" y="691" on="0"/>
        <pt x="407" y="551" on="0"/>
        <pt x="304" y="551" on="1"/>
        <pt x="201" y="551" on="0"/>
        <pt x="60" y="692" on="0"/>
        <pt x="60" y="795" on="1"/>
        <pt x="60" y="860" on="0"/>
        <pt x="83" y="901" on="1"/>
        <pt x="128" y="881" on="1"/>
        <pt x="109" y="842" on="0"/>
        <pt x="109" y="798" on="1"/>
        <pt x="109" y="713" on="0"/>
        <pt x="222" y="600" on="0"/>
        <pt x="386" y="600" on="0"/>
        <pt x="500" y="714" on="0"/>
        <pt x="500" y="892" on="0"/>
        <pt x="394" y="978" on="1"/>
        <pt x="274" y="1072" on="1"/>
        <pt x="172" y="1155" on="0"/>
        <pt x="171" y="1284" on="1"/>
        <pt x="170" y="1411" on="0"/>
        <pt x="270" y="1477" on="1"/>
        <pt x="370" y="1544" on="0"/>
        <pt x="755" y="1544" on="0"/>
        <pt x="1031" y="1330" on="0"/>
        <pt x="1031" y="964" on="0"/>
        <pt x="793" y="634" on="1"/>
        <pt x="912" y="524" on="1"/>
        <pt x="1100" y="666" on="1"/>
        <pt x="1100" y="1118" on="1"/>
        <pt x="1100" y="1425" on="0"/>
        <pt x="1262" y="1529" on="1"/>
        <pt x="1320" y="1567" on="0"/>
      </contour>
    </TTGlyph>
    <TTGlyph name="Aacute" xMin="59" yMin="-25" xMax="1413" yMax="1931">
      <contour>
        <pt x="788" y="634" on="1"/>
        <pt x="907" y="524" on="1"/>
        <pt x="1095" y="666" on="1"/>
        <pt x="1095" y="1118" on="1"/>
        <pt x="1095" y="1425" on="0"/>
        <pt x="1257" y="1529" on="1"/>
        <pt x="1316" y="1567" on="0"/>
        <pt x="1403" y="1567" on="1"/>
        <pt x="1403" y="1518" on="1"/>
        <pt x="1267" y="1518" on="0"/>
        <pt x="1145" y="1290" on="0"/>
        <pt x="1145" y="1118" on="1"/>
        <pt x="1145" y="344" on="1"/>
        <pt x="1145" y="180" on="0"/>
        <pt x="1271" y="76" on="1"/>
        <pt x="1309" y="44" on="0"/>
        <pt x="1353" y="16" on="1"/>
        <pt x="1325" y="-25" on="1"/>
        <pt x="1213" y="51" on="0"/>
        <pt x="1172" y="106" on="1"/>
        <pt x="1095" y="212" on="0"/>
        <pt x="1095" y="338" on="1"/>
        <pt x="1095" y="607" on="1"/>
        <pt x="905" y="459" on="1"/>
        <pt x="758" y="594" on="1"/>
        <pt x="629" y="430" on="0"/>
        <pt x="570" y="363" on="1"/>
        <pt x="458" y="240" on="1"/>
        <pt x="354" y="135" on="1"/>
        <pt x="246" y="32" on="0"/>
        <pt x="164" y="-24" on="1"/>
        <pt x="127" y="11" on="1"/>
        <pt x="310" y="148" on="0"/>
        <pt x="508" y="365" on="1"/>
        <pt x="827" y="713" on="0"/>
        <pt x="939" y="988" on="1"/>
        <pt x="977" y="1081" on="0"/>
        <pt x="977" y="1152" on="1"/>
        <pt x="977" y="1296" on="0"/>
        <pt x="735" y="1517" on="0"/>
        <pt x="414" y="1517" on="0"/>
        <pt x="262" y="1378" on="0"/>
        <pt x="262" y="1223" on="0"/>
        <pt x="286" y="1176" on="1"/>
        <pt x="324" y="1099" on="0"/>
        <pt x="420" y="1026" on="1"/>
        <pt x="460" y="994" on="0"/>
        <pt x="495" y="958" on="1"/>
        <pt x="577" y="872" on="0"/>
        <pt x="577" y="624" on="0"/>
        <pt x="478" y="560" on="1"/>
        <pt x="404" y="512" on="0"/>
        <pt x="326" y="512" on="1"/>
        <pt x="324" y="512" on="0"/>
        <pt x="323" y="511" on="1"/>
        <pt x="195" y="511" on="0"/>
        <pt x="128" y="576" on="1"/>
        <pt x="59" y="642" on="0"/>
        <pt x="59" y="737" on="1"/>
        <pt x="59" y="830" on="0"/>
        <pt x="125" y="895" on="1"/>
        <pt x="191" y="961" on="0"/>
        <pt x="284" y="961" on="1"/>
        <pt x="284" y="911" on="1"/>
        <pt x="212" y="911" on="0"/>
        <pt x="109" y="808" on="0"/>
        <pt x="109" y="733" on="1"/>
        <pt x="109" y="661" on="0"/>
        <pt x="217" y="561" on="0"/>
        <pt x="298" y="561" on="1"/>
        <pt x="300" y="561" on="0"/>
        <pt x="301" y="561" on="1"/>
        <pt x="444" y="562" on="0"/>
        <pt x="504" y="666" on="1"/>
        <pt x="528" y="705" on="0"/>
        <pt x="528" y="762" on="1"/>
        <pt x="528" y="822" on="0"/>
        <pt x="480" y="902" on="0"/>
        <pt x="445" y="936" on="1"/>
        <pt x="410" y="970" on="0"/>
        <pt x="370" y="1002" on="1"/>
        <pt x="212" y="1128" on="0"/>
        <pt x="212" y="1291" on="1"/>
        <pt x="212" y="1396" on="0"/>
        <pt x="302" y="1481" on="1"/>
        <pt x="394" y="1566" on="0"/>
        <pt x="570" y="1566" on="1"/>
        <pt x="571" y="1567" on="1"/>
        <pt x="747" y="1568" on="0"/>
        <pt x="886" y="1448" on="1"/>
        <pt x="1026" y="1328" on="0"/>
        <pt x="1026" y="964" on="0"/>
      </contour>
      <contour>
        <pt x="1119" y="1684" on="1"/>
        <pt x="1092" y="1728" on="1"/>
        <pt x="1370" y="1931" on="1"/>
        <pt x="1413" y="1872" on="1"/>
      </contour>
    </TTGlyph>
    <TTGlyph name="Acircumflex" xMin="59" yMin="-25" xMax="1403" yMax="1934">
      <contour>
        <pt x="788" y="634" on="1"/>
        <pt x="907" y="524" on="1"/>
        <pt x="1095" y="666" on="1"/>
        <pt x="1095" y="1118" on="1"/>
        <pt x="1095" y="1425" on="0"/>
        <pt x="1257" y="1529" on="1"/>
        <pt x="1316" y="1567" on="0"/>
        <pt x="1403" y="1567" on="1"/>
        <pt x="1403" y="1518" on="1"/>
        <pt x="1267" y="1518" on="0"/>
        <pt x="1145" y="1290" on="0"/>
        <pt x="1145" y="1118" on="1"/>
        <pt x="1145" y="344" on="1"/>
        <pt x="1145" y="180" on="0"/>
        <pt x="1271" y="76" on="1"/>
        <pt x="1309" y="44" on="0"/>
        <pt x="1353" y="16" on="1"/>
        <pt x="1325" y="-25" on="1"/>
        <pt x="1213" y="51" on="0"/>
        <pt x="1172" y="106" on="1"/>
        <pt x="1095" y="212" on="0"/>
        <pt x="1095" y="338" on="1"/>
        <pt x="1095" y="607" on="1"/>
        <pt x="905" y="459" on="1"/>
        <pt x="758" y="594" on="1"/>
        <pt x="629" y="430" on="0"/>
        <pt x="570" y="363" on="1"/>
        <pt x="458" y="240" on="1"/>
        <pt x="354" y="135" on="1"/>
        <pt x="246" y="32" on="0"/>
        <pt x="164" y="-24" on="1"/>
        <pt x="127" y="11" on="1"/>
        <pt x="310" y="148" on="0"/>
        <pt x="508" y="365" on="1"/>
        <pt x="827" y="713" on="0"/>
        <pt x="939" y="988" on="1"/>
        <pt x="977" y="1081" on="0"/>
        <pt x="977" y="1152" on="1"/>
        <pt x="977" y="1296" on="0"/>
        <pt x="735" y="1517" on="0"/>
        <pt x="414" y="1517" on="0"/>
        <pt x="262" y="1378" on="0"/>
        <pt x="262" y="1223" on="0"/>
        <pt x="286" y="1176" on="1"/>
        <pt x="324" y="1099" on="0"/>
        <pt x="420" y="1026" on="1"/>
        <pt x="460" y="994" on="0"/>
        <pt x="495" y="958" on="1"/>
        <pt x="577" y="872" on="0"/>
        <pt x="577" y="624" on="0"/>
        <pt x="478" y="560" on="1"/>
        <pt x="404" y="512" on="0"/>
        <pt x="326" y="512" on="1"/>
        <pt x="324" y="512" on="0"/>
        <pt x="323" y="511" on="1"/>
        <pt x="195" y="511" on="0"/>
        <pt x="128" y="576" on="1"/>
        <pt x="59" y="642" on="0"/>
        <pt x="59" y="737" on="1"/>
        <pt x="59" y="830" on="0"/>
        <pt x="125" y="895" on="1"/>
        <pt x="191" y="961" on="0"/>
        <pt x="284" y="961" on="1"/>
        <pt x="284" y="911" on="1"/>
        <pt x="212" y="911" on="0"/>
        <pt x="109" y="808" on="0"/>
        <pt x="109" y="733" on="1"/>
        <pt x="109" y="661" on="0"/>
        <pt x="217" y="561" on="0"/>
        <pt x="298" y="561" on="1"/>
        <pt x="300" y="561" on="0"/>
        <pt x="301" y="561" on="1"/>
        <pt x="444" y="562" on="0"/>
        <pt x="504" y="666" on="1"/>
        <pt x="528" y="705" on="0"/>
        <pt x="528" y="762" on="1"/>
        <pt x="528" y="822" on="0"/>
        <pt x="480" y="902" on="0"/>
        <pt x="445" y="936" on="1"/>
        <pt x="410" y="970" on="0"/>
        <pt x="370" y="1002" on="1"/>
        <pt x="212" y="1128" on="0"/>
        <pt x="212" y="1291" on="1"/>
        <pt x="212" y="1396" on="0"/>
        <pt x="302" y="1481" on="1"/>
        <pt x="394" y="1566" on="0"/>
        <pt x="570" y="1566" on="1"/>
        <pt x="571" y="1567" on="1"/>
        <pt x="747" y="1568" on="0"/>
        <pt x="886" y="1448" on="1"/>
        <pt x="1026" y="1328" on="0"/>
        <pt x="1026" y="964" on="0"/>
      </contour>
      <contour>
        <pt x="752" y="1726" on="1"/>
        <pt x="1018" y="1934" on="1"/>
        <pt x="1350" y="1727" on="1"/>
        <pt x="1324" y="1685" on="1"/>
        <pt x="1022" y="1873" on="1"/>
        <pt x="1014" y="1866" on="0"/>
        <pt x="998" y="1854" on="1"/>
        <pt x="782" y="1686" on="1"/>
      </contour>
    </TTGlyph>
    <TTGlyph name="Adieresis" xMin="59" yMin="-25" xMax="1403" yMax="1876">
      <contour>
        <pt x="788" y="634" on="1"/>
        <pt x="907" y="524" on="1"/>
        <pt x="1095" y="666" on="1"/>
        <pt x="1095" y="1118" on="1"/>
        <pt x="1095" y="1425" on="0"/>
        <pt x="1257" y="1529" on="1"/>
        <pt x="1316" y="1567" on="0"/>
        <pt x="1403" y="1567" on="1"/>
        <pt x="1403" y="1518" on="1"/>
        <pt x="1267" y="1518" on="0"/>
        <pt x="1145" y="1290" on="0"/>
        <pt x="1145" y="1118" on="1"/>
        <pt x="1145" y="344" on="1"/>
        <pt x="1145" y="180" on="0"/>
        <pt x="1271" y="76" on="1"/>
        <pt x="1309" y="44" on="0"/>
        <pt x="1353" y="16" on="1"/>
        <pt x="1325" y="-25" on="1"/>
        <pt x="1213" y="51" on="0"/>
        <pt x="1172" y="106" on="1"/>
        <pt x="1095" y="212" on="0"/>
        <pt x="1095" y="338" on="1"/>
        <pt x="1095" y="607" on="1"/>
        <pt x="905" y="459" on="1"/>
        <pt x="758" y="594" on="1"/>
        <pt x="629" y="430" on="0"/>
        <pt x="570" y="363" on="1"/>
        <pt x="458" y="240" on="1"/>
        <pt x="354" y="135" on="1"/>
        <pt x="246" y="32" on="0"/>
        <pt x="164" y="-24" on="1"/>
        <pt x="127" y="11" on="1"/>
        <pt x="310" y="148" on="0"/>
        <pt x="508" y="365" on="1"/>
        <pt x="827" y="713" on="0"/>
        <pt x="939" y="988" on="1"/>
        <pt x="977" y="1081" on="0"/>
        <pt x="977" y="1152" on="1"/>
        <pt x="977" y="1296" on="0"/>
        <pt x="735" y="1517" on="0"/>
        <pt x="414" y="1517" on="0"/>
        <pt x="262" y="1378" on="0"/>
        <pt x="262" y="1223" on="0"/>
        <pt x="286" y="1176" on="1"/>
        <pt x="324" y="1099" on="0"/>
        <pt x="420" y="1026" on="1"/>
        <pt x="460" y="994" on="0"/>
        <pt x="495" y="958" on="1"/>
        <pt x="577" y="872" on="0"/>
        <pt x="577" y="624" on="0"/>
        <pt x="478" y="560" on="1"/>
        <pt x="404" y="512" on="0"/>
        <pt x="326" y="512" on="1"/>
        <pt x="324" y="512" on="0"/>
        <pt x="323" y="511" on="1"/>
        <pt x="195" y="511" on="0"/>
        <pt x="128" y="576" on="1"/>
        <pt x="59" y="642" on="0"/>
        <pt x="59" y="737" on="1"/>
        <pt x="59" y="830" on="0"/>
        <pt x="125" y="895" on="1"/>
        <pt x="191" y="961" on="0"/>
        <pt x="284" y="961" on="1"/>
        <pt x="284" y="911" on="1"/>
        <pt x="212" y="911" on="0"/>
        <pt x="109" y="808" on="0"/>
        <pt x="109" y="733" on="1"/>
        <pt x="109" y="661" on="0"/>
        <pt x="217" y="561" on="0"/>
        <pt x="298" y="561" on="1"/>
        <pt x="300" y="561" on="0"/>
        <pt x="301" y="561" on="1"/>
        <pt x="444" y="562" on="0"/>
        <pt x="504" y="666" on="1"/>
        <pt x="528" y="705" on="0"/>
        <pt x="528" y="762" on="1"/>
        <pt x="528" y="822" on="0"/>
        <pt x="480" y="902" on="0"/>
        <pt x="445" y="936" on="1"/>
        <pt x="410" y="970" on="0"/>
        <pt x="370" y="1002" on="1"/>
        <pt x="212" y="1128" on="0"/>
        <pt x="212" y="1291" on="1"/>
        <pt x="212" y="1396" on="0"/>
        <pt x="302" y="1481" on="1"/>
        <pt x="394" y="1566" on="0"/>
        <pt x="570" y="1566" on="1"/>
        <pt x="571" y="1567" on="1"/>
        <pt x="747" y="1568" on="0"/>
        <pt x="886" y="1448" on="1"/>
        <pt x="1026" y="1328" on="0"/>
        <pt x="1026" y="964" on="0"/>
      </contour>
      <contour>
        <pt x="1227" y="1679" on="1"/>
        <pt x="1180" y="1694" on="1"/>
        <pt x="1256" y="1876" on="1"/>
        <pt x="1317" y="1851" on="1"/>
      </contour>
      <contour>
        <pt x="948" y="1679" on="1"/>
        <pt x="901" y="1694" on="1"/>
        <pt x="977" y="1876" on="1"/>
        <pt x="1038" y="1851" on="1"/>
      </contour>
    </TTGlyph>
    <TTGlyph name="Agrave" xMin="59" yMin="-25" xMax="1403" yMax="1931">
      <contour>
        <pt x="788" y="634" on="1"/>
        <pt x="907" y="524" on="1"/>
        <pt x="1095" y="666" on="1"/>
        <pt x="1095" y="1118" on="1"/>
        <pt x="1095" y="1425" on="0"/>
        <pt x="1257" y="1529" on="1"/>
        <pt x="1316" y="1567" on="0"/>
        <pt x="1403" y="1567" on="1"/>
        <pt x="1403" y="1518" on="1"/>
        <pt x="1267" y="1518" on="0"/>
        <pt x="1145" y="1290" on="0"/>
        <pt x="1145" y="1118" on="1"/>
        <pt x="1145" y="344" on="1"/>
        <pt x="1145" y="180" on="0"/>
        <pt x="1271" y="76" on="1"/>
        <pt x="1309" y="44" on="0"/>
        <pt x="1353" y="16" on="1"/>
        <pt x="1325" y="-25" on="1"/>
        <pt x="1213" y="51" on="0"/>
        <pt x="1172" y="106" on="1"/>
        <pt x="1095" y="212" on="0"/>
        <pt x="1095" y="338" on="1"/>
        <pt x="1095" y="607" on="1"/>
        <pt x="905" y="459" on="1"/>
        <pt x="758" y="594" on="1"/>
        <pt x="629" y="430" on="0"/>
        <pt x="570" y="363" on="1"/>
        <pt x="458" y="240" on="1"/>
        <pt x="354" y="135" on="1"/>
        <pt x="246" y="32" on="0"/>
        <pt x="164" y="-24" on="1"/>
        <pt x="127" y="11" on="1"/>
        <pt x="310" y="148" on="0"/>
        <pt x="508" y="365" on="1"/>
        <pt x="827" y="713" on="0"/>
        <pt x="939" y="988" on="1"/>
        <pt x="977" y="1081" on="0"/>
        <pt x="977" y="1152" on="1"/>
        <pt x="977" y="1296" on="0"/>
        <pt x="735" y="1517" on="0"/>
        <pt x="414" y="1517" on="0"/>
        <pt x="262" y="1378" on="0"/>
        <pt x="262" y="1223" on="0"/>
        <pt x="286" y="1176" on="1"/>
        <pt x="324" y="1099" on="0"/>
        <pt x="420" y="1026" on="1"/>
        <pt x="460" y="994" on="0"/>
        <pt x="495" y="958" on="1"/>
        <pt x="577" y="872" on="0"/>
        <pt x="577" y="624" on="0"/>
        <pt x="478" y="560" on="1"/>
        <pt x="404" y="512" on="0"/>
        <pt x="326" y="512" on="1"/>
        <pt x="324" y="512" on="0"/>
        <pt x="323" y="511" on="1"/>
        <pt x="195" y="511" on="0"/>
        <pt x="128" y="576" on="1"/>
        <pt x="59" y="642" on="0"/>
        <pt x="59" y="737" on="1"/>
        <pt x="59" y="830" on="0"/>
        <pt x="125" y="895" on="1"/>
        <pt x="191" y="961" on="0"/>
        <pt x="284" y="961" on="1"/>
        <pt x="284" y="911" on="1"/>
        <pt x="212" y="911" on="0"/>
        <pt x="109" y="808" on="0"/>
        <pt x="109" y="733" on="1"/>
        <pt x="109" y="661" on="0"/>
        <pt x="217" y="561" on="0"/>
        <pt x="298" y="561" on="1"/>
        <pt x="300" y="561" on="0"/>
        <pt x="301" y="561" on="1"/>
        <pt x="444" y="562" on="0"/>
        <pt x="504" y="666" on="1"/>
        <pt x="528" y="705" on="0"/>
        <pt x="528" y="762" on="1"/>
        <pt x="528" y="822" on="0"/>
        <pt x="480" y="902" on="0"/>
        <pt x="445" y="936" on="1"/>
        <pt x="410" y="970" on="0"/>
        <pt x="370" y="1002" on="1"/>
        <pt x="212" y="1128" on="0"/>
        <pt x="212" y="1291" on="1"/>
        <pt x="212" y="1396" on="0"/>
        <pt x="302" y="1481" on="1"/>
        <pt x="394" y="1566" on="0"/>
        <pt x="570" y="1566" on="1"/>
        <pt x="571" y="1567" on="1"/>
        <pt x="747" y="1568" on="0"/>
        <pt x="886" y="1448" on="1"/>
        <pt x="1026" y="1328" on="0"/>
        <pt x="1026" y="964" on="0"/>
      </contour>
      <contour>
        <pt x="753" y="1872" on="1"/>
        <pt x="796" y="1931" on="1"/>
        <pt x="1074" y="1728" on="1"/>
        <pt x="1047" y="1684" on="1"/>
      </contour>
    </TTGlyph>
    <TTGlyph name="Aring" xMin="59" yMin="-25" xMax="1403" yMax="1931">
      <contour>
        <pt x="788" y="634" on="1"/>
        <pt x="907" y="524" on="1"/>
        <pt x="1095" y="666" on="1"/>
        <pt x="1095" y="1118" on="1"/>
        <pt x="1095" y="1425" on="0"/>
        <pt x="1257" y="1529" on="1"/>
        <pt x="1316" y="1567" on="0"/>
        <pt x="1403" y="1567" on="1"/>
        <pt x="1403" y="1518" on="1"/>
        <pt x="1267" y="1518" on="0"/>
        <pt x="1145" y="1290" on="0"/>
        <pt x="1145" y="1118" on="1"/>
        <pt x="1145" y="344" on="1"/>
        <pt x="1145" y="180" on="0"/>
        <pt x="1271" y="76" on="1"/>
        <pt x="1309" y="44" on="0"/>
        <pt x="1353" y="16" on="1"/>
        <pt x="1325" y="-25" on="1"/>
        <pt x="1213" y="51" on="0"/>
        <pt x="1172" y="106" on="1"/>
        <pt x="1095" y="212" on="0"/>
        <pt x="1095" y="338" on="1"/>
        <pt x="1095" y="607" on="1"/>
        <pt x="905" y="459" on="1"/>
        <pt x="758" y="594" on="1"/>
        <pt x="629" y="430" on="0"/>
        <pt x="570" y="363" on="1"/>
        <pt x="458" y="240" on="1"/>
        <pt x="354" y="135" on="1"/>
        <pt x="246" y="32" on="0"/>
        <pt x="164" y="-24" on="1"/>
        <pt x="127" y="11" on="1"/>
        <pt x="310" y="148" on="0"/>
        <pt x="508" y="365" on="1"/>
        <pt x="827" y="713" on="0"/>
        <pt x="939" y="988" on="1"/>
        <pt x="977" y="1081" on="0"/>
        <pt x="977" y="1152" on="1"/>
        <pt x="977" y="1296" on="0"/>
        <pt x="735" y="1517" on="0"/>
        <pt x="414" y="1517" on="0"/>
        <pt x="262" y="1378" on="0"/>
        <pt x="262" y="1223" on="0"/>
        <pt x="286" y="1176" on="1"/>
        <pt x="324" y="1099" on="0"/>
        <pt x="420" y="1026" on="1"/>
        <pt x="460" y="994" on="0"/>
        <pt x="495" y="958" on="1"/>
        <pt x="577" y="872" on="0"/>
        <pt x="577" y="624" on="0"/>
        <pt x="478" y="560" on="1"/>
        <pt x="404" y="512" on="0"/>
        <pt x="326" y="512" on="1"/>
        <pt x="324" y="512" on="0"/>
        <pt x="323" y="511" on="1"/>
        <pt x="195" y="511" on="0"/>
        <pt x="128" y="576" on="1"/>
        <pt x="59" y="642" on="0"/>
        <pt x="59" y="737" on="1"/>
        <pt x="59" y="830" on="0"/>
        <pt x="125" y="895" on="1"/>
        <pt x="191" y="961" on="0"/>
        <pt x="284" y="961" on="1"/>
        <pt x="284" y="911" on="1"/>
        <pt x="212" y="911" on="0"/>
        <pt x="109" y="808" on="0"/>
        <pt x="109" y="733" on="1"/>
        <pt x="109" y="661" on="0"/>
        <pt x="217" y="561" on="0"/>
        <pt x="298" y="561" on="1"/>
        <pt x="300" y="561" on="0"/>
        <pt x="301" y="561" on="1"/>
        <pt x="444" y="562" on="0"/>
        <pt x="504" y="666" on="1"/>
        <pt x="528" y="705" on="0"/>
        <pt x="528" y="762" on="1"/>
        <pt x="528" y="822" on="0"/>
        <pt x="480" y="902" on="0"/>
        <pt x="445" y="936" on="1"/>
        <pt x="410" y="970" on="0"/>
        <pt x="370" y="1002" on="1"/>
        <pt x="212" y="1128" on="0"/>
        <pt x="212" y="1291" on="1"/>
        <pt x="212" y="1396" on="0"/>
        <pt x="302" y="1481" on="1"/>
        <pt x="394" y="1566" on="0"/>
        <pt x="570" y="1566" on="1"/>
        <pt x="571" y="1567" on="1"/>
        <pt x="747" y="1568" on="0"/>
        <pt x="886" y="1448" on="1"/>
        <pt x="1026" y="1328" on="0"/>
        <pt x="1026" y="964" on="0"/>
      </contour>
      <contour>
        <pt x="929" y="1796" on="1"/>
        <pt x="929" y="1852" on="0"/>
        <pt x="1008" y="1931" on="0"/>
        <pt x="1064" y="1931" on="1"/>
        <pt x="1120" y="1931" on="0"/>
        <pt x="1199" y="1852" on="0"/>
        <pt x="1199" y="1796" on="1"/>
        <pt x="1199" y="1740" on="0"/>
        <pt x="1120" y="1661" on="0"/>
        <pt x="1064" y="1661" on="1"/>
        <pt x="1008" y="1661" on="0"/>
        <pt x="929" y="1740" on="0"/>
      </contour>
      <contour>
        <pt x="979" y="1796" on="1"/>
        <pt x="979" y="1761" on="0"/>
        <pt x="1029" y="1711" on="0"/>
        <pt x="1064" y="1711" on="1"/>
        <pt x="1099" y="1711" on="0"/>
        <pt x="1149" y="1761" on="0"/>
        <pt x="1149" y="1796" on="1"/>
        <pt x="1149" y="1831" on="0"/>
        <pt x="1099" y="1881" on="0"/>
        <pt x="1064" y="1881" on="1"/>
        <pt x="1029" y="1881" on="0"/>
        <pt x="979" y="1831" on="0"/>
      </contour>
    </TTGlyph>
    <TTGlyph name="Atilde" xMin="59" yMin="-25" xMax="1413" yMax="1862">
      <contour>
        <pt x="788" y="634" on="1"/>
        <pt x="907" y="524" on="1"/>
        <pt x="1095" y="666" on="1"/>
        <pt x="1095" y="1118" on="1"/>
        <pt x="1095" y="1425" on="0"/>
        <pt x="1257" y="1529" on="1"/>
        <pt x="1316" y="1567" on="0"/>
        <pt x="1403" y="1567" on="1"/>
        <pt x="1403" y="1518" on="1"/>
        <pt x="1267" y="1518" on="0"/>
        <pt x="1145" y="1290" on="0"/>
        <pt x="1145" y="1118" on="1"/>
        <pt x="1145" y="344" on="1"/>
        <pt x="1145" y="180" on="0"/>
        <pt x="1271" y="76" on="1"/>
        <pt x="1309" y="44" on="0"/>
        <pt x="1353" y="16" on="1"/>
        <pt x="1325" y="-25" on="1"/>
        <pt x="1213" y="51" on="0"/>
        <pt x="1172" y="106" on="1"/>
        <pt x="1095" y="212" on="0"/>
        <pt x="1095" y="338" on="1"/>
        <pt x="1095" y="607" on="1"/>
        <pt x="905" y="459" on="1"/>
        <pt x="758" y="594" on="1"/>
        <pt x="629" y="430" on="0"/>
        <pt x="570" y="363" on="1"/>
        <pt x="458" y="240" on="1"/>
        <pt x="354" y="135" on="1"/>
        <pt x="246" y="32" on="0"/>
        <pt x="164" y="-24" on="1"/>
        <pt x="127" y="11" on="1"/>
        <pt x="310" y="148" on="0"/>
        <pt x="508" y="365" on="1"/>
        <pt x="827" y="713" on="0"/>
        <pt x="939" y="988" on="1"/>
        <pt x="977" y="1081" on="0"/>
        <pt x="977" y="1152" on="1"/>
        <pt x="977" y="1296" on="0"/>
        <pt x="735" y="1517" on="0"/>
        <pt x="414" y="1517" on="0"/>
        <pt x="262" y="1378" on="0"/>
        <pt x="262" y="1223" on="0"/>
        <pt x="286" y="1176" on="1"/>
        <pt x="324" y="1099" on="0"/>
        <pt x="420" y="1026" on="1"/>
        <pt x="460" y="994" on="0"/>
        <pt x="495" y="958" on="1"/>
        <pt x="577" y="872" on="0"/>
        <pt x="577" y="624" on="0"/>
        <pt x="478" y="560" on="1"/>
        <pt x="404" y="512" on="0"/>
        <pt x="326" y="512" on="1"/>
        <pt x="324" y="512" on="0"/>
        <pt x="323" y="511" on="1"/>
        <pt x="195" y="511" on="0"/>
        <pt x="128" y="576" on="1"/>
        <pt x="59" y="642" on="0"/>
        <pt x="59" y="737" on="1"/>
        <pt x="59" y="830" on="0"/>
        <pt x="125" y="895" on="1"/>
        <pt x="191" y="961" on="0"/>
        <pt x="284" y="961" on="1"/>
        <pt x="284" y="911" on="1"/>
        <pt x="212" y="911" on="0"/>
        <pt x="109" y="808" on="0"/>
        <pt x="109" y="733" on="1"/>
        <pt x="109" y="661" on="0"/>
        <pt x="217" y="561" on="0"/>
        <pt x="298" y="561" on="1"/>
        <pt x="300" y="561" on="0"/>
        <pt x="301" y="561" on="1"/>
        <pt x="444" y="562" on="0"/>
        <pt x="504" y="666" on="1"/>
        <pt x="528" y="705" on="0"/>
        <pt x="528" y="762" on="1"/>
        <pt x="528" y="822" on="0"/>
        <pt x="480" y="902" on="0"/>
        <pt x="445" y="936" on="1"/>
        <pt x="410" y="970" on="0"/>
        <pt x="370" y="1002" on="1"/>
        <pt x="212" y="1128" on="0"/>
        <pt x="212" y="1291" on="1"/>
        <pt x="212" y="1396" on="0"/>
        <pt x="302" y="1481" on="1"/>
        <pt x="394" y="1566" on="0"/>
        <pt x="570" y="1566" on="1"/>
        <pt x="571" y="1567" on="1"/>
        <pt x="747" y="1568" on="0"/>
        <pt x="886" y="1448" on="1"/>
        <pt x="1026" y="1328" on="0"/>
        <pt x="1026" y="964" on="0"/>
      </contour>
      <contour>
        <pt x="1413" y="1833" on="1"/>
        <pt x="1357" y="1727" on="0"/>
        <pt x="1260" y="1682" on="1"/>
        <pt x="1230" y="1668" on="0"/>
        <pt x="1129" y="1668" on="0"/>
        <pt x="1029" y="1749" on="1"/>
        <pt x="1000" y="1773" on="0"/>
        <pt x="942" y="1811" on="0"/>
        <pt x="857" y="1811" on="0"/>
        <pt x="763" y="1737" on="0"/>
        <pt x="733" y="1680" on="1"/>
        <pt x="689" y="1704" on="1"/>
        <pt x="748" y="1816" on="0"/>
        <pt x="844" y="1850" on="1"/>
        <pt x="877" y="1862" on="0"/>
        <pt x="908" y="1862" on="1"/>
        <pt x="952" y="1862" on="0"/>
        <pt x="990" y="1838" on="1"/>
        <pt x="1026" y="1815" on="0"/>
        <pt x="1093" y="1761" on="0"/>
        <pt x="1162" y="1718" on="0"/>
        <pt x="1192" y="1718" on="1"/>
        <pt x="1243" y="1718" on="0"/>
        <pt x="1339" y="1803" on="0"/>
        <pt x="1369" y="1857" on="1"/>
      </contour>
    </TTGlyph>
    <TTGlyph name="B" xMin="73" yMin="0" xMax="1706" yMax="1567">
      <contour>
        <pt x="276" y="424" on="0"/>
        <pt x="376" y="459" on="0"/>
        <pt x="501" y="459" on="0"/>
        <pt x="561" y="432" on="1"/>
        <pt x="686" y="562" on="1"/>
        <pt x="897" y="790" on="0"/>
        <pt x="897" y="1050" on="1"/>
        <pt x="896" y="1227" on="0"/>
        <pt x="792" y="1371" on="1"/>
        <pt x="688" y="1516" on="0"/>
        <pt x="552" y="1516" on="1"/>
        <pt x="551" y="1517" on="1"/>
        <pt x="416" y="1516" on="0"/>
        <pt x="276" y="1376" on="0"/>
        <pt x="276" y="1223" on="0"/>
        <pt x="300" y="1176" on="1"/>
        <pt x="338" y="1099" on="0"/>
        <pt x="434" y="1026" on="1"/>
        <pt x="474" y="994" on="0"/>
        <pt x="509" y="958" on="1"/>
        <pt x="591" y="872" on="0"/>
        <pt x="591" y="624" on="0"/>
        <pt x="492" y="560" on="1"/>
        <pt x="418" y="512" on="0"/>
        <pt x="340" y="512" on="1"/>
        <pt x="338" y="512" on="0"/>
        <pt x="337" y="511" on="1"/>
        <pt x="209" y="511" on="0"/>
        <pt x="142" y="576" on="1"/>
        <pt x="73" y="642" on="0"/>
        <pt x="73" y="737" on="1"/>
        <pt x="73" y="830" on="0"/>
        <pt x="139" y="895" on="1"/>
        <pt x="205" y="961" on="0"/>
        <pt x="298" y="961" on="1"/>
        <pt x="298" y="911" on="1"/>
        <pt x="226" y="911" on="0"/>
        <pt x="123" y="808" on="0"/>
        <pt x="123" y="733" on="1"/>
        <pt x="123" y="661" on="0"/>
        <pt x="231" y="561" on="0"/>
        <pt x="312" y="561" on="1"/>
        <pt x="314" y="561" on="0"/>
        <pt x="315" y="561" on="1"/>
        <pt x="458" y="562" on="0"/>
        <pt x="518" y="666" on="1"/>
        <pt x="542" y="705" on="0"/>
        <pt x="542" y="762" on="1"/>
        <pt x="542" y="822" on="0"/>
        <pt x="494" y="902" on="0"/>
        <pt x="459" y="936" on="1"/>
        <pt x="424" y="970" on="0"/>
        <pt x="384" y="1002" on="1"/>
        <pt x="226" y="1128" on="0"/>
        <pt x="226" y="1291" on="1"/>
        <pt x="226" y="1392" on="0"/>
        <pt x="393" y="1566" on="0"/>
        <pt x="541" y="1567" on="1"/>
        <pt x="660" y="1566" on="0"/>
        <pt x="859" y="1389" on="0"/>
        <pt x="910" y="1252" on="1"/>
        <pt x="960" y="1567" on="0"/>
        <pt x="1169" y="1567" on="1"/>
        <pt x="1171" y="1567" on="1"/>
        <pt x="1274" y="1567" on="0"/>
        <pt x="1336" y="1440" on="1"/>
        <pt x="1402" y="1304" on="1"/>
        <pt x="1457" y="1196" on="0"/>
        <pt x="1528" y="1196" on="1"/>
        <pt x="1624" y="1196" on="0"/>
        <pt x="1658" y="1322" on="1"/>
        <pt x="1706" y="1310" on="1"/>
        <pt x="1676" y="1195" on="0"/>
        <pt x="1584" y="1153" on="1"/>
        <pt x="1303" y="1024" on="1"/>
        <pt x="1426" y="938" on="0"/>
        <pt x="1492" y="851" on="1"/>
        <pt x="1626" y="672" on="0"/>
        <pt x="1626" y="290" on="0"/>
        <pt x="1358" y="0" on="0"/>
        <pt x="922" y="0" on="0"/>
        <pt x="790" y="142" on="1"/>
        <pt x="664" y="288" on="1"/>
        <pt x="556" y="408" on="0"/>
        <pt x="430" y="409" on="1"/>
        <pt x="428" y="409" on="0"/>
        <pt x="427" y="409" on="1"/>
        <pt x="335" y="409" on="0"/>
        <pt x="270" y="350" on="1"/>
        <pt x="204" y="290" on="0"/>
        <pt x="204" y="181" on="1"/>
        <pt x="204" y="120" on="0"/>
        <pt x="236" y="85" on="1"/>
        <pt x="266" y="50" on="0"/>
        <pt x="300" y="50" on="1"/>
        <pt x="354" y="50" on="0"/>
        <pt x="421" y="113" on="0"/>
        <pt x="421" y="158" on="1"/>
        <pt x="471" y="158" on="1"/>
        <pt x="470" y="91" on="0"/>
        <pt x="377" y="0" on="0"/>
        <pt x="312" y="0" on="1"/>
        <pt x="204" y="0" on="0"/>
        <pt x="166" y="105" on="1"/>
        <pt x="154" y="139" on="0"/>
        <pt x="154" y="251" on="0"/>
        <pt x="200" y="355" on="0"/>
      </contour>
      <contour>
        <pt x="917" y="846" on="1"/>
        <pt x="864" y="680" on="0"/>
        <pt x="702" y="505" on="1"/>
        <pt x="607" y="406" on="1"/>
        <pt x="670" y="366" on="0"/>
        <pt x="758" y="256" on="1"/>
        <pt x="838" y="156" on="0"/>
        <pt x="992" y="50" on="0"/>
        <pt x="1114" y="50" on="1"/>
        <pt x="1335" y="50" on="0"/>
        <pt x="1576" y="310" on="0"/>
        <pt x="1576" y="490" on="1"/>
        <pt x="1576" y="754" on="0"/>
        <pt x="1308" y="958" on="1"/>
        <pt x="1274" y="984" on="0"/>
        <pt x="1249" y="999" on="1"/>
      </contour>
      <contour>
        <pt x="1169" y="1517" on="1"/>
        <pt x="947" y="1517" on="0"/>
        <pt x="947" y="1052" on="1"/>
        <pt x="947" y="977" on="0"/>
        <pt x="933" y="909" on="1"/>
        <pt x="1471" y="1156" on="1"/>
        <pt x="1406" y="1180" on="0"/>
        <pt x="1354" y="1286" on="1"/>
        <pt x="1296" y="1408" on="1"/>
        <pt x="1241" y="1517" on="0"/>
      </contour>
    </TTGlyph>
    <TTGlyph name="C" xMin="90" yMin="-28" xMax="1434" yMax="1559">
      <contour>
        <pt x="1194" y="1240" on="1"/>
        <pt x="1044" y="1240" on="0"/>
        <pt x="973" y="1388" on="1"/>
        <pt x="973" y="1305" on="1"/>
        <pt x="972" y="1180" on="0"/>
        <pt x="832" y="1078" on="1"/>
        <pt x="662" y="959" on="1"/>
        <pt x="510" y="849" on="0"/>
        <pt x="510" y="548" on="0"/>
        <pt x="646" y="488" on="1"/>
        <pt x="693" y="467" on="0"/>
        <pt x="761" y="467" on="1"/>
        <pt x="764" y="467" on="0"/>
        <pt x="767" y="467" on="1"/>
        <pt x="767" y="417" on="1"/>
        <pt x="765" y="417" on="0"/>
        <pt x="764" y="417" on="1"/>
        <pt x="607" y="417" on="0"/>
        <pt x="527" y="510" on="1"/>
        <pt x="460" y="587" on="0"/>
        <pt x="460" y="705" on="1"/>
        <pt x="460" y="874" on="0"/>
        <pt x="627" y="996" on="1"/>
        <pt x="796" y="1114" on="1"/>
        <pt x="924" y="1205" on="0"/>
        <pt x="923" y="1305" on="1"/>
        <pt x="923" y="1484" on="1"/>
        <pt x="848" y="1509" on="0"/>
        <pt x="616" y="1509" on="0"/>
        <pt x="401" y="1405" on="0"/>
        <pt x="319" y="1308" on="1"/>
        <pt x="140" y="1096" on="0"/>
        <pt x="140" y="454" on="0"/>
        <pt x="306" y="246" on="1"/>
        <pt x="418" y="106" on="0"/>
        <pt x="592" y="50" on="1"/>
        <pt x="680" y="22" on="0"/>
        <pt x="869" y="22" on="0"/>
        <pt x="1016" y="64" on="0"/>
        <pt x="1078" y="98" on="1"/>
        <pt x="1190" y="161" on="0"/>
        <pt x="1346" y="350" on="0"/>
        <pt x="1380" y="436" on="1"/>
        <pt x="1426" y="418" on="1"/>
        <pt x="1366" y="266" on="0"/>
        <pt x="1223" y="138" on="1"/>
        <pt x="1037" y="-28" on="0"/>
        <pt x="566" y="-28" on="0"/>
        <pt x="252" y="185" on="0"/>
        <pt x="90" y="542" on="0"/>
        <pt x="90" y="945" on="0"/>
        <pt x="193" y="1243" on="0"/>
        <pt x="368" y="1450" on="0"/>
        <pt x="602" y="1559" on="0"/>
        <pt x="847" y="1559" on="0"/>
        <pt x="966" y="1520" on="0"/>
        <pt x="985" y="1505" on="1"/>
        <pt x="1040" y="1290" on="0"/>
        <pt x="1347" y="1290" on="0"/>
        <pt x="1386" y="1473" on="1"/>
        <pt x="1434" y="1463" on="1"/>
        <pt x="1388" y="1240" on="0"/>
      </contour>
    </TTGlyph>
    <TTGlyph name="Ccedilla" xMin="92" yMin="-376" xMax="1436" yMax="1559">
      <contour>
        <pt x="925" y="1484" on="1"/>
        <pt x="850" y="1509" on="0"/>
        <pt x="618" y="1509" on="0"/>
        <pt x="403" y="1405" on="0"/>
        <pt x="321" y="1308" on="1"/>
        <pt x="142" y="1096" on="0"/>
        <pt x="142" y="454" on="0"/>
        <pt x="308" y="246" on="1"/>
        <pt x="420" y="106" on="0"/>
        <pt x="594" y="50" on="1"/>
        <pt x="682" y="22" on="0"/>
        <pt x="871" y="22" on="0"/>
        <pt x="1018" y="64" on="0"/>
        <pt x="1080" y="98" on="1"/>
        <pt x="1192" y="161" on="0"/>
        <pt x="1348" y="350" on="0"/>
        <pt x="1382" y="436" on="1"/>
        <pt x="1428" y="418" on="1"/>
        <pt x="1367" y="268" on="0"/>
        <pt x="1228" y="142" on="1"/>
        <pt x="1046" y="-23" on="0"/>
        <pt x="799" y="-28" on="1"/>
        <pt x="740" y="-75" on="1"/>
        <pt x="788" y="-87" on="0"/>
        <pt x="846" y="-167" on="0"/>
        <pt x="846" y="-209" on="1"/>
        <pt x="846" y="-286" on="0"/>
        <pt x="753" y="-376" on="0"/>
        <pt x="687" y="-376" on="1"/>
        <pt x="687" y="-326" on="1"/>
        <pt x="731" y="-326" on="0"/>
        <pt x="796" y="-264" on="0"/>
        <pt x="796" y="-174" on="0"/>
        <pt x="730" y="-113" on="0"/>
        <pt x="666" y="-113" on="1"/>
        <pt x="656" y="-77" on="1"/>
        <pt x="720" y="-25" on="1"/>
        <pt x="423" y="-2" on="0"/>
        <pt x="92" y="444" on="0"/>
        <pt x="92" y="756" on="1"/>
        <pt x="92" y="1120" on="0"/>
        <pt x="282" y="1346" on="1"/>
        <pt x="462" y="1559" on="0"/>
        <pt x="735" y="1559" on="1"/>
        <pt x="849" y="1559" on="0"/>
        <pt x="968" y="1520" on="0"/>
        <pt x="987" y="1505" on="1"/>
        <pt x="1042" y="1290" on="0"/>
        <pt x="1349" y="1290" on="0"/>
        <pt x="1388" y="1473" on="1"/>
        <pt x="1436" y="1463" on="1"/>
        <pt x="1390" y="1240" on="0"/>
        <pt x="1196" y="1240" on="1"/>
        <pt x="1046" y="1240" on="0"/>
        <pt x="975" y="1388" on="1"/>
        <pt x="975" y="1305" on="1"/>
        <pt x="974" y="1180" on="0"/>
        <pt x="834" y="1078" on="1"/>
        <pt x="664" y="959" on="1"/>
        <pt x="512" y="849" on="0"/>
        <pt x="512" y="548" on="0"/>
        <pt x="648" y="488" on="1"/>
        <pt x="695" y="467" on="0"/>
        <pt x="763" y="467" on="1"/>
        <pt x="766" y="467" on="0"/>
        <pt x="769" y="467" on="1"/>
        <pt x="769" y="417" on="1"/>
        <pt x="767" y="417" on="0"/>
        <pt x="766" y="417" on="1"/>
        <pt x="609" y="417" on="0"/>
        <pt x="529" y="510" on="1"/>
        <pt x="462" y="587" on="0"/>
        <pt x="462" y="705" on="1"/>
        <pt x="462" y="874" on="0"/>
        <pt x="629" y="996" on="1"/>
        <pt x="798" y="1114" on="1"/>
        <pt x="926" y="1205" on="0"/>
        <pt x="925" y="1305" on="1"/>
      </contour>
    </TTGlyph>
    <TTGlyph name="D" xMin="86" yMin="0" xMax="1604" yMax="1568">
      <contour>
        <pt x="790" y="1510" on="1"/>
        <pt x="738" y="1518" on="0"/>
        <pt x="556" y="1518" on="0"/>
        <pt x="352" y="1456" on="0"/>
        <pt x="282" y="1402" on="1"/>
        <pt x="136" y="1291" on="0"/>
        <pt x="136" y="1129" on="1"/>
        <pt x="136" y="1025" on="0"/>
        <pt x="260" y="874" on="0"/>
        <pt x="372" y="874" on="1"/>
        <pt x="372" y="824" on="1"/>
        <pt x="238" y="824" on="0"/>
        <pt x="86" y="1008" on="0"/>
        <pt x="86" y="1114" on="1"/>
        <pt x="86" y="1315" on="0"/>
        <pt x="411" y="1568" on="0"/>
        <pt x="934" y="1568" on="0"/>
        <pt x="1359" y="1303" on="0"/>
        <pt x="1604" y="891" on="0"/>
        <pt x="1604" y="680" on="1"/>
        <pt x="1604" y="405" on="0"/>
        <pt x="1449" y="206" on="1"/>
        <pt x="1350" y="78" on="0"/>
        <pt x="1202" y="26" on="1"/>
        <pt x="1127" y="0" on="0"/>
        <pt x="1057" y="0" on="1"/>
        <pt x="948" y="0" on="0"/>
        <pt x="852" y="64" on="1"/>
        <pt x="784" y="108" on="0"/>
        <pt x="724" y="172" on="1"/>
        <pt x="619" y="282" on="0"/>
        <pt x="479" y="374" on="0"/>
        <pt x="416" y="374" on="1"/>
        <pt x="304" y="374" on="0"/>
        <pt x="235" y="318" on="1"/>
        <pt x="165" y="261" on="0"/>
        <pt x="165" y="167" on="1"/>
        <pt x="166" y="116" on="0"/>
        <pt x="196" y="84" on="1"/>
        <pt x="228" y="50" on="0"/>
        <pt x="262" y="50" on="1"/>
        <pt x="318" y="50" on="0"/>
        <pt x="384" y="113" on="0"/>
        <pt x="384" y="158" on="1"/>
        <pt x="434" y="158" on="1"/>
        <pt x="434" y="91" on="0"/>
        <pt x="341" y="0" on="0"/>
        <pt x="275" y="0" on="1"/>
        <pt x="208" y="0" on="0"/>
        <pt x="115" y="96" on="0"/>
        <pt x="115" y="163" on="1"/>
        <pt x="115" y="287" on="0"/>
        <pt x="285" y="424" on="0"/>
        <pt x="534" y="424" on="0"/>
        <pt x="660" y="308" on="1"/>
        <pt x="697" y="274" on="0"/>
        <pt x="732" y="238" on="1"/>
        <pt x="802" y="168" on="1"/>
        <pt x="922" y="50" on="0"/>
        <pt x="1040" y="50" on="1"/>
        <pt x="1040" y="50" on="0"/>
        <pt x="1040" y="50" on="1"/>
        <pt x="1267" y="51" on="0"/>
        <pt x="1554" y="424" on="0"/>
        <pt x="1554" y="949" on="0"/>
        <pt x="1154" y="1435" on="0"/>
        <pt x="852" y="1500" on="1"/>
        <pt x="479" y="1144" on="1"/>
        <pt x="488" y="1082" on="0"/>
        <pt x="587" y="978" on="1"/>
        <pt x="640" y="920" on="1"/>
        <pt x="734" y="815" on="0"/>
        <pt x="735" y="703" on="1"/>
        <pt x="735" y="594" on="0"/>
        <pt x="593" y="482" on="0"/>
        <pt x="512" y="482" on="1"/>
        <pt x="511" y="482" on="1"/>
        <pt x="430" y="482" on="0"/>
        <pt x="328" y="572" on="0"/>
        <pt x="328" y="641" on="1"/>
        <pt x="328" y="706" on="0"/>
        <pt x="419" y="800" on="0"/>
        <pt x="486" y="800" on="1"/>
        <pt x="486" y="750" on="1"/>
        <pt x="440" y="750" on="0"/>
        <pt x="378" y="685" on="0"/>
        <pt x="378" y="596" on="0"/>
        <pt x="446" y="533" on="0"/>
        <pt x="491" y="533" on="1"/>
        <pt x="574" y="533" on="0"/>
        <pt x="685" y="619" on="0"/>
        <pt x="685" y="799" on="0"/>
        <pt x="599" y="892" on="1"/>
        <pt x="505" y="994" on="1"/>
        <pt x="429" y="1079" on="0"/>
        <pt x="429" y="1164" on="1"/>
      </contour>
    </TTGlyph>
    <TTGlyph name="E" xMin="98" yMin="-1" xMax="1412" yMax="1566">
      <contour>
        <pt x="596" y="684" on="1"/>
        <pt x="556" y="628" on="0"/>
        <pt x="556" y="570" on="1"/>
        <pt x="556" y="468" on="0"/>
        <pt x="671" y="360" on="0"/>
        <pt x="868" y="360" on="0"/>
        <pt x="984" y="500" on="0"/>
        <pt x="985" y="577" on="1"/>
        <pt x="985" y="650" on="0"/>
        <pt x="962" y="694" on="1"/>
        <pt x="939" y="740" on="0"/>
        <pt x="896" y="782" on="1"/>
        <pt x="852" y="824" on="0"/>
        <pt x="772" y="870" on="1"/>
        <pt x="623" y="954" on="0"/>
        <pt x="581" y="996" on="1"/>
        <pt x="512" y="1063" on="0"/>
        <pt x="512" y="1220" on="0"/>
        <pt x="552" y="1272" on="1"/>
        <pt x="574" y="1301" on="1"/>
        <pt x="607" y="1341" on="0"/>
        <pt x="612" y="1368" on="1"/>
        <pt x="618" y="1394" on="0"/>
        <pt x="618" y="1416" on="1"/>
        <pt x="618" y="1458" on="0"/>
        <pt x="584" y="1488" on="1"/>
        <pt x="549" y="1516" on="0"/>
        <pt x="432" y="1516" on="0"/>
        <pt x="308" y="1426" on="0"/>
        <pt x="258" y="1334" on="1"/>
        <pt x="148" y="1130" on="0"/>
        <pt x="148" y="420" on="0"/>
        <pt x="335" y="223" on="1"/>
        <pt x="500" y="49" on="0"/>
        <pt x="965" y="49" on="0"/>
        <pt x="1132" y="196" on="1"/>
        <pt x="1262" y="310" on="0"/>
        <pt x="1335" y="500" on="1"/>
        <pt x="1381" y="482" on="1"/>
        <pt x="1258" y="159" on="0"/>
        <pt x="976" y="43" on="1"/>
        <pt x="869" y="-1" on="0"/>
        <pt x="654" y="-1" on="0"/>
        <pt x="578" y="19" on="1"/>
        <pt x="502" y="38" on="0"/>
        <pt x="432" y="80" on="1"/>
        <pt x="281" y="170" on="0"/>
        <pt x="98" y="520" on="0"/>
        <pt x="98" y="977" on="0"/>
        <pt x="168" y="1274" on="0"/>
        <pt x="281" y="1470" on="0"/>
        <pt x="423" y="1566" on="0"/>
        <pt x="478" y="1566" on="1"/>
        <pt x="570" y="1566" on="0"/>
        <pt x="668" y="1480" on="0"/>
        <pt x="668" y="1417" on="1"/>
        <pt x="668" y="1416" on="1"/>
        <pt x="772" y="1545" on="1"/>
        <pt x="857" y="1291" on="0"/>
        <pt x="1026" y="1291" on="1"/>
        <pt x="1029" y="1291" on="1"/>
        <pt x="1125" y="1290" on="0"/>
        <pt x="1181" y="1360" on="1"/>
        <pt x="1238" y="1430" on="0"/>
        <pt x="1238" y="1541" on="1"/>
        <pt x="1288" y="1541" on="1"/>
        <pt x="1288" y="1336" on="0"/>
        <pt x="1136" y="1264" on="1"/>
        <pt x="1088" y="1241" on="0"/>
        <pt x="1030" y="1241" on="1"/>
        <pt x="929" y="1241" on="0"/>
        <pt x="789" y="1358" on="0"/>
        <pt x="753" y="1443" on="1"/>
        <pt x="624" y="1283" on="1"/>
        <pt x="622" y="1279" on="0"/>
        <pt x="616" y="1273" on="0"/>
        <pt x="606" y="1260" on="1"/>
        <pt x="562" y="1206" on="0"/>
        <pt x="562" y="1110" on="0"/>
        <pt x="578" y="1080" on="1"/>
        <pt x="609" y="1024" on="0"/>
        <pt x="684" y="979" on="1"/>
        <pt x="757" y="937" on="1"/>
        <pt x="879" y="869" on="0"/>
        <pt x="936" y="817" on="1"/>
        <pt x="970" y="918" on="0"/>
        <pt x="1001" y="959" on="1"/>
        <pt x="1062" y="1038" on="0"/>
        <pt x="1141" y="1038" on="1"/>
        <pt x="1200" y="1038" on="0"/>
        <pt x="1281" y="968" on="0"/>
        <pt x="1303" y="968" on="1"/>
        <pt x="1362" y="968" on="0"/>
        <pt x="1362" y="1092" on="1"/>
        <pt x="1412" y="1092" on="1"/>
        <pt x="1412" y="1012" on="0"/>
        <pt x="1397" y="980" on="1"/>
        <pt x="1368" y="918" on="0"/>
        <pt x="1303" y="918" on="1"/>
        <pt x="1266" y="918" on="0"/>
        <pt x="1207" y="966" on="0"/>
        <pt x="1169" y="988" on="0"/>
        <pt x="1138" y="988" on="1"/>
        <pt x="1081" y="988" on="0"/>
        <pt x="1004" y="870" on="0"/>
        <pt x="975" y="774" on="1"/>
        <pt x="1035" y="694" on="0"/>
        <pt x="1035" y="480" on="0"/>
        <pt x="891" y="310" on="0"/>
        <pt x="649" y="310" on="0"/>
        <pt x="506" y="445" on="0"/>
        <pt x="506" y="641" on="0"/>
        <pt x="558" y="713" on="1"/>
      </contour>
    </TTGlyph>
    <TTGlyph name="Eacute" xMin="98" yMin="-1" xMax="1412" yMax="1931">
      <contour>
        <pt x="596" y="684" on="1"/>
        <pt x="556" y="628" on="0"/>
        <pt x="556" y="570" on="1"/>
        <pt x="556" y="468" on="0"/>
        <pt x="671" y="360" on="0"/>
        <pt x="868" y="360" on="0"/>
        <pt x="984" y="500" on="0"/>
        <pt x="985" y="577" on="1"/>
        <pt x="985" y="650" on="0"/>
        <pt x="962" y="694" on="1"/>
        <pt x="939" y="740" on="0"/>
        <pt x="896" y="782" on="1"/>
        <pt x="852" y="824" on="0"/>
        <pt x="772" y="870" on="1"/>
        <pt x="623" y="954" on="0"/>
        <pt x="581" y="996" on="1"/>
        <pt x="512" y="1063" on="0"/>
        <pt x="512" y="1220" on="0"/>
        <pt x="552" y="1272" on="1"/>
        <pt x="574" y="1301" on="1"/>
        <pt x="607" y="1341" on="0"/>
        <pt x="612" y="1368" on="1"/>
        <pt x="618" y="1394" on="0"/>
        <pt x="618" y="1416" on="1"/>
        <pt x="618" y="1458" on="0"/>
        <pt x="584" y="1488" on="1"/>
        <pt x="549" y="1516" on="0"/>
        <pt x="432" y="1516" on="0"/>
        <pt x="308" y="1426" on="0"/>
        <pt x="258" y="1334" on="1"/>
        <pt x="148" y="1130" on="0"/>
        <pt x="148" y="420" on="0"/>
        <pt x="335" y="223" on="1"/>
        <pt x="500" y="49" on="0"/>
        <pt x="965" y="49" on="0"/>
        <pt x="1132" y="196" on="1"/>
        <pt x="1262" y="310" on="0"/>
        <pt x="1335" y="500" on="1"/>
        <pt x="1381" y="482" on="1"/>
        <pt x="1258" y="159" on="0"/>
        <pt x="976" y="43" on="1"/>
        <pt x="869" y="-1" on="0"/>
        <pt x="654" y="-1" on="0"/>
        <pt x="578" y="19" on="1"/>
        <pt x="502" y="38" on="0"/>
        <pt x="432" y="80" on="1"/>
        <pt x="281" y="170" on="0"/>
        <pt x="98" y="520" on="0"/>
        <pt x="98" y="977" on="0"/>
        <pt x="168" y="1274" on="0"/>
        <pt x="281" y="1470" on="0"/>
        <pt x="423" y="1566" on="0"/>
        <pt x="478" y="1566" on="1"/>
        <pt x="570" y="1566" on="0"/>
        <pt x="668" y="1480" on="0"/>
        <pt x="668" y="1417" on="1"/>
        <pt x="668" y="1416" on="1"/>
        <pt x="772" y="1545" on="1"/>
        <pt x="857" y="1291" on="0"/>
        <pt x="1026" y="1291" on="1"/>
        <pt x="1029" y="1291" on="1"/>
        <pt x="1125" y="1290" on="0"/>
        <pt x="1181" y="1360" on="1"/>
        <pt x="1238" y="1430" on="0"/>
        <pt x="1238" y="1541" on="1"/>
        <pt x="1288" y="1541" on="1"/>
        <pt x="1288" y="1336" on="0"/>
        <pt x="1136" y="1264" on="1"/>
        <pt x="1088" y="1241" on="0"/>
        <pt x="1030" y="1241" on="1"/>
        <pt x="929" y="1241" on="0"/>
        <pt x="789" y="1358" on="0"/>
        <pt x="753" y="1443" on="1"/>
        <pt x="624" y="1283" on="1"/>
        <pt x="622" y="1279" on="0"/>
        <pt x="616" y="1273" on="0"/>
        <pt x="606" y="1260" on="1"/>
        <pt x="562" y="1206" on="0"/>
        <pt x="562" y="1110" on="0"/>
        <pt x="578" y="1080" on="1"/>
        <pt x="609" y="1024" on="0"/>
        <pt x="684" y="979" on="1"/>
        <pt x="757" y="937" on="1"/>
        <pt x="879" y="869" on="0"/>
        <pt x="936" y="817" on="1"/>
        <pt x="970" y="918" on="0"/>
        <pt x="1001" y="959" on="1"/>
        <pt x="1062" y="1038" on="0"/>
        <pt x="1141" y="1038" on="1"/>
        <pt x="1200" y="1038" on="0"/>
        <pt x="1281" y="968" on="0"/>
        <pt x="1303" y="968" on="1"/>
        <pt x="1362" y="968" on="0"/>
        <pt x="1362" y="1092" on="1"/>
        <pt x="1412" y="1092" on="1"/>
        <pt x="1412" y="1012" on="0"/>
        <pt x="1397" y="980" on="1"/>
        <pt x="1368" y="918" on="0"/>
        <pt x="1303" y="918" on="1"/>
        <pt x="1266" y="918" on="0"/>
        <pt x="1207" y="966" on="0"/>
        <pt x="1169" y="988" on="0"/>
        <pt x="1138" y="988" on="1"/>
        <pt x="1081" y="988" on="0"/>
        <pt x="1004" y="870" on="0"/>
        <pt x="975" y="774" on="1"/>
        <pt x="1035" y="694" on="0"/>
        <pt x="1035" y="480" on="0"/>
        <pt x="891" y="310" on="0"/>
        <pt x="649" y="310" on="0"/>
        <pt x="506" y="445" on="0"/>
        <pt x="506" y="641" on="0"/>
        <pt x="558" y="713" on="1"/>
      </contour>
      <contour>
        <pt x="962" y="1684" on="1"/>
        <pt x="935" y="1728" on="1"/>
        <pt x="1213" y="1931" on="1"/>
        <pt x="1256" y="1872" on="1"/>
      </contour>
    </TTGlyph>
    <TTGlyph name="Ecircumflex" xMin="98" yMin="-1" xMax="1412" yMax="1934">
      <contour>
        <pt x="596" y="684" on="1"/>
        <pt x="556" y="628" on="0"/>
        <pt x="556" y="570" on="1"/>
        <pt x="556" y="468" on="0"/>
        <pt x="671" y="360" on="0"/>
        <pt x="868" y="360" on="0"/>
        <pt x="984" y="500" on="0"/>
        <pt x="985" y="577" on="1"/>
        <pt x="985" y="650" on="0"/>
        <pt x="962" y="694" on="1"/>
        <pt x="939" y="740" on="0"/>
        <pt x="896" y="782" on="1"/>
        <pt x="852" y="824" on="0"/>
        <pt x="772" y="870" on="1"/>
        <pt x="623" y="954" on="0"/>
        <pt x="581" y="996" on="1"/>
        <pt x="512" y="1063" on="0"/>
        <pt x="512" y="1220" on="0"/>
        <pt x="552" y="1272" on="1"/>
        <pt x="574" y="1301" on="1"/>
        <pt x="607" y="1341" on="0"/>
        <pt x="612" y="1368" on="1"/>
        <pt x="618" y="1394" on="0"/>
        <pt x="618" y="1416" on="1"/>
        <pt x="618" y="1458" on="0"/>
        <pt x="584" y="1488" on="1"/>
        <pt x="549" y="1516" on="0"/>
        <pt x="432" y="1516" on="0"/>
        <pt x="308" y="1426" on="0"/>
        <pt x="258" y="1334" on="1"/>
        <pt x="148" y="1130" on="0"/>
        <pt x="148" y="420" on="0"/>
        <pt x="335" y="223" on="1"/>
        <pt x="500" y="49" on="0"/>
        <pt x="965" y="49" on="0"/>
        <pt x="1132" y="196" on="1"/>
        <pt x="1262" y="310" on="0"/>
        <pt x="1335" y="500" on="1"/>
        <pt x="1381" y="482" on="1"/>
        <pt x="1258" y="159" on="0"/>
        <pt x="976" y="43" on="1"/>
        <pt x="869" y="-1" on="0"/>
        <pt x="654" y="-1" on="0"/>
        <pt x="578" y="19" on="1"/>
        <pt x="502" y="38" on="0"/>
        <pt x="432" y="80" on="1"/>
        <pt x="281" y="170" on="0"/>
        <pt x="98" y="520" on="0"/>
        <pt x="98" y="977" on="0"/>
        <pt x="168" y="1274" on="0"/>
        <pt x="281" y="1470" on="0"/>
        <pt x="423" y="1566" on="0"/>
        <pt x="478" y="1566" on="1"/>
        <pt x="570" y="1566" on="0"/>
        <pt x="668" y="1480" on="0"/>
        <pt x="668" y="1417" on="1"/>
        <pt x="668" y="1416" on="1"/>
        <pt x="772" y="1545" on="1"/>
        <pt x="857" y="1291" on="0"/>
        <pt x="1026" y="1291" on="1"/>
        <pt x="1029" y="1291" on="1"/>
        <pt x="1125" y="1290" on="0"/>
        <pt x="1181" y="1360" on="1"/>
        <pt x="1238" y="1430" on="0"/>
        <pt x="1238" y="1541" on="1"/>
        <pt x="1288" y="1541" on="1"/>
        <pt x="1288" y="1336" on="0"/>
        <pt x="1136" y="1264" on="1"/>
        <pt x="1088" y="1241" on="0"/>
        <pt x="1030" y="1241" on="1"/>
        <pt x="929" y="1241" on="0"/>
        <pt x="789" y="1358" on="0"/>
        <pt x="753" y="1443" on="1"/>
        <pt x="624" y="1283" on="1"/>
        <pt x="622" y="1279" on="0"/>
        <pt x="616" y="1273" on="0"/>
        <pt x="606" y="1260" on="1"/>
        <pt x="562" y="1206" on="0"/>
        <pt x="562" y="1110" on="0"/>
        <pt x="578" y="1080" on="1"/>
        <pt x="609" y="1024" on="0"/>
        <pt x="684" y="979" on="1"/>
        <pt x="757" y="937" on="1"/>
        <pt x="879" y="869" on="0"/>
        <pt x="936" y="817" on="1"/>
        <pt x="970" y="918" on="0"/>
        <pt x="1001" y="959" on="1"/>
        <pt x="1062" y="1038" on="0"/>
        <pt x="1141" y="1038" on="1"/>
        <pt x="1200" y="1038" on="0"/>
        <pt x="1281" y="968" on="0"/>
        <pt x="1303" y="968" on="1"/>
        <pt x="1362" y="968" on="0"/>
        <pt x="1362" y="1092" on="1"/>
        <pt x="1412" y="1092" on="1"/>
        <pt x="1412" y="1012" on="0"/>
        <pt x="1397" y="980" on="1"/>
        <pt x="1368" y="918" on="0"/>
        <pt x="1303" y="918" on="1"/>
        <pt x="1266" y="918" on="0"/>
        <pt x="1207" y="966" on="0"/>
        <pt x="1169" y="988" on="0"/>
        <pt x="1138" y="988" on="1"/>
        <pt x="1081" y="988" on="0"/>
        <pt x="1004" y="870" on="0"/>
        <pt x="975" y="774" on="1"/>
        <pt x="1035" y="694" on="0"/>
        <pt x="1035" y="480" on="0"/>
        <pt x="891" y="310" on="0"/>
        <pt x="649" y="310" on="0"/>
        <pt x="506" y="445" on="0"/>
        <pt x="506" y="641" on="0"/>
        <pt x="558" y="713" on="1"/>
      </contour>
      <contour>
        <pt x="672" y="1726" on="1"/>
        <pt x="938" y="1934" on="1"/>
        <pt x="1270" y="1727" on="1"/>
        <pt x="1244" y="1685" on="1"/>
        <pt x="942" y="1873" on="1"/>
        <pt x="934" y="1866" on="0"/>
        <pt x="918" y="1854" on="1"/>
        <pt x="702" y="1686" on="1"/>
      </contour>
    </TTGlyph>
    <TTGlyph name="Edieresis" xMin="98" yMin="-1" xMax="1412" yMax="1876">
      <contour>
        <pt x="596" y="684" on="1"/>
        <pt x="556" y="628" on="0"/>
        <pt x="556" y="570" on="1"/>
        <pt x="556" y="468" on="0"/>
        <pt x="671" y="360" on="0"/>
        <pt x="868" y="360" on="0"/>
        <pt x="984" y="500" on="0"/>
        <pt x="985" y="577" on="1"/>
        <pt x="985" y="650" on="0"/>
        <pt x="962" y="694" on="1"/>
        <pt x="939" y="740" on="0"/>
        <pt x="896" y="782" on="1"/>
        <pt x="852" y="824" on="0"/>
        <pt x="772" y="870" on="1"/>
        <pt x="623" y="954" on="0"/>
        <pt x="581" y="996" on="1"/>
        <pt x="512" y="1063" on="0"/>
        <pt x="512" y="1220" on="0"/>
        <pt x="552" y="1272" on="1"/>
        <pt x="574" y="1301" on="1"/>
        <pt x="607" y="1341" on="0"/>
        <pt x="612" y="1368" on="1"/>
        <pt x="618" y="1394" on="0"/>
        <pt x="618" y="1416" on="1"/>
        <pt x="618" y="1458" on="0"/>
        <pt x="584" y="1488" on="1"/>
        <pt x="549" y="1516" on="0"/>
        <pt x="432" y="1516" on="0"/>
        <pt x="308" y="1426" on="0"/>
        <pt x="258" y="1334" on="1"/>
        <pt x="148" y="1130" on="0"/>
        <pt x="148" y="420" on="0"/>
        <pt x="335" y="223" on="1"/>
        <pt x="500" y="49" on="0"/>
        <pt x="965" y="49" on="0"/>
        <pt x="1132" y="196" on="1"/>
        <pt x="1262" y="310" on="0"/>
        <pt x="1335" y="500" on="1"/>
        <pt x="1381" y="482" on="1"/>
        <pt x="1258" y="159" on="0"/>
        <pt x="976" y="43" on="1"/>
        <pt x="869" y="-1" on="0"/>
        <pt x="654" y="-1" on="0"/>
        <pt x="578" y="19" on="1"/>
        <pt x="502" y="38" on="0"/>
        <pt x="432" y="80" on="1"/>
        <pt x="281" y="170" on="0"/>
        <pt x="98" y="520" on="0"/>
        <pt x="98" y="977" on="0"/>
        <pt x="168" y="1274" on="0"/>
        <pt x="281" y="1470" on="0"/>
        <pt x="423" y="1566" on="0"/>
        <pt x="478" y="1566" on="1"/>
        <pt x="570" y="1566" on="0"/>
        <pt x="668" y="1480" on="0"/>
        <pt x="668" y="1417" on="1"/>
        <pt x="668" y="1416" on="1"/>
        <pt x="772" y="1545" on="1"/>
        <pt x="857" y="1291" on="0"/>
        <pt x="1026" y="1291" on="1"/>
        <pt x="1029" y="1291" on="1"/>
        <pt x="1125" y="1290" on="0"/>
        <pt x="1181" y="1360" on="1"/>
        <pt x="1238" y="1430" on="0"/>
        <pt x="1238" y="1541" on="1"/>
        <pt x="1288" y="1541" on="1"/>
        <pt x="1288" y="1336" on="0"/>
        <pt x="1136" y="1264" on="1"/>
        <pt x="1088" y="1241" on="0"/>
        <pt x="1030" y="1241" on="1"/>
        <pt x="929" y="1241" on="0"/>
        <pt x="789" y="1358" on="0"/>
        <pt x="753" y="1443" on="1"/>
        <pt x="624" y="1283" on="1"/>
        <pt x="622" y="1279" on="0"/>
        <pt x="616" y="1273" on="0"/>
        <pt x="606" y="1260" on="1"/>
        <pt x="562" y="1206" on="0"/>
        <pt x="562" y="1110" on="0"/>
        <pt x="578" y="1080" on="1"/>
        <pt x="609" y="1024" on="0"/>
        <pt x="684" y="979" on="1"/>
        <pt x="757" y="937" on="1"/>
        <pt x="879" y="869" on="0"/>
        <pt x="936" y="817" on="1"/>
        <pt x="970" y="918" on="0"/>
        <pt x="1001" y="959" on="1"/>
        <pt x="1062" y="1038" on="0"/>
        <pt x="1141" y="1038" on="1"/>
        <pt x="1200" y="1038" on="0"/>
        <pt x="1281" y="968" on="0"/>
        <pt x="1303" y="968" on="1"/>
        <pt x="1362" y="968" on="0"/>
        <pt x="1362" y="1092" on="1"/>
        <pt x="1412" y="1092" on="1"/>
        <pt x="1412" y="1012" on="0"/>
        <pt x="1397" y="980" on="1"/>
        <pt x="1368" y="918" on="0"/>
        <pt x="1303" y="918" on="1"/>
        <pt x="1266" y="918" on="0"/>
        <pt x="1207" y="966" on="0"/>
        <pt x="1169" y="988" on="0"/>
        <pt x="1138" y="988" on="1"/>
        <pt x="1081" y="988" on="0"/>
        <pt x="1004" y="870" on="0"/>
        <pt x="975" y="774" on="1"/>
        <pt x="1035" y="694" on="0"/>
        <pt x="1035" y="480" on="0"/>
        <pt x="891" y="310" on="0"/>
        <pt x="649" y="310" on="0"/>
        <pt x="506" y="445" on="0"/>
        <pt x="506" y="641" on="0"/>
        <pt x="558" y="713" on="1"/>
      </contour>
      <contour>
        <pt x="1165" y="1679" on="1"/>
        <pt x="1118" y="1694" on="1"/>
        <pt x="1194" y="1876" on="1"/>
        <pt x="1255" y="1851" on="1"/>
      </contour>
      <contour>
        <pt x="886" y="1679" on="1"/>
        <pt x="839" y="1694" on="1"/>
        <pt x="915" y="1876" on="1"/>
        <pt x="976" y="1851" on="1"/>
      </contour>
    </TTGlyph>
    <TTGlyph name="Egrave" xMin="98" yMin="-1" xMax="1412" yMax="1931">
      <contour>
        <pt x="596" y="684" on="1"/>
        <pt x="556" y="628" on="0"/>
        <pt x="556" y="570" on="1"/>
        <pt x="556" y="468" on="0"/>
        <pt x="671" y="360" on="0"/>
        <pt x="868" y="360" on="0"/>
        <pt x="984" y="500" on="0"/>
        <pt x="985" y="577" on="1"/>
        <pt x="985" y="650" on="0"/>
        <pt x="962" y="694" on="1"/>
        <pt x="939" y="740" on="0"/>
        <pt x="896" y="782" on="1"/>
        <pt x="852" y="824" on="0"/>
        <pt x="772" y="870" on="1"/>
        <pt x="623" y="954" on="0"/>
        <pt x="581" y="996" on="1"/>
        <pt x="512" y="1063" on="0"/>
        <pt x="512" y="1220" on="0"/>
        <pt x="552" y="1272" on="1"/>
        <pt x="574" y="1301" on="1"/>
        <pt x="607" y="1341" on="0"/>
        <pt x="612" y="1368" on="1"/>
        <pt x="618" y="1394" on="0"/>
        <pt x="618" y="1416" on="1"/>
        <pt x="618" y="1458" on="0"/>
        <pt x="584" y="1488" on="1"/>
        <pt x="549" y="1516" on="0"/>
        <pt x="432" y="1516" on="0"/>
        <pt x="308" y="1426" on="0"/>
        <pt x="258" y="1334" on="1"/>
        <pt x="148" y="1130" on="0"/>
        <pt x="148" y="420" on="0"/>
        <pt x="335" y="223" on="1"/>
        <pt x="500" y="49" on="0"/>
        <pt x="965" y="49" on="0"/>
        <pt x="1132" y="196" on="1"/>
        <pt x="1262" y="310" on="0"/>
        <pt x="1335" y="500" on="1"/>
        <pt x="1381" y="482" on="1"/>
        <pt x="1258" y="159" on="0"/>
        <pt x="976" y="43" on="1"/>
        <pt x="869" y="-1" on="0"/>
        <pt x="654" y="-1" on="0"/>
        <pt x="578" y="19" on="1"/>
        <pt x="502" y="38" on="0"/>
        <pt x="432" y="80" on="1"/>
        <pt x="281" y="170" on="0"/>
        <pt x="98" y="520" on="0"/>
        <pt x="98" y="977" on="0"/>
        <pt x="168" y="1274" on="0"/>
        <pt x="281" y="1470" on="0"/>
        <pt x="423" y="1566" on="0"/>
        <pt x="478" y="1566" on="1"/>
        <pt x="570" y="1566" on="0"/>
        <pt x="668" y="1480" on="0"/>
        <pt x="668" y="1417" on="1"/>
        <pt x="668" y="1416" on="1"/>
        <pt x="772" y="1545" on="1"/>
        <pt x="857" y="1291" on="0"/>
        <pt x="1026" y="1291" on="1"/>
        <pt x="1029" y="1291" on="1"/>
        <pt x="1125" y="1290" on="0"/>
        <pt x="1181" y="1360" on="1"/>
        <pt x="1238" y="1430" on="0"/>
        <pt x="1238" y="1541" on="1"/>
        <pt x="1288" y="1541" on="1"/>
        <pt x="1288" y="1336" on="0"/>
        <pt x="1136" y="1264" on="1"/>
        <pt x="1088" y="1241" on="0"/>
        <pt x="1030" y="1241" on="1"/>
        <pt x="929" y="1241" on="0"/>
        <pt x="789" y="1358" on="0"/>
        <pt x="753" y="1443" on="1"/>
        <pt x="624" y="1283" on="1"/>
        <pt x="622" y="1279" on="0"/>
        <pt x="616" y="1273" on="0"/>
        <pt x="606" y="1260" on="1"/>
        <pt x="562" y="1206" on="0"/>
        <pt x="562" y="1110" on="0"/>
        <pt x="578" y="1080" on="1"/>
        <pt x="609" y="1024" on="0"/>
        <pt x="684" y="979" on="1"/>
        <pt x="757" y="937" on="1"/>
        <pt x="879" y="869" on="0"/>
        <pt x="936" y="817" on="1"/>
        <pt x="970" y="918" on="0"/>
        <pt x="1001" y="959" on="1"/>
        <pt x="1062" y="1038" on="0"/>
        <pt x="1141" y="1038" on="1"/>
        <pt x="1200" y="1038" on="0"/>
        <pt x="1281" y="968" on="0"/>
        <pt x="1303" y="968" on="1"/>
        <pt x="1362" y="968" on="0"/>
        <pt x="1362" y="1092" on="1"/>
        <pt x="1412" y="1092" on="1"/>
        <pt x="1412" y="1012" on="0"/>
        <pt x="1397" y="980" on="1"/>
        <pt x="1368" y="918" on="0"/>
        <pt x="1303" y="918" on="1"/>
        <pt x="1266" y="918" on="0"/>
        <pt x="1207" y="966" on="0"/>
        <pt x="1169" y="988" on="0"/>
        <pt x="1138" y="988" on="1"/>
        <pt x="1081" y="988" on="0"/>
        <pt x="1004" y="870" on="0"/>
        <pt x="975" y="774" on="1"/>
        <pt x="1035" y="694" on="0"/>
        <pt x="1035" y="480" on="0"/>
        <pt x="891" y="310" on="0"/>
        <pt x="649" y="310" on="0"/>
        <pt x="506" y="445" on="0"/>
        <pt x="506" y="641" on="0"/>
        <pt x="558" y="713" on="1"/>
      </contour>
      <contour>
        <pt x="687" y="1872" on="1"/>
        <pt x="730" y="1931" on="1"/>
        <pt x="1008" y="1728" on="1"/>
        <pt x="981" y="1684" on="1"/>
      </contour>
    </TTGlyph>
    <TTGlyph name="Eth" xMin="86" yMin="0" xMax="1604" yMax="1568">
      <contour>
        <pt x="790" y="1510" on="1"/>
        <pt x="738" y="1518" on="0"/>
        <pt x="556" y="1518" on="0"/>
        <pt x="352" y="1456" on="0"/>
        <pt x="282" y="1402" on="1"/>
        <pt x="136" y="1291" on="0"/>
        <pt x="136" y="1129" on="1"/>
        <pt x="136" y="1025" on="0"/>
        <pt x="260" y="874" on="0"/>
        <pt x="372" y="874" on="1"/>
        <pt x="372" y="824" on="1"/>
        <pt x="238" y="824" on="0"/>
        <pt x="86" y="1008" on="0"/>
        <pt x="86" y="1114" on="1"/>
        <pt x="86" y="1315" on="0"/>
        <pt x="411" y="1568" on="0"/>
        <pt x="934" y="1568" on="0"/>
        <pt x="1359" y="1303" on="0"/>
        <pt x="1604" y="891" on="0"/>
        <pt x="1604" y="680" on="1"/>
        <pt x="1604" y="405" on="0"/>
        <pt x="1449" y="206" on="1"/>
        <pt x="1350" y="78" on="0"/>
        <pt x="1202" y="26" on="1"/>
        <pt x="1127" y="0" on="0"/>
        <pt x="1057" y="0" on="1"/>
        <pt x="948" y="0" on="0"/>
        <pt x="852" y="64" on="1"/>
        <pt x="784" y="108" on="0"/>
        <pt x="724" y="172" on="1"/>
        <pt x="619" y="282" on="0"/>
        <pt x="479" y="374" on="0"/>
        <pt x="416" y="374" on="1"/>
        <pt x="304" y="374" on="0"/>
        <pt x="235" y="318" on="1"/>
        <pt x="165" y="261" on="0"/>
        <pt x="165" y="167" on="1"/>
        <pt x="166" y="116" on="0"/>
        <pt x="196" y="84" on="1"/>
        <pt x="228" y="50" on="0"/>
        <pt x="262" y="50" on="1"/>
        <pt x="318" y="50" on="0"/>
        <pt x="384" y="113" on="0"/>
        <pt x="384" y="158" on="1"/>
        <pt x="434" y="158" on="1"/>
        <pt x="434" y="91" on="0"/>
        <pt x="341" y="0" on="0"/>
        <pt x="275" y="0" on="1"/>
        <pt x="208" y="0" on="0"/>
        <pt x="115" y="96" on="0"/>
        <pt x="115" y="163" on="1"/>
        <pt x="115" y="287" on="0"/>
        <pt x="285" y="424" on="0"/>
        <pt x="534" y="424" on="0"/>
        <pt x="660" y="308" on="1"/>
        <pt x="697" y="274" on="0"/>
        <pt x="732" y="238" on="1"/>
        <pt x="802" y="168" on="1"/>
        <pt x="922" y="50" on="0"/>
        <pt x="1040" y="50" on="1"/>
        <pt x="1040" y="50" on="0"/>
        <pt x="1040" y="50" on="1"/>
        <pt x="1267" y="51" on="0"/>
        <pt x="1554" y="424" on="0"/>
        <pt x="1554" y="949" on="0"/>
        <pt x="1154" y="1435" on="0"/>
        <pt x="852" y="1500" on="1"/>
        <pt x="479" y="1144" on="1"/>
        <pt x="488" y="1082" on="0"/>
        <pt x="587" y="978" on="1"/>
        <pt x="626" y="937" on="0"/>
        <pt x="700" y="848" on="0"/>
        <pt x="720" y="794" on="1"/>
        <pt x="1135" y="794" on="1"/>
        <pt x="1135" y="750" on="1"/>
        <pt x="731" y="750" on="1"/>
        <pt x="735" y="731" on="0"/>
        <pt x="735" y="644" on="0"/>
        <pt x="690" y="558" on="0"/>
        <pt x="656" y="532" on="1"/>
        <pt x="593" y="482" on="0"/>
        <pt x="513" y="482" on="1"/>
        <pt x="511" y="482" on="1"/>
        <pt x="430" y="482" on="0"/>
        <pt x="328" y="572" on="0"/>
        <pt x="328" y="641" on="1"/>
        <pt x="328" y="706" on="0"/>
        <pt x="419" y="794" on="0"/>
        <pt x="486" y="794" on="1"/>
        <pt x="666" y="794" on="1"/>
        <pt x="648" y="836" on="0"/>
        <pt x="616" y="872" on="1"/>
        <pt x="505" y="994" on="1"/>
        <pt x="429" y="1079" on="0"/>
        <pt x="429" y="1164" on="1"/>
      </contour>
      <contour>
        <pt x="491" y="533" on="1"/>
        <pt x="621" y="534" on="0"/>
        <pt x="668" y="626" on="1"/>
        <pt x="685" y="660" on="0"/>
        <pt x="685" y="727" on="0"/>
        <pt x="680" y="750" on="1"/>
        <pt x="486" y="750" on="1"/>
        <pt x="440" y="750" on="0"/>
        <pt x="378" y="685" on="0"/>
        <pt x="378" y="596" on="0"/>
        <pt x="446" y="533" on="0"/>
      </contour>
    </TTGlyph>
    <TTGlyph name="F" xMin="90" yMin="-239" xMax="1388" yMax="1567">
      <contour>
        <pt x="1303" y="804" on="1"/>
        <pt x="1303" y="884" on="0"/>
        <pt x="1248" y="930" on="1"/>
        <pt x="1277" y="969" on="1"/>
        <pt x="1328" y="927" on="0"/>
        <pt x="1347" y="849" on="1"/>
        <pt x="1352" y="829" on="0"/>
        <pt x="1352" y="808" on="1"/>
        <pt x="1352" y="759" on="0"/>
        <pt x="1288" y="698" on="0"/>
        <pt x="1215" y="698" on="0"/>
        <pt x="1175" y="724" on="0"/>
        <pt x="1109" y="776" on="0"/>
        <pt x="1075" y="776" on="1"/>
        <pt x="1013" y="776" on="0"/>
        <pt x="971" y="692" on="1"/>
        <pt x="942" y="634" on="0"/>
        <pt x="914" y="506" on="1"/>
        <pt x="944" y="475" on="1"/>
        <pt x="1040" y="376" on="0"/>
        <pt x="1069" y="327" on="1"/>
        <pt x="1126" y="235" on="0"/>
        <pt x="1126" y="154" on="1"/>
        <pt x="1126" y="-16" on="0"/>
        <pt x="899" y="-239" on="0"/>
        <pt x="530" y="-239" on="0"/>
        <pt x="409" y="-136" on="1"/>
        <pt x="289" y="-34" on="0"/>
        <pt x="289" y="123" on="1"/>
        <pt x="289" y="207" on="0"/>
        <pt x="339" y="302" on="0"/>
        <pt x="359" y="328" on="1"/>
        <pt x="400" y="378" on="1"/>
        <pt x="500" y="494" on="0"/>
        <pt x="500" y="694" on="0"/>
        <pt x="446" y="741" on="1"/>
        <pt x="393" y="788" on="0"/>
        <pt x="317" y="788" on="1"/>
        <pt x="316" y="788" on="1"/>
        <pt x="238" y="788" on="0"/>
        <pt x="162" y="726" on="0"/>
        <pt x="162" y="642" on="0"/>
        <pt x="215" y="591" on="0"/>
        <pt x="252" y="591" on="1"/>
        <pt x="252" y="542" on="1"/>
        <pt x="161" y="542" on="0"/>
        <pt x="124" y="625" on="1"/>
        <pt x="113" y="650" on="0"/>
        <pt x="113" y="679" on="1"/>
        <pt x="113" y="747" on="0"/>
        <pt x="213" y="835" on="0"/>
        <pt x="313" y="835" on="1"/>
        <pt x="315" y="835" on="1"/>
        <pt x="474" y="835" on="0"/>
        <pt x="530" y="708" on="1"/>
        <pt x="551" y="661" on="0"/>
        <pt x="551" y="606" on="1"/>
        <pt x="552" y="565" on="0"/>
        <pt x="540" y="520" on="1"/>
        <pt x="520" y="445" on="0"/>
        <pt x="456" y="367" on="1"/>
        <pt x="402" y="302" on="1"/>
        <pt x="337" y="219" on="0"/>
        <pt x="337" y="135" on="1"/>
        <pt x="337" y="-14" on="0"/>
        <pt x="443" y="-101" on="1"/>
        <pt x="549" y="-190" on="0"/>
        <pt x="878" y="-190" on="0"/>
        <pt x="1078" y="6" on="0"/>
        <pt x="1078" y="155" on="1"/>
        <pt x="1078" y="262" on="0"/>
        <pt x="986" y="364" on="1"/>
        <pt x="874" y="484" on="1"/>
        <pt x="776" y="594" on="0"/>
        <pt x="776" y="715" on="1"/>
        <pt x="776" y="928" on="0"/>
        <pt x="938" y="1065" on="1"/>
        <pt x="986" y="1106" on="0"/>
        <pt x="1042" y="1145" on="1"/>
        <pt x="979" y="1162" on="0"/>
        <pt x="859" y="1247" on="0"/>
        <pt x="797" y="1297" on="1"/>
        <pt x="798" y="1297" on="1"/>
        <pt x="716" y="1360" on="1"/>
        <pt x="570" y="1469" on="0"/>
        <pt x="475" y="1469" on="1"/>
        <pt x="307" y="1469" on="0"/>
        <pt x="138" y="1292" on="0"/>
        <pt x="138" y="1169" on="1"/>
        <pt x="138" y="1002" on="0"/>
        <pt x="266" y="949" on="1"/>
        <pt x="304" y="933" on="0"/>
        <pt x="358" y="933" on="1"/>
        <pt x="473" y="933" on="0"/>
        <pt x="620" y="1048" on="0"/>
        <pt x="621" y="1141" on="1"/>
        <pt x="670" y="1141" on="1"/>
        <pt x="670" y="1024" on="0"/>
        <pt x="494" y="884" on="0"/>
        <pt x="234" y="884" on="0"/>
        <pt x="90" y="1038" on="0"/>
        <pt x="90" y="1313" on="0"/>
        <pt x="282" y="1518" on="0"/>
        <pt x="462" y="1518" on="1"/>
        <pt x="577" y="1518" on="0"/>
        <pt x="740" y="1400" on="1"/>
        <pt x="900" y="1282" on="1"/>
        <pt x="1034" y="1184" on="0"/>
        <pt x="1108" y="1184" on="1"/>
        <pt x="1262" y="1184" on="0"/>
        <pt x="1318" y="1278" on="1"/>
        <pt x="1338" y="1312" on="0"/>
        <pt x="1338" y="1354" on="1"/>
        <pt x="1338" y="1432" on="0"/>
        <pt x="1252" y="1518" on="0"/>
        <pt x="1133" y="1518" on="0"/>
        <pt x="1059" y="1442" on="0"/>
        <pt x="1059" y="1388" on="1"/>
        <pt x="1010" y="1388" on="1"/>
        <pt x="1010" y="1462" on="0"/>
        <pt x="1111" y="1567" on="0"/>
        <pt x="1171" y="1567" on="1"/>
        <pt x="1277" y="1566" on="0"/>
        <pt x="1333" y="1508" on="1"/>
        <pt x="1388" y="1450" on="0"/>
        <pt x="1388" y="1378" on="1"/>
        <pt x="1388" y="1253" on="0"/>
        <pt x="1305" y="1195" on="1"/>
        <pt x="1224" y="1137" on="0"/>
        <pt x="1112" y="1135" on="1"/>
        <pt x="964" y="1034" on="0"/>
        <pt x="917" y="976" on="1"/>
        <pt x="825" y="863" on="0"/>
        <pt x="825" y="715" on="1"/>
        <pt x="825" y="636" on="0"/>
        <pt x="876" y="557" on="1"/>
        <pt x="904" y="682" on="0"/>
        <pt x="936" y="732" on="1"/>
        <pt x="995" y="825" on="0"/>
        <pt x="1076" y="825" on="1"/>
        <pt x="1130" y="825" on="0"/>
        <pt x="1224" y="747" on="0"/>
        <pt x="1265" y="747" on="0"/>
        <pt x="1303" y="782" on="0"/>
      </contour>
    </TTGlyph>
    <TTGlyph name="G" xMin="88" yMin="0" xMax="1610" yMax="1568">
      <contour>
        <pt x="919" y="1500" on="1"/>
        <pt x="1034" y="1568" on="0"/>
        <pt x="1158" y="1568" on="1"/>
        <pt x="1158" y="1518" on="1"/>
        <pt x="1051" y="1518" on="0"/>
        <pt x="957" y="1465" on="1"/>
        <pt x="1053" y="1361" on="0"/>
        <pt x="1053" y="1180" on="1"/>
        <pt x="1003" y="1180" on="1"/>
        <pt x="1003" y="1346" on="0"/>
        <pt x="914" y="1437" on="1"/>
        <pt x="787" y="1343" on="0"/>
        <pt x="787" y="1214" on="1"/>
        <pt x="787" y="1083" on="0"/>
        <pt x="880" y="960" on="1"/>
        <pt x="949" y="872" on="1"/>
        <pt x="956" y="863" on="0"/>
        <pt x="964" y="854" on="1"/>
        <pt x="1582" y="1334" on="1"/>
        <pt x="1610" y="1296" on="1"/>
        <pt x="1364" y="1105" on="1"/>
        <pt x="1565" y="904" on="0"/>
        <pt x="1565" y="629" on="1"/>
        <pt x="1564" y="352" on="0"/>
        <pt x="1192" y="0" on="0"/>
        <pt x="876" y="0" on="1"/>
        <pt x="488" y="0" on="0"/>
        <pt x="277" y="241" on="1"/>
        <pt x="88" y="457" on="0"/>
        <pt x="88" y="768" on="1"/>
        <pt x="88" y="980" on="0"/>
        <pt x="250" y="1349" on="0"/>
        <pt x="531" y="1568" on="0"/>
        <pt x="830" y="1568" on="0"/>
      </contour>
      <contour>
        <pt x="875" y="1470" on="1"/>
        <pt x="804" y="1518" on="0"/>
        <pt x="619" y="1518" on="0"/>
        <pt x="547" y="1490" on="1"/>
        <pt x="474" y="1464" on="0"/>
        <pt x="412" y="1414" on="1"/>
        <pt x="287" y="1315" on="0"/>
        <pt x="138" y="970" on="0"/>
        <pt x="138" y="769" on="1"/>
        <pt x="138" y="485" on="0"/>
        <pt x="314" y="280" on="1"/>
        <pt x="512" y="50" on="0"/>
        <pt x="875" y="50" on="1"/>
        <pt x="1169" y="50" on="0"/>
        <pt x="1515" y="377" on="0"/>
        <pt x="1515" y="885" on="0"/>
        <pt x="1325" y="1075" on="1"/>
        <pt x="992" y="816" on="1"/>
        <pt x="1119" y="638" on="0"/>
        <pt x="1119" y="496" on="1"/>
        <pt x="1118" y="354" on="0"/>
        <pt x="1050" y="284" on="1"/>
        <pt x="982" y="215" on="0"/>
        <pt x="881" y="215" on="1"/>
        <pt x="880" y="215" on="0"/>
        <pt x="878" y="215" on="1"/>
        <pt x="786" y="216" on="0"/>
        <pt x="680" y="315" on="0"/>
        <pt x="680" y="386" on="1"/>
        <pt x="680" y="450" on="0"/>
        <pt x="771" y="544" on="0"/>
        <pt x="838" y="545" on="1"/>
        <pt x="838" y="495" on="1"/>
        <pt x="837" y="495" on="0"/>
        <pt x="835" y="495" on="1"/>
        <pt x="791" y="496" on="0"/>
        <pt x="761" y="464" on="1"/>
        <pt x="730" y="432" on="0"/>
        <pt x="730" y="397" on="1"/>
        <pt x="730" y="339" on="0"/>
        <pt x="809" y="265" on="0"/>
        <pt x="863" y="265" on="1"/>
        <pt x="960" y="265" on="0"/>
        <pt x="1069" y="378" on="0"/>
        <pt x="1069" y="486" on="1"/>
        <pt x="1069" y="647" on="0"/>
        <pt x="897" y="858" on="1"/>
        <pt x="838" y="933" on="1"/>
        <pt x="737" y="1065" on="0"/>
        <pt x="737" y="1361" on="0"/>
      </contour>
    </TTGlyph>
    <TTGlyph name="H" xMin="35" yMin="-248" xMax="1331" yMax="1567">
      <contour>
        <pt x="687" y="733" on="1"/>
        <pt x="728" y="654" on="0"/>
        <pt x="728" y="564" on="1"/>
        <pt x="728" y="402" on="0"/>
        <pt x="508" y="234" on="0"/>
        <pt x="369" y="233" on="1"/>
        <pt x="103" y="233" on="0"/>
        <pt x="51" y="437" on="1"/>
        <pt x="35" y="500" on="0"/>
        <pt x="35" y="576" on="1"/>
        <pt x="85" y="576" on="1"/>
        <pt x="85" y="434" on="0"/>
        <pt x="215" y="282" on="0"/>
        <pt x="351" y="282" on="1"/>
        <pt x="352" y="282" on="1"/>
        <pt x="490" y="282" on="0"/>
        <pt x="678" y="425" on="0"/>
        <pt x="678" y="724" on="0"/>
        <pt x="528" y="850" on="1"/>
        <pt x="442" y="919" on="1"/>
        <pt x="332" y="1004" on="0"/>
        <pt x="293" y="1054" on="1"/>
        <pt x="215" y="1152" on="0"/>
        <pt x="215" y="1266" on="1"/>
        <pt x="215" y="1468" on="0"/>
        <pt x="442" y="1567" on="1"/>
        <pt x="462" y="1527" on="1"/>
        <pt x="364" y="1479" on="0"/>
        <pt x="327" y="1434" on="1"/>
        <pt x="265" y="1357" on="0"/>
        <pt x="265" y="1266" on="1"/>
        <pt x="265" y="1134" on="0"/>
        <pt x="396" y="1021" on="1"/>
        <pt x="433" y="989" on="0"/>
        <pt x="523" y="918" on="0"/>
        <pt x="623" y="831" on="0"/>
        <pt x="661" y="776" on="1"/>
        <pt x="1037" y="1065" on="1"/>
        <pt x="1035" y="1068" on="1"/>
        <pt x="879" y="1214" on="0"/>
        <pt x="879" y="1363" on="1"/>
        <pt x="880" y="1427" on="0"/>
        <pt x="975" y="1546" on="0"/>
        <pt x="1057" y="1567" on="1"/>
        <pt x="1069" y="1519" on="1"/>
        <pt x="1003" y="1502" on="0"/>
        <pt x="929" y="1415" on="0"/>
        <pt x="929" y="1371" on="1"/>
        <pt x="930" y="1297" on="0"/>
        <pt x="972" y="1227" on="1"/>
        <pt x="990" y="1194" on="0"/>
        <pt x="1016" y="1164" on="1"/>
        <pt x="1158" y="1001" on="1"/>
        <pt x="1330" y="797" on="0"/>
        <pt x="1331" y="567" on="1"/>
        <pt x="1331" y="135" on="0"/>
        <pt x="866" y="-1" on="1"/>
        <pt x="720" y="56" on="1"/>
        <pt x="604" y="100" on="0"/>
        <pt x="518" y="100" on="1"/>
        <pt x="383" y="100" on="0"/>
        <pt x="266" y="3" on="0"/>
        <pt x="266" y="-125" on="0"/>
        <pt x="377" y="-198" on="0"/>
        <pt x="446" y="-198" on="1"/>
        <pt x="446" y="-248" on="1"/>
        <pt x="360" y="-248" on="0"/>
        <pt x="216" y="-149" on="0"/>
        <pt x="216" y="24" on="0"/>
        <pt x="363" y="150" on="0"/>
        <pt x="609" y="150" on="0"/>
        <pt x="734" y="104" on="1"/>
        <pt x="772" y="90" on="0"/>
        <pt x="816" y="72" on="1"/>
        <pt x="867" y="51" on="1"/>
        <pt x="1281" y="178" on="0"/>
        <pt x="1281" y="567" on="1"/>
        <pt x="1281" y="810" on="0"/>
        <pt x="1073" y="1029" on="1"/>
      </contour>
    </TTGlyph>
    <TTGlyph name="I" xMin="93" yMin="-41" xMax="1496" yMax="1567">
      <contour>
        <pt x="972" y="94" on="1"/>
        <pt x="1065" y="47" on="0"/>
        <pt x="1145" y="47" on="1"/>
        <pt x="1204" y="46" on="0"/>
        <pt x="1256" y="72" on="1"/>
        <pt x="1378" y="132" on="0"/>
        <pt x="1424" y="247" on="1"/>
        <pt x="1446" y="301" on="0"/>
        <pt x="1446" y="362" on="1"/>
        <pt x="1446" y="490" on="0"/>
        <pt x="1285" y="642" on="0"/>
        <pt x="1157" y="643" on="1"/>
        <pt x="1157" y="693" on="1"/>
        <pt x="1159" y="693" on="0"/>
        <pt x="1160" y="693" on="1"/>
        <pt x="1310" y="694" on="0"/>
        <pt x="1402" y="604" on="1"/>
        <pt x="1496" y="514" on="0"/>
        <pt x="1496" y="224" on="0"/>
        <pt x="1290" y="-2" on="0"/>
        <pt x="1148" y="-3" on="1"/>
        <pt x="1147" y="-3" on="0"/>
        <pt x="1145" y="-3" on="1"/>
        <pt x="1004" y="-3" on="0"/>
        <pt x="856" y="104" on="1"/>
        <pt x="684" y="232" on="1"/>
        <pt x="531" y="343" on="0"/>
        <pt x="393" y="343" on="1"/>
        <pt x="392" y="343" on="0"/>
        <pt x="390" y="343" on="0"/>
        <pt x="388" y="343" on="1"/>
        <pt x="202" y="343" on="0"/>
        <pt x="156" y="218" on="1"/>
        <pt x="143" y="182" on="0"/>
        <pt x="143" y="148" on="1"/>
        <pt x="143" y="86" on="0"/>
        <pt x="215" y="10" on="0"/>
        <pt x="264" y="9" on="1"/>
        <pt x="264" y="-41" on="1"/>
        <pt x="194" y="-41" on="0"/>
        <pt x="93" y="60" on="0"/>
        <pt x="93" y="145" on="1"/>
        <pt x="93" y="312" on="0"/>
        <pt x="251" y="372" on="1"/>
        <pt x="307" y="394" on="0"/>
        <pt x="376" y="394" on="1"/>
        <pt x="378" y="394" on="0"/>
        <pt x="380" y="394" on="1"/>
        <pt x="550" y="393" on="0"/>
        <pt x="710" y="274" on="1"/>
        <pt x="800" y="208" on="1"/>
        <pt x="862" y="159" on="0"/>
        <pt x="926" y="120" on="1"/>
        <pt x="1013" y="199" on="0"/>
        <pt x="1013" y="319" on="1"/>
        <pt x="1013" y="470" on="0"/>
        <pt x="900" y="628" on="1"/>
        <pt x="782" y="788" on="1"/>
        <pt x="692" y="914" on="0"/>
        <pt x="692" y="1026" on="1"/>
        <pt x="936" y="1217" on="1"/>
        <pt x="904" y="1237" on="0"/>
        <pt x="870" y="1267" on="1"/>
        <pt x="726" y="1396" on="1"/>
        <pt x="589" y="1516" on="0"/>
        <pt x="318" y="1516" on="0"/>
        <pt x="142" y="1322" on="0"/>
        <pt x="142" y="1072" on="0"/>
        <pt x="303" y="920" on="0"/>
        <pt x="432" y="920" on="1"/>
        <pt x="432" y="870" on="1"/>
        <pt x="280" y="870" on="0"/>
        <pt x="93" y="1051" on="0"/>
        <pt x="93" y="1340" on="0"/>
        <pt x="299" y="1566" on="0"/>
        <pt x="586" y="1566" on="0"/>
        <pt x="716" y="1466" on="1"/>
        <pt x="772" y="1424" on="0"/>
        <pt x="876" y="1324" on="0"/>
        <pt x="932" y="1282" on="1"/>
        <pt x="1063" y="1183" on="0"/>
        <pt x="1195" y="1183" on="1"/>
        <pt x="1198" y="1183" on="1"/>
        <pt x="1201" y="1183" on="1"/>
        <pt x="1387" y="1183" on="0"/>
        <pt x="1433" y="1308" on="1"/>
        <pt x="1446" y="1344" on="0"/>
        <pt x="1446" y="1378" on="1"/>
        <pt x="1446" y="1440" on="0"/>
        <pt x="1374" y="1516" on="0"/>
        <pt x="1325" y="1517" on="1"/>
        <pt x="1325" y="1567" on="1"/>
        <pt x="1395" y="1567" on="0"/>
        <pt x="1496" y="1466" on="0"/>
        <pt x="1496" y="1381" on="1"/>
        <pt x="1496" y="1214" on="0"/>
        <pt x="1338" y="1154" on="1"/>
        <pt x="1282" y="1132" on="0"/>
        <pt x="1194" y="1132" on="1"/>
        <pt x="1190" y="1132" on="1"/>
        <pt x="1098" y="1132" on="0"/>
        <pt x="984" y="1190" on="1"/>
        <pt x="742" y="1002" on="1"/>
        <pt x="748" y="922" on="0"/>
        <pt x="830" y="808" on="1"/>
        <pt x="942" y="654" on="1"/>
        <pt x="1062" y="485" on="0"/>
        <pt x="1063" y="316" on="1"/>
        <pt x="1063" y="187" on="0"/>
      </contour>
    </TTGlyph>
    <TTGlyph name="Iacute" xMin="93" yMin="-41" xMax="1496" yMax="1931">
      <contour>
        <pt x="972" y="94" on="1"/>
        <pt x="1065" y="47" on="0"/>
        <pt x="1145" y="47" on="1"/>
        <pt x="1204" y="46" on="0"/>
        <pt x="1256" y="72" on="1"/>
        <pt x="1378" y="132" on="0"/>
        <pt x="1424" y="247" on="1"/>
        <pt x="1446" y="301" on="0"/>
        <pt x="1446" y="362" on="1"/>
        <pt x="1446" y="490" on="0"/>
        <pt x="1285" y="642" on="0"/>
        <pt x="1157" y="643" on="1"/>
        <pt x="1157" y="693" on="1"/>
        <pt x="1159" y="693" on="0"/>
        <pt x="1160" y="693" on="1"/>
        <pt x="1310" y="694" on="0"/>
        <pt x="1402" y="604" on="1"/>
        <pt x="1496" y="514" on="0"/>
        <pt x="1496" y="224" on="0"/>
        <pt x="1290" y="-2" on="0"/>
        <pt x="1148" y="-3" on="1"/>
        <pt x="1147" y="-3" on="0"/>
        <pt x="1145" y="-3" on="1"/>
        <pt x="1004" y="-3" on="0"/>
        <pt x="856" y="104" on="1"/>
        <pt x="684" y="232" on="1"/>
        <pt x="531" y="343" on="0"/>
        <pt x="393" y="343" on="1"/>
        <pt x="392" y="343" on="0"/>
        <pt x="390" y="343" on="0"/>
        <pt x="388" y="343" on="1"/>
        <pt x="202" y="343" on="0"/>
        <pt x="156" y="218" on="1"/>
        <pt x="143" y="182" on="0"/>
        <pt x="143" y="148" on="1"/>
        <pt x="143" y="86" on="0"/>
        <pt x="215" y="10" on="0"/>
        <pt x="264" y="9" on="1"/>
        <pt x="264" y="-41" on="1"/>
        <pt x="194" y="-41" on="0"/>
        <pt x="93" y="60" on="0"/>
        <pt x="93" y="145" on="1"/>
        <pt x="93" y="312" on="0"/>
        <pt x="251" y="372" on="1"/>
        <pt x="307" y="394" on="0"/>
        <pt x="376" y="394" on="1"/>
        <pt x="378" y="394" on="0"/>
        <pt x="380" y="394" on="1"/>
        <pt x="550" y="393" on="0"/>
        <pt x="710" y="274" on="1"/>
        <pt x="800" y="208" on="1"/>
        <pt x="862" y="159" on="0"/>
        <pt x="926" y="120" on="1"/>
        <pt x="1013" y="199" on="0"/>
        <pt x="1013" y="319" on="1"/>
        <pt x="1013" y="470" on="0"/>
        <pt x="900" y="628" on="1"/>
        <pt x="782" y="788" on="1"/>
        <pt x="692" y="914" on="0"/>
        <pt x="692" y="1026" on="1"/>
        <pt x="936" y="1217" on="1"/>
        <pt x="904" y="1237" on="0"/>
        <pt x="870" y="1267" on="1"/>
        <pt x="726" y="1396" on="1"/>
        <pt x="589" y="1516" on="0"/>
        <pt x="318" y="1516" on="0"/>
        <pt x="142" y="1322" on="0"/>
        <pt x="142" y="1072" on="0"/>
        <pt x="303" y="920" on="0"/>
        <pt x="432" y="920" on="1"/>
        <pt x="432" y="870" on="1"/>
        <pt x="280" y="870" on="0"/>
        <pt x="93" y="1051" on="0"/>
        <pt x="93" y="1340" on="0"/>
        <pt x="299" y="1566" on="0"/>
        <pt x="586" y="1566" on="0"/>
        <pt x="716" y="1466" on="1"/>
        <pt x="772" y="1424" on="0"/>
        <pt x="876" y="1324" on="0"/>
        <pt x="932" y="1282" on="1"/>
        <pt x="1063" y="1183" on="0"/>
        <pt x="1195" y="1183" on="1"/>
        <pt x="1198" y="1183" on="1"/>
        <pt x="1201" y="1183" on="1"/>
        <pt x="1387" y="1183" on="0"/>
        <pt x="1433" y="1308" on="1"/>
        <pt x="1446" y="1344" on="0"/>
        <pt x="1446" y="1378" on="1"/>
        <pt x="1446" y="1440" on="0"/>
        <pt x="1374" y="1516" on="0"/>
        <pt x="1325" y="1517" on="1"/>
        <pt x="1325" y="1567" on="1"/>
        <pt x="1395" y="1567" on="0"/>
        <pt x="1496" y="1466" on="0"/>
        <pt x="1496" y="1381" on="1"/>
        <pt x="1496" y="1214" on="0"/>
        <pt x="1338" y="1154" on="1"/>
        <pt x="1282" y="1132" on="0"/>
        <pt x="1194" y="1132" on="1"/>
        <pt x="1190" y="1132" on="1"/>
        <pt x="1098" y="1132" on="0"/>
        <pt x="984" y="1190" on="1"/>
        <pt x="742" y="1002" on="1"/>
        <pt x="748" y="922" on="0"/>
        <pt x="830" y="808" on="1"/>
        <pt x="942" y="654" on="1"/>
        <pt x="1062" y="485" on="0"/>
        <pt x="1063" y="316" on="1"/>
        <pt x="1063" y="187" on="0"/>
      </contour>
      <contour>
        <pt x="1019" y="1684" on="1"/>
        <pt x="992" y="1728" on="1"/>
        <pt x="1270" y="1931" on="1"/>
        <pt x="1313" y="1872" on="1"/>
      </contour>
    </TTGlyph>
    <TTGlyph name="Icircumflex" xMin="93" yMin="-41" xMax="1496" yMax="1934">
      <contour>
        <pt x="972" y="94" on="1"/>
        <pt x="1065" y="47" on="0"/>
        <pt x="1145" y="47" on="1"/>
        <pt x="1204" y="46" on="0"/>
        <pt x="1256" y="72" on="1"/>
        <pt x="1378" y="132" on="0"/>
        <pt x="1424" y="247" on="1"/>
        <pt x="1446" y="301" on="0"/>
        <pt x="1446" y="362" on="1"/>
        <pt x="1446" y="490" on="0"/>
        <pt x="1285" y="642" on="0"/>
        <pt x="1157" y="643" on="1"/>
        <pt x="1157" y="693" on="1"/>
        <pt x="1159" y="693" on="0"/>
        <pt x="1160" y="693" on="1"/>
        <pt x="1310" y="694" on="0"/>
        <pt x="1402" y="604" on="1"/>
        <pt x="1496" y="514" on="0"/>
        <pt x="1496" y="224" on="0"/>
        <pt x="1290" y="-2" on="0"/>
        <pt x="1148" y="-3" on="1"/>
        <pt x="1147" y="-3" on="0"/>
        <pt x="1145" y="-3" on="1"/>
        <pt x="1004" y="-3" on="0"/>
        <pt x="856" y="104" on="1"/>
        <pt x="684" y="232" on="1"/>
        <pt x="531" y="343" on="0"/>
        <pt x="393" y="343" on="1"/>
        <pt x="392" y="343" on="0"/>
        <pt x="390" y="343" on="0"/>
        <pt x="388" y="343" on="1"/>
        <pt x="202" y="343" on="0"/>
        <pt x="156" y="218" on="1"/>
        <pt x="143" y="182" on="0"/>
        <pt x="143" y="148" on="1"/>
        <pt x="143" y="86" on="0"/>
        <pt x="215" y="10" on="0"/>
        <pt x="264" y="9" on="1"/>
        <pt x="264" y="-41" on="1"/>
        <pt x="194" y="-41" on="0"/>
        <pt x="93" y="60" on="0"/>
        <pt x="93" y="145" on="1"/>
        <pt x="93" y="312" on="0"/>
        <pt x="251" y="372" on="1"/>
        <pt x="307" y="394" on="0"/>
        <pt x="376" y="394" on="1"/>
        <pt x="378" y="394" on="0"/>
        <pt x="380" y="394" on="1"/>
        <pt x="550" y="393" on="0"/>
        <pt x="710" y="274" on="1"/>
        <pt x="800" y="208" on="1"/>
        <pt x="862" y="159" on="0"/>
        <pt x="926" y="120" on="1"/>
        <pt x="1013" y="199" on="0"/>
        <pt x="1013" y="319" on="1"/>
        <pt x="1013" y="470" on="0"/>
        <pt x="900" y="628" on="1"/>
        <pt x="782" y="788" on="1"/>
        <pt x="692" y="914" on="0"/>
        <pt x="692" y="1026" on="1"/>
        <pt x="936" y="1217" on="1"/>
        <pt x="904" y="1237" on="0"/>
        <pt x="870" y="1267" on="1"/>
        <pt x="726" y="1396" on="1"/>
        <pt x="589" y="1516" on="0"/>
        <pt x="318" y="1516" on="0"/>
        <pt x="142" y="1322" on="0"/>
        <pt x="142" y="1072" on="0"/>
        <pt x="303" y="920" on="0"/>
        <pt x="432" y="920" on="1"/>
        <pt x="432" y="870" on="1"/>
        <pt x="280" y="870" on="0"/>
        <pt x="93" y="1051" on="0"/>
        <pt x="93" y="1340" on="0"/>
        <pt x="299" y="1566" on="0"/>
        <pt x="586" y="1566" on="0"/>
        <pt x="716" y="1466" on="1"/>
        <pt x="772" y="1424" on="0"/>
        <pt x="876" y="1324" on="0"/>
        <pt x="932" y="1282" on="1"/>
        <pt x="1063" y="1183" on="0"/>
        <pt x="1195" y="1183" on="1"/>
        <pt x="1198" y="1183" on="1"/>
        <pt x="1201" y="1183" on="1"/>
        <pt x="1387" y="1183" on="0"/>
        <pt x="1433" y="1308" on="1"/>
        <pt x="1446" y="1344" on="0"/>
        <pt x="1446" y="1378" on="1"/>
        <pt x="1446" y="1440" on="0"/>
        <pt x="1374" y="1516" on="0"/>
        <pt x="1325" y="1517" on="1"/>
        <pt x="1325" y="1567" on="1"/>
        <pt x="1395" y="1567" on="0"/>
        <pt x="1496" y="1466" on="0"/>
        <pt x="1496" y="1381" on="1"/>
        <pt x="1496" y="1214" on="0"/>
        <pt x="1338" y="1154" on="1"/>
        <pt x="1282" y="1132" on="0"/>
        <pt x="1194" y="1132" on="1"/>
        <pt x="1190" y="1132" on="1"/>
        <pt x="1098" y="1132" on="0"/>
        <pt x="984" y="1190" on="1"/>
        <pt x="742" y="1002" on="1"/>
        <pt x="748" y="922" on="0"/>
        <pt x="830" y="808" on="1"/>
        <pt x="942" y="654" on="1"/>
        <pt x="1062" y="485" on="0"/>
        <pt x="1063" y="316" on="1"/>
        <pt x="1063" y="187" on="0"/>
      </contour>
      <contour>
        <pt x="673" y="1726" on="1"/>
        <pt x="939" y="1934" on="1"/>
        <pt x="1271" y="1727" on="1"/>
        <pt x="1245" y="1685" on="1"/>
        <pt x="943" y="1873" on="1"/>
        <pt x="703" y="1686" on="1"/>
      </contour>
    </TTGlyph>
    <TTGlyph name="Idieresis" xMin="93" yMin="-41" xMax="1496" yMax="1876">
      <contour>
        <pt x="972" y="94" on="1"/>
        <pt x="1065" y="47" on="0"/>
        <pt x="1145" y="47" on="1"/>
        <pt x="1204" y="46" on="0"/>
        <pt x="1256" y="72" on="1"/>
        <pt x="1378" y="132" on="0"/>
        <pt x="1424" y="247" on="1"/>
        <pt x="1446" y="301" on="0"/>
        <pt x="1446" y="362" on="1"/>
        <pt x="1446" y="490" on="0"/>
        <pt x="1285" y="642" on="0"/>
        <pt x="1157" y="643" on="1"/>
        <pt x="1157" y="693" on="1"/>
        <pt x="1159" y="693" on="0"/>
        <pt x="1160" y="693" on="1"/>
        <pt x="1310" y="694" on="0"/>
        <pt x="1402" y="604" on="1"/>
        <pt x="1496" y="514" on="0"/>
        <pt x="1496" y="224" on="0"/>
        <pt x="1290" y="-2" on="0"/>
        <pt x="1148" y="-3" on="1"/>
        <pt x="1147" y="-3" on="0"/>
        <pt x="1145" y="-3" on="1"/>
        <pt x="1004" y="-3" on="0"/>
        <pt x="856" y="104" on="1"/>
        <pt x="684" y="232" on="1"/>
        <pt x="531" y="343" on="0"/>
        <pt x="393" y="343" on="1"/>
        <pt x="392" y="343" on="0"/>
        <pt x="390" y="343" on="0"/>
        <pt x="388" y="343" on="1"/>
        <pt x="202" y="343" on="0"/>
        <pt x="156" y="218" on="1"/>
        <pt x="143" y="182" on="0"/>
        <pt x="143" y="148" on="1"/>
        <pt x="143" y="86" on="0"/>
        <pt x="215" y="10" on="0"/>
        <pt x="264" y="9" on="1"/>
        <pt x="264" y="-41" on="1"/>
        <pt x="194" y="-41" on="0"/>
        <pt x="93" y="60" on="0"/>
        <pt x="93" y="145" on="1"/>
        <pt x="93" y="312" on="0"/>
        <pt x="251" y="372" on="1"/>
        <pt x="307" y="394" on="0"/>
        <pt x="376" y="394" on="1"/>
        <pt x="378" y="394" on="0"/>
        <pt x="380" y="394" on="1"/>
        <pt x="550" y="393" on="0"/>
        <pt x="710" y="274" on="1"/>
        <pt x="800" y="208" on="1"/>
        <pt x="862" y="159" on="0"/>
        <pt x="926" y="120" on="1"/>
        <pt x="1013" y="199" on="0"/>
        <pt x="1013" y="319" on="1"/>
        <pt x="1013" y="470" on="0"/>
        <pt x="900" y="628" on="1"/>
        <pt x="782" y="788" on="1"/>
        <pt x="692" y="914" on="0"/>
        <pt x="692" y="1026" on="1"/>
        <pt x="936" y="1217" on="1"/>
        <pt x="904" y="1237" on="0"/>
        <pt x="870" y="1267" on="1"/>
        <pt x="726" y="1396" on="1"/>
        <pt x="589" y="1516" on="0"/>
        <pt x="318" y="1516" on="0"/>
        <pt x="142" y="1322" on="0"/>
        <pt x="142" y="1072" on="0"/>
        <pt x="303" y="920" on="0"/>
        <pt x="432" y="920" on="1"/>
        <pt x="432" y="870" on="1"/>
        <pt x="280" y="870" on="0"/>
        <pt x="93" y="1051" on="0"/>
        <pt x="93" y="1340" on="0"/>
        <pt x="299" y="1566" on="0"/>
        <pt x="586" y="1566" on="0"/>
        <pt x="716" y="1466" on="1"/>
        <pt x="772" y="1424" on="0"/>
        <pt x="876" y="1324" on="0"/>
        <pt x="932" y="1282" on="1"/>
        <pt x="1063" y="1183" on="0"/>
        <pt x="1195" y="1183" on="1"/>
        <pt x="1198" y="1183" on="1"/>
        <pt x="1201" y="1183" on="1"/>
        <pt x="1387" y="1183" on="0"/>
        <pt x="1433" y="1308" on="1"/>
        <pt x="1446" y="1344" on="0"/>
        <pt x="1446" y="1378" on="1"/>
        <pt x="1446" y="1440" on="0"/>
        <pt x="1374" y="1516" on="0"/>
        <pt x="1325" y="1517" on="1"/>
        <pt x="1325" y="1567" on="1"/>
        <pt x="1395" y="1567" on="0"/>
        <pt x="1496" y="1466" on="0"/>
        <pt x="1496" y="1381" on="1"/>
        <pt x="1496" y="1214" on="0"/>
        <pt x="1338" y="1154" on="1"/>
        <pt x="1282" y="1132" on="0"/>
        <pt x="1194" y="1132" on="1"/>
        <pt x="1190" y="1132" on="1"/>
        <pt x="1098" y="1132" on="0"/>
        <pt x="984" y="1190" on="1"/>
        <pt x="742" y="1002" on="1"/>
        <pt x="748" y="922" on="0"/>
        <pt x="830" y="808" on="1"/>
        <pt x="942" y="654" on="1"/>
        <pt x="1062" y="485" on="0"/>
        <pt x="1063" y="316" on="1"/>
        <pt x="1063" y="187" on="0"/>
      </contour>
      <contour>
        <pt x="1155" y="1679" on="1"/>
        <pt x="1108" y="1694" on="1"/>
        <pt x="1184" y="1876" on="1"/>
        <pt x="1245" y="1851" on="1"/>
      </contour>
      <contour>
        <pt x="876" y="1679" on="1"/>
        <pt x="829" y="1694" on="1"/>
        <pt x="905" y="1876" on="1"/>
        <pt x="966" y="1851" on="1"/>
      </contour>
    </TTGlyph>
    <TTGlyph name="Igrave" xMin="93" yMin="-41" xMax="1496" yMax="1931">
      <contour>
        <pt x="972" y="94" on="1"/>
        <pt x="1065" y="47" on="0"/>
        <pt x="1145" y="47" on="1"/>
        <pt x="1204" y="46" on="0"/>
        <pt x="1256" y="72" on="1"/>
        <pt x="1378" y="132" on="0"/>
        <pt x="1424" y="247" on="1"/>
        <pt x="1446" y="301" on="0"/>
        <pt x="1446" y="362" on="1"/>
        <pt x="1446" y="490" on="0"/>
        <pt x="1285" y="642" on="0"/>
        <pt x="1157" y="643" on="1"/>
        <pt x="1157" y="693" on="1"/>
        <pt x="1159" y="693" on="0"/>
        <pt x="1160" y="693" on="1"/>
        <pt x="1310" y="694" on="0"/>
        <pt x="1402" y="604" on="1"/>
        <pt x="1496" y="514" on="0"/>
        <pt x="1496" y="224" on="0"/>
        <pt x="1290" y="-2" on="0"/>
        <pt x="1148" y="-3" on="1"/>
        <pt x="1147" y="-3" on="0"/>
        <pt x="1145" y="-3" on="1"/>
        <pt x="1004" y="-3" on="0"/>
        <pt x="856" y="104" on="1"/>
        <pt x="684" y="232" on="1"/>
        <pt x="531" y="343" on="0"/>
        <pt x="393" y="343" on="1"/>
        <pt x="392" y="343" on="0"/>
        <pt x="390" y="343" on="0"/>
        <pt x="388" y="343" on="1"/>
        <pt x="202" y="343" on="0"/>
        <pt x="156" y="218" on="1"/>
        <pt x="143" y="182" on="0"/>
        <pt x="143" y="148" on="1"/>
        <pt x="143" y="86" on="0"/>
        <pt x="215" y="10" on="0"/>
        <pt x="264" y="9" on="1"/>
        <pt x="264" y="-41" on="1"/>
        <pt x="194" y="-41" on="0"/>
        <pt x="93" y="60" on="0"/>
        <pt x="93" y="145" on="1"/>
        <pt x="93" y="312" on="0"/>
        <pt x="251" y="372" on="1"/>
        <pt x="307" y="394" on="0"/>
        <pt x="376" y="394" on="1"/>
        <pt x="378" y="394" on="0"/>
        <pt x="380" y="394" on="1"/>
        <pt x="550" y="393" on="0"/>
        <pt x="710" y="274" on="1"/>
        <pt x="800" y="208" on="1"/>
        <pt x="862" y="159" on="0"/>
        <pt x="926" y="120" on="1"/>
        <pt x="1013" y="199" on="0"/>
        <pt x="1013" y="319" on="1"/>
        <pt x="1013" y="470" on="0"/>
        <pt x="900" y="628" on="1"/>
        <pt x="782" y="788" on="1"/>
        <pt x="692" y="914" on="0"/>
        <pt x="692" y="1026" on="1"/>
        <pt x="936" y="1217" on="1"/>
        <pt x="904" y="1237" on="0"/>
        <pt x="870" y="1267" on="1"/>
        <pt x="726" y="1396" on="1"/>
        <pt x="589" y="1516" on="0"/>
        <pt x="318" y="1516" on="0"/>
        <pt x="142" y="1322" on="0"/>
        <pt x="142" y="1072" on="0"/>
        <pt x="303" y="920" on="0"/>
        <pt x="432" y="920" on="1"/>
        <pt x="432" y="870" on="1"/>
        <pt x="280" y="870" on="0"/>
        <pt x="93" y="1051" on="0"/>
        <pt x="93" y="1340" on="0"/>
        <pt x="299" y="1566" on="0"/>
        <pt x="586" y="1566" on="0"/>
        <pt x="716" y="1466" on="1"/>
        <pt x="772" y="1424" on="0"/>
        <pt x="876" y="1324" on="0"/>
        <pt x="932" y="1282" on="1"/>
        <pt x="1063" y="1183" on="0"/>
        <pt x="1195" y="1183" on="1"/>
        <pt x="1198" y="1183" on="1"/>
        <pt x="1201" y="1183" on="1"/>
        <pt x="1387" y="1183" on="0"/>
        <pt x="1433" y="1308" on="1"/>
        <pt x="1446" y="1344" on="0"/>
        <pt x="1446" y="1378" on="1"/>
        <pt x="1446" y="1440" on="0"/>
        <pt x="1374" y="1516" on="0"/>
        <pt x="1325" y="1517" on="1"/>
        <pt x="1325" y="1567" on="1"/>
        <pt x="1395" y="1567" on="0"/>
        <pt x="1496" y="1466" on="0"/>
        <pt x="1496" y="1381" on="1"/>
        <pt x="1496" y="1214" on="0"/>
        <pt x="1338" y="1154" on="1"/>
        <pt x="1282" y="1132" on="0"/>
        <pt x="1194" y="1132" on="1"/>
        <pt x="1190" y="1132" on="1"/>
        <pt x="1098" y="1132" on="0"/>
        <pt x="984" y="1190" on="1"/>
        <pt x="742" y="1002" on="1"/>
        <pt x="748" y="922" on="0"/>
        <pt x="830" y="808" on="1"/>
        <pt x="942" y="654" on="1"/>
        <pt x="1062" y="485" on="0"/>
        <pt x="1063" y="316" on="1"/>
        <pt x="1063" y="187" on="0"/>
      </contour>
      <contour>
        <pt x="652" y="1872" on="1"/>
        <pt x="695" y="1931" on="1"/>
        <pt x="973" y="1728" on="1"/>
        <pt x="946" y="1684" on="1"/>
      </contour>
    </TTGlyph>
    <TTGlyph name="J" xMin="10" yMin="-278" xMax="1652" yMax="1567">
      <contour>
        <pt x="1297" y="1137" on="1"/>
        <pt x="1357" y="1062" on="0"/>
        <pt x="1357" y="984" on="1"/>
        <pt x="1357" y="847" on="0"/>
        <pt x="1271" y="765" on="1"/>
        <pt x="1237" y="801" on="1"/>
        <pt x="1307" y="869" on="0"/>
        <pt x="1307" y="1059" on="0"/>
        <pt x="1175" y="1191" on="0"/>
        <pt x="1081" y="1191" on="1"/>
        <pt x="986" y="1191" on="0"/>
        <pt x="856" y="1058" on="0"/>
        <pt x="856" y="878" on="0"/>
        <pt x="890" y="803" on="1"/>
        <pt x="944" y="680" on="0"/>
        <pt x="1082" y="516" on="1"/>
        <pt x="1142" y="446" on="0"/>
        <pt x="1192" y="372" on="1"/>
        <pt x="1309" y="200" on="0"/>
        <pt x="1309" y="35" on="1"/>
        <pt x="1309" y="-96" on="0"/>
        <pt x="1127" y="-278" on="0"/>
        <pt x="971" y="-278" on="1"/>
        <pt x="771" y="-278" on="0"/>
        <pt x="640" y="-84" on="1"/>
        <pt x="602" y="-29" on="0"/>
        <pt x="570" y="28" on="1"/>
        <pt x="506" y="140" on="1"/>
        <pt x="391" y="334" on="0"/>
        <pt x="241" y="334" on="1"/>
        <pt x="152" y="334" on="0"/>
        <pt x="60" y="240" on="0"/>
        <pt x="60" y="116" on="0"/>
        <pt x="92" y="83" on="1"/>
        <pt x="122" y="50" on="0"/>
        <pt x="156" y="50" on="1"/>
        <pt x="210" y="50" on="0"/>
        <pt x="277" y="113" on="0"/>
        <pt x="277" y="158" on="1"/>
        <pt x="327" y="158" on="1"/>
        <pt x="326" y="91" on="0"/>
        <pt x="233" y="0" on="0"/>
        <pt x="168" y="0" on="1"/>
        <pt x="62" y="0" on="0"/>
        <pt x="22" y="101" on="1"/>
        <pt x="10" y="132" on="0"/>
        <pt x="10" y="170" on="1"/>
        <pt x="10" y="255" on="0"/>
        <pt x="126" y="384" on="0"/>
        <pt x="241" y="384" on="1"/>
        <pt x="417" y="384" on="0"/>
        <pt x="533" y="190" on="1"/>
        <pt x="673" y="-48" on="1"/>
        <pt x="698" y="-88" on="0"/>
        <pt x="742" y="-132" on="1"/>
        <pt x="839" y="-228" on="0"/>
        <pt x="1103" y="-228" on="0"/>
        <pt x="1259" y="-76" on="0"/>
        <pt x="1259" y="126" on="0"/>
        <pt x="1192" y="286" on="0"/>
        <pt x="1091" y="433" on="0"/>
        <pt x="974" y="572" on="0"/>
        <pt x="924" y="644" on="1"/>
        <pt x="806" y="813" on="0"/>
        <pt x="806" y="965" on="1"/>
        <pt x="806" y="1071" on="0"/>
        <pt x="958" y="1231" on="0"/>
        <pt x="1065" y="1241" on="1"/>
        <pt x="1040" y="1257" on="0"/>
        <pt x="1010" y="1284" on="1"/>
        <pt x="947" y="1342" on="1"/>
        <pt x="859" y="1423" on="0"/>
        <pt x="808" y="1453" on="1"/>
        <pt x="703" y="1516" on="0"/>
        <pt x="621" y="1516" on="1"/>
        <pt x="477" y="1516" on="0"/>
        <pt x="300" y="1322" on="0"/>
        <pt x="300" y="1072" on="0"/>
        <pt x="461" y="920" on="0"/>
        <pt x="589" y="920" on="1"/>
        <pt x="589" y="870" on="1"/>
        <pt x="437" y="870" on="0"/>
        <pt x="250" y="1051" on="0"/>
        <pt x="250" y="1340" on="0"/>
        <pt x="456" y="1566" on="0"/>
        <pt x="742" y="1566" on="0"/>
        <pt x="873" y="1466" on="1"/>
        <pt x="929" y="1424" on="0"/>
        <pt x="1033" y="1324" on="0"/>
        <pt x="1089" y="1282" on="1"/>
        <pt x="1219" y="1183" on="0"/>
        <pt x="1351" y="1183" on="1"/>
        <pt x="1354" y="1183" on="1"/>
        <pt x="1357" y="1183" on="1"/>
        <pt x="1543" y="1183" on="0"/>
        <pt x="1589" y="1308" on="1"/>
        <pt x="1602" y="1344" on="0"/>
        <pt x="1602" y="1378" on="1"/>
        <pt x="1602" y="1440" on="0"/>
        <pt x="1530" y="1516" on="0"/>
        <pt x="1481" y="1517" on="1"/>
        <pt x="1481" y="1567" on="1"/>
        <pt x="1551" y="1567" on="0"/>
        <pt x="1652" y="1466" on="0"/>
        <pt x="1652" y="1381" on="1"/>
        <pt x="1652" y="1214" on="0"/>
        <pt x="1494" y="1154" on="1"/>
        <pt x="1436" y="1132" on="0"/>
        <pt x="1367" y="1132" on="1"/>
        <pt x="1333" y="1132" on="0"/>
      </contour>
    </TTGlyph>
    <TTGlyph name="K" xMin="20" yMin="-25" xMax="1337" yMax="1567">
      <contour>
        <pt x="624" y="677" on="1"/>
        <pt x="720" y="529" on="0"/>
        <pt x="720" y="390" on="1"/>
        <pt x="720" y="114" on="0"/>
        <pt x="509" y="28" on="1"/>
        <pt x="440" y="0" on="0"/>
        <pt x="368" y="0" on="1"/>
        <pt x="228" y="0" on="0"/>
        <pt x="20" y="173" on="0"/>
        <pt x="20" y="332" on="1"/>
        <pt x="20" y="432" on="0"/>
        <pt x="138" y="546" on="0"/>
        <pt x="208" y="546" on="1"/>
        <pt x="209" y="547" on="1"/>
        <pt x="278" y="546" on="0"/>
        <pt x="370" y="454" on="0"/>
        <pt x="370" y="388" on="1"/>
        <pt x="320" y="388" on="1"/>
        <pt x="320" y="432" on="0"/>
        <pt x="288" y="464" on="1"/>
        <pt x="254" y="498" on="0"/>
        <pt x="212" y="498" on="1"/>
        <pt x="188" y="498" on="0"/>
        <pt x="162" y="487" on="1"/>
        <pt x="136" y="477" on="0"/>
        <pt x="116" y="457" on="1"/>
        <pt x="70" y="412" on="0"/>
        <pt x="70" y="336" on="1"/>
        <pt x="70" y="196" on="0"/>
        <pt x="248" y="50" on="0"/>
        <pt x="336" y="50" on="1"/>
        <pt x="496" y="50" on="0"/>
        <pt x="670" y="237" on="0"/>
        <pt x="670" y="387" on="1"/>
        <pt x="670" y="510" on="0"/>
        <pt x="576" y="656" on="1"/>
        <pt x="536" y="718" on="0"/>
        <pt x="489" y="779" on="1"/>
        <pt x="308" y="1014" on="0"/>
        <pt x="308" y="1386" on="0"/>
        <pt x="410" y="1477" on="1"/>
        <pt x="511" y="1567" on="0"/>
        <pt x="680" y="1567" on="1"/>
        <pt x="684" y="1567" on="1"/>
        <pt x="688" y="1567" on="1"/>
        <pt x="816" y="1566" on="0"/>
        <pt x="903" y="1496" on="1"/>
        <pt x="992" y="1424" on="0"/>
        <pt x="992" y="1304" on="1"/>
        <pt x="992" y="1142" on="0"/>
        <pt x="805" y="995" on="1"/>
        <pt x="773" y="1035" on="1"/>
        <pt x="828" y="1080" on="1"/>
        <pt x="942" y="1177" on="0"/>
        <pt x="942" y="1306" on="1"/>
        <pt x="942" y="1402" on="0"/>
        <pt x="790" y="1517" on="0"/>
        <pt x="700" y="1517" on="1"/>
        <pt x="533" y="1517" on="0"/>
        <pt x="358" y="1354" on="0"/>
        <pt x="358" y="1024" on="0"/>
        <pt x="514" y="826" on="1"/>
        <pt x="595" y="718" on="1"/>
        <pt x="1128" y="1142" on="1"/>
        <pt x="1212" y="1213" on="0"/>
        <pt x="1212" y="1310" on="1"/>
        <pt x="1212" y="1355" on="0"/>
        <pt x="1190" y="1406" on="1"/>
        <pt x="1236" y="1426" on="1"/>
        <pt x="1262" y="1367" on="0"/>
        <pt x="1262" y="1320" on="1"/>
        <pt x="1262" y="1183" on="0"/>
        <pt x="1159" y="1102" on="1"/>
        <pt x="1004" y="979" on="1"/>
        <pt x="1008" y="979" on="1"/>
        <pt x="1040" y="979" on="0"/>
        <pt x="1088" y="905" on="0"/>
        <pt x="1097" y="845" on="1"/>
        <pt x="1189" y="240" on="1"/>
        <pt x="1212" y="81" on="0"/>
        <pt x="1337" y="21" on="1"/>
        <pt x="1315" y="-25" on="1"/>
        <pt x="1167" y="43" on="0"/>
        <pt x="1139" y="232" on="1"/>
        <pt x="1047" y="837" on="1"/>
        <pt x="1032" y="934" on="0"/>
        <pt x="969" y="934" on="1"/>
        <pt x="953" y="934" on="0"/>
        <pt x="931" y="920" on="1"/>
        <pt x="931" y="921" on="0"/>
        <pt x="932" y="922" on="1"/>
      </contour>
    </TTGlyph>
    <TTGlyph name="L" xMin="69" yMin="-41" xMax="1472" yMax="1568">
      <contour>
        <pt x="335" y="766" on="1"/>
        <pt x="258" y="766" on="0"/>
        <pt x="148" y="660" on="0"/>
        <pt x="147" y="581" on="1"/>
        <pt x="148" y="502" on="0"/>
        <pt x="256" y="394" on="0"/>
        <pt x="335" y="393" on="1"/>
        <pt x="336" y="394" on="1"/>
        <pt x="416" y="394" on="0"/>
        <pt x="550" y="504" on="0"/>
        <pt x="550" y="688" on="0"/>
        <pt x="488" y="804" on="1"/>
        <pt x="453" y="866" on="1"/>
        <pt x="345" y="1051" on="0"/>
        <pt x="345" y="1205" on="1"/>
        <pt x="346" y="1360" on="0"/>
        <pt x="578" y="1568" on="0"/>
        <pt x="760" y="1568" on="1"/>
        <pt x="934" y="1568" on="0"/>
        <pt x="1130" y="1354" on="0"/>
        <pt x="1131" y="1204" on="1"/>
        <pt x="1081" y="1204" on="1"/>
        <pt x="1081" y="1332" on="0"/>
        <pt x="912" y="1518" on="0"/>
        <pt x="597" y="1518" on="0"/>
        <pt x="395" y="1339" on="0"/>
        <pt x="395" y="1078" on="0"/>
        <pt x="460" y="958" on="1"/>
        <pt x="534" y="825" on="1"/>
        <pt x="600" y="705" on="0"/>
        <pt x="600" y="581" on="1"/>
        <pt x="600" y="490" on="0"/>
        <pt x="522" y="418" on="1"/>
        <pt x="498" y="396" on="0"/>
        <pt x="470" y="380" on="1"/>
        <pt x="578" y="352" on="0"/>
        <pt x="706" y="260" on="1"/>
        <pt x="776" y="208" on="1"/>
        <pt x="990" y="46" on="0"/>
        <pt x="1118" y="46" on="1"/>
        <pt x="1119" y="46" on="1"/>
        <pt x="1247" y="46" on="0"/>
        <pt x="1334" y="143" on="1"/>
        <pt x="1422" y="240" on="0"/>
        <pt x="1422" y="490" on="0"/>
        <pt x="1261" y="642" on="0"/>
        <pt x="1133" y="643" on="1"/>
        <pt x="1133" y="693" on="1"/>
        <pt x="1135" y="693" on="0"/>
        <pt x="1136" y="693" on="1"/>
        <pt x="1286" y="694" on="0"/>
        <pt x="1378" y="604" on="1"/>
        <pt x="1472" y="514" on="0"/>
        <pt x="1472" y="224" on="0"/>
        <pt x="1266" y="-2" on="0"/>
        <pt x="1124" y="-3" on="1"/>
        <pt x="1123" y="-3" on="0"/>
        <pt x="1121" y="-3" on="1"/>
        <pt x="980" y="-3" on="0"/>
        <pt x="832" y="104" on="1"/>
        <pt x="660" y="232" on="1"/>
        <pt x="507" y="343" on="0"/>
        <pt x="369" y="343" on="1"/>
        <pt x="368" y="343" on="0"/>
        <pt x="366" y="343" on="0"/>
        <pt x="364" y="343" on="1"/>
        <pt x="178" y="343" on="0"/>
        <pt x="132" y="218" on="1"/>
        <pt x="119" y="182" on="0"/>
        <pt x="119" y="148" on="1"/>
        <pt x="119" y="86" on="0"/>
        <pt x="191" y="10" on="0"/>
        <pt x="240" y="9" on="1"/>
        <pt x="240" y="-41" on="1"/>
        <pt x="170" y="-41" on="0"/>
        <pt x="69" y="60" on="0"/>
        <pt x="69" y="148" on="1"/>
        <pt x="69" y="261" on="0"/>
        <pt x="152" y="330" on="1"/>
        <pt x="182" y="354" on="0"/>
        <pt x="224" y="370" on="1"/>
        <pt x="167" y="400" on="0"/>
        <pt x="97" y="512" on="0"/>
        <pt x="97" y="571" on="1"/>
        <pt x="97" y="679" on="0"/>
        <pt x="235" y="816" on="0"/>
        <pt x="335" y="816" on="1"/>
      </contour>
    </TTGlyph>
    <TTGlyph name="M" xMin="58" yMin="-17" xMax="2239" yMax="1567">
      <contour>
        <pt x="95" y="14" on="1"/>
        <pt x="241" y="206" on="0"/>
        <pt x="516" y="206" on="0"/>
        <pt x="552" y="74" on="1"/>
        <pt x="834" y="464" on="0"/>
        <pt x="887" y="776" on="1"/>
        <pt x="904" y="876" on="0"/>
        <pt x="904" y="1096" on="0"/>
        <pt x="838" y="1295" on="0"/>
        <pt x="731" y="1438" on="0"/>
        <pt x="595" y="1517" on="0"/>
        <pt x="527" y="1517" on="1"/>
        <pt x="402" y="1517" on="0"/>
        <pt x="261" y="1376" on="0"/>
        <pt x="261" y="1300" on="1"/>
        <pt x="260" y="1223" on="0"/>
        <pt x="284" y="1176" on="1"/>
        <pt x="322" y="1099" on="0"/>
        <pt x="418" y="1026" on="1"/>
        <pt x="458" y="994" on="0"/>
        <pt x="494" y="958" on="1"/>
        <pt x="576" y="872" on="0"/>
        <pt x="576" y="624" on="0"/>
        <pt x="477" y="560" on="1"/>
        <pt x="404" y="512" on="0"/>
        <pt x="326" y="512" on="1"/>
        <pt x="324" y="512" on="0"/>
        <pt x="322" y="511" on="1"/>
        <pt x="193" y="511" on="0"/>
        <pt x="126" y="576" on="1"/>
        <pt x="58" y="642" on="0"/>
        <pt x="58" y="829" on="0"/>
        <pt x="190" y="961" on="0"/>
        <pt x="283" y="961" on="1"/>
        <pt x="283" y="911" on="1"/>
        <pt x="211" y="911" on="0"/>
        <pt x="108" y="808" on="0"/>
        <pt x="108" y="736" on="1"/>
        <pt x="108" y="662" on="0"/>
        <pt x="163" y="611" on="1"/>
        <pt x="217" y="561" on="0"/>
        <pt x="297" y="561" on="1"/>
        <pt x="299" y="561" on="0"/>
        <pt x="300" y="561" on="1"/>
        <pt x="442" y="562" on="0"/>
        <pt x="502" y="666" on="1"/>
        <pt x="526" y="706" on="0"/>
        <pt x="526" y="823" on="0"/>
        <pt x="479" y="902" on="0"/>
        <pt x="444" y="936" on="1"/>
        <pt x="408" y="970" on="0"/>
        <pt x="368" y="1002" on="1"/>
        <pt x="210" y="1128" on="0"/>
        <pt x="211" y="1291" on="1"/>
        <pt x="211" y="1392" on="0"/>
        <pt x="378" y="1566" on="0"/>
        <pt x="534" y="1567" on="1"/>
        <pt x="535" y="1567" on="1"/>
        <pt x="689" y="1567" on="0"/>
        <pt x="820" y="1396" on="1"/>
        <pt x="860" y="1344" on="0"/>
        <pt x="890" y="1280" on="1"/>
        <pt x="990" y="1407" on="0"/>
        <pt x="1053" y="1461" on="1"/>
        <pt x="1177" y="1567" on="0"/>
        <pt x="1273" y="1567" on="1"/>
        <pt x="1432" y="1567" on="0"/>
        <pt x="1492" y="1384" on="1"/>
        <pt x="1562" y="1448" on="1"/>
        <pt x="1690" y="1567" on="0"/>
        <pt x="1889" y="1567" on="0"/>
        <pt x="1910" y="1471" on="1"/>
        <pt x="1916" y="1444" on="0"/>
        <pt x="1920" y="1414" on="1"/>
        <pt x="1932" y="1326" on="0"/>
        <pt x="1967" y="1268" on="1"/>
        <pt x="2020" y="1180" on="0"/>
        <pt x="2107" y="1180" on="1"/>
        <pt x="2142" y="1209" on="0"/>
        <pt x="2189" y="1268" on="0"/>
        <pt x="2189" y="1306" on="1"/>
        <pt x="2239" y="1306" on="1"/>
        <pt x="2238" y="1214" on="0"/>
        <pt x="2126" y="1131" on="1"/>
        <pt x="2059" y="1081" on="1"/>
        <pt x="1884" y="954" on="0"/>
        <pt x="1822" y="710" on="1"/>
        <pt x="1800" y="622" on="0"/>
        <pt x="1800" y="505" on="1"/>
        <pt x="1800" y="280" on="0"/>
        <pt x="1992" y="50" on="0"/>
        <pt x="2116" y="50" on="1"/>
        <pt x="2116" y="0" on="1"/>
        <pt x="1975" y="0" on="0"/>
        <pt x="1872" y="118" on="1"/>
        <pt x="1750" y="259" on="0"/>
        <pt x="1750" y="528" on="1"/>
        <pt x="1750" y="917" on="0"/>
        <pt x="2046" y="1134" on="1"/>
        <pt x="1967" y="1152" on="0"/>
        <pt x="1916" y="1250" on="1"/>
        <pt x="1881" y="1318" on="0"/>
        <pt x="1874" y="1374" on="1"/>
        <pt x="1863" y="1466" on="0"/>
        <pt x="1834" y="1517" on="0"/>
        <pt x="1792" y="1517" on="1"/>
        <pt x="1750" y="1517" on="0"/>
        <pt x="1716" y="1500" on="1"/>
        <pt x="1657" y="1471" on="0"/>
        <pt x="1578" y="1396" on="1"/>
        <pt x="1508" y="1331" on="1"/>
        <pt x="1538" y="1190" on="0"/>
        <pt x="1538" y="1034" on="1"/>
        <pt x="1538" y="441" on="0"/>
        <pt x="1177" y="-17" on="1"/>
        <pt x="1135" y="0" on="1"/>
        <pt x="1120" y="156" on="0"/>
        <pt x="1007" y="156" on="1"/>
        <pt x="889" y="156" on="0"/>
        <pt x="766" y="-8" on="1"/>
        <pt x="726" y="22" on="1"/>
        <pt x="842" y="175" on="0"/>
        <pt x="947" y="199" on="1"/>
        <pt x="978" y="206" on="0"/>
        <pt x="1015" y="206" on="1"/>
        <pt x="1091" y="206" on="0"/>
        <pt x="1167" y="118" on="0"/>
        <pt x="1172" y="55" on="1"/>
        <pt x="1328" y="268" on="0"/>
        <pt x="1488" y="773" on="0"/>
        <pt x="1488" y="945" on="1"/>
        <pt x="1488" y="1258" on="0"/>
        <pt x="1435" y="1388" on="1"/>
        <pt x="1382" y="1517" on="0"/>
        <pt x="1267" y="1517" on="1"/>
        <pt x="1266" y="1516" on="1"/>
        <pt x="1150" y="1516" on="0"/>
        <pt x="994" y="1328" on="1"/>
        <pt x="912" y="1228" on="1"/>
        <pt x="954" y="1110" on="0"/>
        <pt x="954" y="992" on="1"/>
        <pt x="954" y="763" on="0"/>
        <pt x="774" y="296" on="0"/>
        <pt x="548" y="-16" on="1"/>
        <pt x="507" y="0" on="1"/>
        <pt x="487" y="156" on="0"/>
        <pt x="264" y="156" on="0"/>
        <pt x="135" y="-16" on="1"/>
      </contour>
    </TTGlyph>
    <TTGlyph name="N" xMin="56" yMin="-23" xMax="1750" yMax="1568">
      <contour>
        <pt x="98" y="7" on="1"/>
        <pt x="249" y="206" on="0"/>
        <pt x="515" y="206" on="0"/>
        <pt x="551" y="74" on="1"/>
        <pt x="833" y="464" on="0"/>
        <pt x="886" y="776" on="1"/>
        <pt x="903" y="876" on="0"/>
        <pt x="903" y="1096" on="0"/>
        <pt x="837" y="1295" on="0"/>
        <pt x="729" y="1438" on="0"/>
        <pt x="593" y="1517" on="0"/>
        <pt x="525" y="1517" on="1"/>
        <pt x="400" y="1517" on="0"/>
        <pt x="259" y="1376" on="0"/>
        <pt x="259" y="1300" on="1"/>
        <pt x="258" y="1223" on="0"/>
        <pt x="282" y="1176" on="1"/>
        <pt x="320" y="1099" on="0"/>
        <pt x="416" y="1026" on="1"/>
        <pt x="456" y="994" on="0"/>
        <pt x="492" y="958" on="1"/>
        <pt x="574" y="872" on="0"/>
        <pt x="574" y="624" on="0"/>
        <pt x="475" y="560" on="1"/>
        <pt x="402" y="512" on="0"/>
        <pt x="324" y="512" on="1"/>
        <pt x="322" y="512" on="0"/>
        <pt x="320" y="511" on="1"/>
        <pt x="191" y="511" on="0"/>
        <pt x="124" y="576" on="1"/>
        <pt x="56" y="642" on="0"/>
        <pt x="56" y="829" on="0"/>
        <pt x="188" y="961" on="0"/>
        <pt x="281" y="961" on="1"/>
        <pt x="281" y="911" on="1"/>
        <pt x="209" y="911" on="0"/>
        <pt x="106" y="808" on="0"/>
        <pt x="106" y="736" on="1"/>
        <pt x="106" y="662" on="0"/>
        <pt x="161" y="611" on="1"/>
        <pt x="215" y="561" on="0"/>
        <pt x="295" y="561" on="1"/>
        <pt x="297" y="561" on="0"/>
        <pt x="298" y="561" on="1"/>
        <pt x="440" y="562" on="0"/>
        <pt x="500" y="666" on="1"/>
        <pt x="524" y="706" on="0"/>
        <pt x="524" y="823" on="0"/>
        <pt x="477" y="902" on="0"/>
        <pt x="442" y="936" on="1"/>
        <pt x="406" y="970" on="0"/>
        <pt x="366" y="1002" on="1"/>
        <pt x="208" y="1128" on="0"/>
        <pt x="209" y="1291" on="1"/>
        <pt x="209" y="1392" on="0"/>
        <pt x="376" y="1566" on="0"/>
        <pt x="695" y="1566" on="0"/>
        <pt x="825" y="1390" on="1"/>
        <pt x="866" y="1334" on="0"/>
        <pt x="897" y="1267" on="1"/>
        <pt x="1267" y="454" on="1"/>
        <pt x="1261" y="517" on="0"/>
        <pt x="1261" y="605" on="1"/>
        <pt x="1261" y="790" on="0"/>
        <pt x="1391" y="1100" on="0"/>
        <pt x="1530" y="1256" on="1"/>
        <pt x="1700" y="1448" on="0"/>
        <pt x="1700" y="1568" on="1"/>
        <pt x="1750" y="1568" on="1"/>
        <pt x="1750" y="1489" on="0"/>
        <pt x="1710" y="1415" on="1"/>
        <pt x="1671" y="1340" on="0"/>
        <pt x="1584" y="1244" on="1"/>
        <pt x="1425" y="1067" on="0"/>
        <pt x="1368" y="927" on="1"/>
        <pt x="1311" y="786" on="0"/>
        <pt x="1311" y="605" on="1"/>
        <pt x="1311" y="303" on="0"/>
        <pt x="1416" y="162" on="1"/>
        <pt x="1500" y="50" on="0"/>
        <pt x="1627" y="50" on="1"/>
        <pt x="1627" y="0" on="1"/>
        <pt x="1479" y="0" on="0"/>
        <pt x="1380" y="124" on="1"/>
        <pt x="1344" y="170" on="0"/>
        <pt x="1317" y="238" on="1"/>
        <pt x="950" y="1037" on="1"/>
        <pt x="953" y="1007" on="0"/>
        <pt x="953" y="940" on="1"/>
        <pt x="953" y="760" on="0"/>
        <pt x="774" y="296" on="0"/>
        <pt x="547" y="-16" on="1"/>
        <pt x="506" y="0" on="1"/>
        <pt x="486" y="156" on="0"/>
        <pt x="373" y="156" on="1"/>
        <pt x="272" y="156" on="0"/>
        <pt x="138" y="-23" on="1"/>
      </contour>
    </TTGlyph>
    <TTGlyph name="Ntilde" xMin="56" yMin="-23" xMax="1750" yMax="1862">
      <contour>
        <pt x="98" y="7" on="1"/>
        <pt x="249" y="206" on="0"/>
        <pt x="515" y="206" on="0"/>
        <pt x="551" y="74" on="1"/>
        <pt x="833" y="464" on="0"/>
        <pt x="886" y="776" on="1"/>
        <pt x="903" y="876" on="0"/>
        <pt x="903" y="1096" on="0"/>
        <pt x="837" y="1295" on="0"/>
        <pt x="729" y="1438" on="0"/>
        <pt x="593" y="1517" on="0"/>
        <pt x="525" y="1517" on="1"/>
        <pt x="400" y="1517" on="0"/>
        <pt x="259" y="1376" on="0"/>
        <pt x="259" y="1300" on="1"/>
        <pt x="258" y="1223" on="0"/>
        <pt x="282" y="1176" on="1"/>
        <pt x="320" y="1099" on="0"/>
        <pt x="416" y="1026" on="1"/>
        <pt x="456" y="994" on="0"/>
        <pt x="492" y="958" on="1"/>
        <pt x="574" y="872" on="0"/>
        <pt x="574" y="624" on="0"/>
        <pt x="475" y="560" on="1"/>
        <pt x="402" y="512" on="0"/>
        <pt x="324" y="512" on="1"/>
        <pt x="322" y="512" on="0"/>
        <pt x="320" y="511" on="1"/>
        <pt x="191" y="511" on="0"/>
        <pt x="124" y="576" on="1"/>
        <pt x="56" y="642" on="0"/>
        <pt x="56" y="829" on="0"/>
        <pt x="188" y="961" on="0"/>
        <pt x="281" y="961" on="1"/>
        <pt x="281" y="911" on="1"/>
        <pt x="209" y="911" on="0"/>
        <pt x="106" y="808" on="0"/>
        <pt x="106" y="736" on="1"/>
        <pt x="106" y="662" on="0"/>
        <pt x="161" y="611" on="1"/>
        <pt x="215" y="561" on="0"/>
        <pt x="295" y="561" on="1"/>
        <pt x="297" y="561" on="0"/>
        <pt x="298" y="561" on="1"/>
        <pt x="440" y="562" on="0"/>
        <pt x="500" y="666" on="1"/>
        <pt x="524" y="706" on="0"/>
        <pt x="524" y="823" on="0"/>
        <pt x="477" y="902" on="0"/>
        <pt x="442" y="936" on="1"/>
        <pt x="406" y="970" on="0"/>
        <pt x="366" y="1002" on="1"/>
        <pt x="208" y="1128" on="0"/>
        <pt x="209" y="1291" on="1"/>
        <pt x="209" y="1392" on="0"/>
        <pt x="376" y="1566" on="0"/>
        <pt x="695" y="1566" on="0"/>
        <pt x="825" y="1390" on="1"/>
        <pt x="866" y="1334" on="0"/>
        <pt x="897" y="1267" on="1"/>
        <pt x="1267" y="454" on="1"/>
        <pt x="1261" y="517" on="0"/>
        <pt x="1261" y="605" on="1"/>
        <pt x="1261" y="790" on="0"/>
        <pt x="1391" y="1100" on="0"/>
        <pt x="1530" y="1256" on="1"/>
        <pt x="1700" y="1448" on="0"/>
        <pt x="1700" y="1568" on="1"/>
        <pt x="1750" y="1568" on="1"/>
        <pt x="1750" y="1489" on="0"/>
        <pt x="1710" y="1415" on="1"/>
        <pt x="1671" y="1340" on="0"/>
        <pt x="1584" y="1244" on="1"/>
        <pt x="1425" y="1067" on="0"/>
        <pt x="1368" y="927" on="1"/>
        <pt x="1311" y="786" on="0"/>
        <pt x="1311" y="605" on="1"/>
        <pt x="1311" y="303" on="0"/>
        <pt x="1416" y="162" on="1"/>
        <pt x="1500" y="50" on="0"/>
        <pt x="1627" y="50" on="1"/>
        <pt x="1627" y="0" on="1"/>
        <pt x="1479" y="0" on="0"/>
        <pt x="1380" y="124" on="1"/>
        <pt x="1344" y="170" on="0"/>
        <pt x="1317" y="238" on="1"/>
        <pt x="950" y="1037" on="1"/>
        <pt x="953" y="1007" on="0"/>
        <pt x="953" y="940" on="1"/>
        <pt x="953" y="760" on="0"/>
        <pt x="774" y="296" on="0"/>
        <pt x="547" y="-16" on="1"/>
        <pt x="506" y="0" on="1"/>
        <pt x="486" y="156" on="0"/>
        <pt x="373" y="156" on="1"/>
        <pt x="272" y="156" on="0"/>
        <pt x="138" y="-23" on="1"/>
      </contour>
      <contour>
        <pt x="1610" y="1833" on="1"/>
        <pt x="1554" y="1727" on="0"/>
        <pt x="1457" y="1682" on="1"/>
        <pt x="1426" y="1668" on="0"/>
        <pt x="1325" y="1668" on="0"/>
        <pt x="1226" y="1749" on="1"/>
        <pt x="1197" y="1773" on="0"/>
        <pt x="1139" y="1811" on="0"/>
        <pt x="1054" y="1811" on="0"/>
        <pt x="960" y="1737" on="0"/>
        <pt x="930" y="1680" on="1"/>
        <pt x="886" y="1704" on="1"/>
        <pt x="945" y="1816" on="0"/>
        <pt x="1041" y="1850" on="1"/>
        <pt x="1074" y="1862" on="0"/>
        <pt x="1105" y="1862" on="1"/>
        <pt x="1148" y="1862" on="0"/>
        <pt x="1186" y="1838" on="1"/>
        <pt x="1222" y="1815" on="0"/>
        <pt x="1290" y="1761" on="0"/>
        <pt x="1324" y="1740" on="1"/>
        <pt x="1360" y="1718" on="0"/>
        <pt x="1390" y="1718" on="1"/>
        <pt x="1442" y="1718" on="0"/>
        <pt x="1537" y="1803" on="0"/>
        <pt x="1566" y="1857" on="1"/>
      </contour>
    </TTGlyph>
    <TTGlyph name="O" xMin="28" yMin="0" xMax="1579" yMax="1568">
      <contour>
        <pt x="215" y="1206" on="1"/>
        <pt x="215" y="1568" on="0"/>
        <pt x="789" y="1568" on="1"/>
        <pt x="1004" y="1568" on="0"/>
        <pt x="1187" y="1462" on="1"/>
        <pt x="1462" y="1302" on="0"/>
        <pt x="1550" y="995" on="1"/>
        <pt x="1578" y="895" on="0"/>
        <pt x="1579" y="786" on="1"/>
        <pt x="1578" y="462" on="0"/>
        <pt x="1348" y="230" on="1"/>
        <pt x="1204" y="84" on="0"/>
        <pt x="1002" y="28" on="1"/>
        <pt x="902" y="0" on="0"/>
        <pt x="790" y="0" on="1"/>
        <pt x="570" y="0" on="0"/>
        <pt x="197" y="229" on="0"/>
        <pt x="98" y="416" on="1"/>
        <pt x="142" y="440" on="1"/>
        <pt x="236" y="263" on="0"/>
        <pt x="586" y="50" on="0"/>
        <pt x="991" y="50" on="0"/>
        <pt x="1329" y="244" on="0"/>
        <pt x="1529" y="585" on="0"/>
        <pt x="1529" y="786" on="1"/>
        <pt x="1530" y="986" on="0"/>
        <pt x="1330" y="1320" on="0"/>
        <pt x="990" y="1518" on="0"/>
        <pt x="789" y="1518" on="1"/>
        <pt x="265" y="1518" on="0"/>
        <pt x="265" y="1208" on="1"/>
        <pt x="265" y="1086" on="0"/>
        <pt x="459" y="854" on="0"/>
        <pt x="459" y="706" on="1"/>
        <pt x="460" y="616" on="0"/>
        <pt x="332" y="491" on="0"/>
        <pt x="243" y="491" on="1"/>
        <pt x="154" y="491" on="0"/>
        <pt x="28" y="617" on="0"/>
        <pt x="28" y="706" on="1"/>
        <pt x="78" y="706" on="1"/>
        <pt x="78" y="638" on="0"/>
        <pt x="175" y="541" on="0"/>
        <pt x="243" y="541" on="1"/>
        <pt x="312" y="541" on="0"/>
        <pt x="409" y="638" on="0"/>
        <pt x="409" y="702" on="1"/>
        <pt x="408" y="767" on="0"/>
        <pt x="394" y="811" on="1"/>
        <pt x="370" y="883" on="0"/>
        <pt x="288" y="987" on="0"/>
        <pt x="266" y="1022" on="1"/>
        <pt x="216" y="1104" on="0"/>
      </contour>
    </TTGlyph>
    <TTGlyph name="OE" xMin="27" yMin="-1" xMax="2696" yMax="1568">
      <contour>
        <pt x="1880" y="684" on="1"/>
        <pt x="1840" y="628" on="0"/>
        <pt x="1840" y="570" on="1"/>
        <pt x="1840" y="468" on="0"/>
        <pt x="1955" y="360" on="0"/>
        <pt x="2152" y="360" on="0"/>
        <pt x="2268" y="500" on="0"/>
        <pt x="2269" y="577" on="1"/>
        <pt x="2269" y="650" on="0"/>
        <pt x="2246" y="694" on="1"/>
        <pt x="2223" y="740" on="0"/>
        <pt x="2180" y="782" on="1"/>
        <pt x="2136" y="824" on="0"/>
        <pt x="2056" y="870" on="1"/>
        <pt x="1907" y="954" on="0"/>
        <pt x="1865" y="996" on="1"/>
        <pt x="1796" y="1063" on="0"/>
        <pt x="1796" y="1220" on="0"/>
        <pt x="1836" y="1272" on="1"/>
        <pt x="1858" y="1301" on="1"/>
        <pt x="1891" y="1341" on="0"/>
        <pt x="1896" y="1368" on="1"/>
        <pt x="1902" y="1394" on="0"/>
        <pt x="1902" y="1416" on="1"/>
        <pt x="1902" y="1458" on="0"/>
        <pt x="1868" y="1488" on="1"/>
        <pt x="1833" y="1516" on="0"/>
        <pt x="1716" y="1516" on="0"/>
        <pt x="1592" y="1426" on="0"/>
        <pt x="1542" y="1334" on="1"/>
        <pt x="1432" y="1130" on="0"/>
        <pt x="1432" y="420" on="0"/>
        <pt x="1619" y="223" on="1"/>
        <pt x="1784" y="49" on="0"/>
        <pt x="2249" y="49" on="0"/>
        <pt x="2416" y="196" on="1"/>
        <pt x="2546" y="310" on="0"/>
        <pt x="2619" y="500" on="1"/>
        <pt x="2665" y="482" on="1"/>
        <pt x="2542" y="159" on="0"/>
        <pt x="2260" y="43" on="1"/>
        <pt x="2154" y="-1" on="0"/>
        <pt x="2044" y="-1" on="1"/>
        <pt x="1846" y="-1" on="0"/>
        <pt x="1542" y="189" on="0"/>
        <pt x="1460" y="372" on="1"/>
        <pt x="1356" y="203" on="0"/>
        <pt x="1002" y="0" on="0"/>
        <pt x="568" y="0" on="0"/>
        <pt x="195" y="229" on="0"/>
        <pt x="97" y="416" on="1"/>
        <pt x="141" y="440" on="1"/>
        <pt x="235" y="263" on="0"/>
        <pt x="585" y="50" on="0"/>
        <pt x="996" y="50" on="0"/>
        <pt x="1342" y="257" on="0"/>
        <pt x="1437" y="431" on="1"/>
        <pt x="1382" y="585" on="0"/>
        <pt x="1382" y="985" on="0"/>
        <pt x="1425" y="1159" on="1"/>
        <pt x="1329" y="1322" on="0"/>
        <pt x="986" y="1518" on="0"/>
        <pt x="788" y="1518" on="1"/>
        <pt x="264" y="1518" on="0"/>
        <pt x="264" y="1208" on="1"/>
        <pt x="264" y="1086" on="0"/>
        <pt x="458" y="854" on="0"/>
        <pt x="458" y="706" on="1"/>
        <pt x="458" y="616" on="0"/>
        <pt x="330" y="491" on="0"/>
        <pt x="242" y="491" on="1"/>
        <pt x="153" y="491" on="0"/>
        <pt x="27" y="617" on="0"/>
        <pt x="27" y="706" on="1"/>
        <pt x="77" y="706" on="1"/>
        <pt x="77" y="638" on="0"/>
        <pt x="174" y="541" on="0"/>
        <pt x="242" y="541" on="1"/>
        <pt x="311" y="541" on="0"/>
        <pt x="408" y="638" on="0"/>
        <pt x="408" y="767" on="0"/>
        <pt x="379" y="855" on="0"/>
        <pt x="336" y="925" on="0"/>
        <pt x="286" y="987" on="0"/>
        <pt x="264" y="1022" on="1"/>
        <pt x="214" y="1104" on="0"/>
        <pt x="214" y="1206" on="1"/>
        <pt x="214" y="1568" on="0"/>
        <pt x="788" y="1568" on="1"/>
        <pt x="1095" y="1568" on="0"/>
        <pt x="1320" y="1365" on="1"/>
        <pt x="1391" y="1301" on="0"/>
        <pt x="1444" y="1223" on="1"/>
        <pt x="1526" y="1475" on="0"/>
        <pt x="1684" y="1545" on="1"/>
        <pt x="1732" y="1566" on="0"/>
        <pt x="1774" y="1566" on="1"/>
        <pt x="1853" y="1566" on="0"/>
        <pt x="1952" y="1480" on="0"/>
        <pt x="1952" y="1416" on="1"/>
        <pt x="2056" y="1545" on="1"/>
        <pt x="2141" y="1291" on="0"/>
        <pt x="2310" y="1291" on="1"/>
        <pt x="2313" y="1291" on="1"/>
        <pt x="2409" y="1290" on="0"/>
        <pt x="2465" y="1360" on="1"/>
        <pt x="2522" y="1430" on="0"/>
        <pt x="2522" y="1541" on="1"/>
        <pt x="2572" y="1541" on="1"/>
        <pt x="2572" y="1336" on="0"/>
        <pt x="2420" y="1264" on="1"/>
        <pt x="2372" y="1241" on="0"/>
        <pt x="2314" y="1241" on="1"/>
        <pt x="2213" y="1241" on="0"/>
        <pt x="2073" y="1358" on="0"/>
        <pt x="2037" y="1443" on="1"/>
        <pt x="1898" y="1270" on="1"/>
        <pt x="1846" y="1207" on="0"/>
        <pt x="1846" y="1110" on="0"/>
        <pt x="1862" y="1080" on="1"/>
        <pt x="1893" y="1024" on="0"/>
        <pt x="1968" y="979" on="1"/>
        <pt x="2041" y="937" on="1"/>
        <pt x="2163" y="869" on="0"/>
        <pt x="2220" y="817" on="1"/>
        <pt x="2254" y="918" on="0"/>
        <pt x="2285" y="959" on="1"/>
        <pt x="2346" y="1038" on="0"/>
        <pt x="2425" y="1038" on="1"/>
        <pt x="2484" y="1038" on="0"/>
        <pt x="2565" y="968" on="0"/>
        <pt x="2587" y="968" on="1"/>
        <pt x="2646" y="968" on="0"/>
        <pt x="2646" y="1092" on="1"/>
        <pt x="2696" y="1092" on="1"/>
        <pt x="2696" y="1012" on="0"/>
        <pt x="2681" y="980" on="1"/>
        <pt x="2652" y="918" on="0"/>
        <pt x="2587" y="918" on="1"/>
        <pt x="2550" y="918" on="0"/>
        <pt x="2491" y="966" on="0"/>
        <pt x="2453" y="988" on="0"/>
        <pt x="2422" y="988" on="1"/>
        <pt x="2365" y="988" on="0"/>
        <pt x="2288" y="870" on="0"/>
        <pt x="2259" y="774" on="1"/>
        <pt x="2319" y="694" on="0"/>
        <pt x="2319" y="480" on="0"/>
        <pt x="2175" y="310" on="0"/>
        <pt x="1933" y="310" on="0"/>
        <pt x="1790" y="445" on="0"/>
        <pt x="1790" y="641" on="0"/>
        <pt x="1842" y="713" on="1"/>
      </contour>
    </TTGlyph>
    <TTGlyph name="Oacute" xMin="27" yMin="0" xMax="1578" yMax="1931">
      <contour>
        <pt x="214" y="1206" on="1"/>
        <pt x="214" y="1568" on="0"/>
        <pt x="788" y="1568" on="1"/>
        <pt x="1003" y="1568" on="0"/>
        <pt x="1186" y="1462" on="1"/>
        <pt x="1462" y="1302" on="0"/>
        <pt x="1550" y="995" on="1"/>
        <pt x="1578" y="895" on="0"/>
        <pt x="1578" y="786" on="1"/>
        <pt x="1578" y="462" on="0"/>
        <pt x="1348" y="230" on="1"/>
        <pt x="1202" y="84" on="0"/>
        <pt x="1000" y="28" on="1"/>
        <pt x="900" y="0" on="0"/>
        <pt x="789" y="0" on="1"/>
        <pt x="568" y="0" on="0"/>
        <pt x="195" y="229" on="0"/>
        <pt x="97" y="416" on="1"/>
        <pt x="141" y="440" on="1"/>
        <pt x="235" y="263" on="0"/>
        <pt x="585" y="50" on="0"/>
        <pt x="990" y="50" on="0"/>
        <pt x="1328" y="244" on="0"/>
        <pt x="1528" y="585" on="0"/>
        <pt x="1528" y="786" on="1"/>
        <pt x="1528" y="986" on="0"/>
        <pt x="1328" y="1320" on="0"/>
        <pt x="989" y="1518" on="0"/>
        <pt x="788" y="1518" on="1"/>
        <pt x="264" y="1518" on="0"/>
        <pt x="264" y="1208" on="1"/>
        <pt x="264" y="1086" on="0"/>
        <pt x="458" y="854" on="0"/>
        <pt x="458" y="706" on="1"/>
        <pt x="458" y="616" on="0"/>
        <pt x="330" y="491" on="0"/>
        <pt x="242" y="491" on="1"/>
        <pt x="153" y="491" on="0"/>
        <pt x="27" y="617" on="0"/>
        <pt x="27" y="706" on="1"/>
        <pt x="77" y="706" on="1"/>
        <pt x="77" y="638" on="0"/>
        <pt x="174" y="541" on="0"/>
        <pt x="242" y="541" on="1"/>
        <pt x="311" y="541" on="0"/>
        <pt x="408" y="638" on="0"/>
        <pt x="408" y="767" on="0"/>
        <pt x="379" y="855" on="0"/>
        <pt x="336" y="925" on="0"/>
        <pt x="286" y="987" on="0"/>
        <pt x="264" y="1022" on="1"/>
        <pt x="214" y="1104" on="0"/>
      </contour>
      <contour>
        <pt x="782" y="1684" on="1"/>
        <pt x="755" y="1728" on="1"/>
        <pt x="1033" y="1931" on="1"/>
        <pt x="1076" y="1872" on="1"/>
      </contour>
    </TTGlyph>
    <TTGlyph name="Ocircumflex" xMin="27" yMin="0" xMax="1578" yMax="1934">
      <contour>
        <pt x="214" y="1206" on="1"/>
        <pt x="214" y="1568" on="0"/>
        <pt x="788" y="1568" on="1"/>
        <pt x="1003" y="1568" on="0"/>
        <pt x="1186" y="1462" on="1"/>
        <pt x="1462" y="1302" on="0"/>
        <pt x="1550" y="995" on="1"/>
        <pt x="1578" y="895" on="0"/>
        <pt x="1578" y="786" on="1"/>
        <pt x="1578" y="462" on="0"/>
        <pt x="1348" y="230" on="1"/>
        <pt x="1202" y="84" on="0"/>
        <pt x="1000" y="28" on="1"/>
        <pt x="900" y="0" on="0"/>
        <pt x="789" y="0" on="1"/>
        <pt x="568" y="0" on="0"/>
        <pt x="195" y="229" on="0"/>
        <pt x="97" y="416" on="1"/>
        <pt x="141" y="440" on="1"/>
        <pt x="235" y="263" on="0"/>
        <pt x="585" y="50" on="0"/>
        <pt x="990" y="50" on="0"/>
        <pt x="1328" y="244" on="0"/>
        <pt x="1528" y="585" on="0"/>
        <pt x="1528" y="786" on="1"/>
        <pt x="1528" y="986" on="0"/>
        <pt x="1328" y="1320" on="0"/>
        <pt x="989" y="1518" on="0"/>
        <pt x="788" y="1518" on="1"/>
        <pt x="264" y="1518" on="0"/>
        <pt x="264" y="1208" on="1"/>
        <pt x="264" y="1086" on="0"/>
        <pt x="458" y="854" on="0"/>
        <pt x="458" y="706" on="1"/>
        <pt x="458" y="616" on="0"/>
        <pt x="330" y="491" on="0"/>
        <pt x="242" y="491" on="1"/>
        <pt x="153" y="491" on="0"/>
        <pt x="27" y="617" on="0"/>
        <pt x="27" y="706" on="1"/>
        <pt x="77" y="706" on="1"/>
        <pt x="77" y="638" on="0"/>
        <pt x="174" y="541" on="0"/>
        <pt x="242" y="541" on="1"/>
        <pt x="311" y="541" on="0"/>
        <pt x="408" y="638" on="0"/>
        <pt x="408" y="767" on="0"/>
        <pt x="379" y="855" on="0"/>
        <pt x="336" y="925" on="0"/>
        <pt x="286" y="987" on="0"/>
        <pt x="264" y="1022" on="1"/>
        <pt x="214" y="1104" on="0"/>
      </contour>
      <contour>
        <pt x="508" y="1726" on="1"/>
        <pt x="774" y="1934" on="1"/>
        <pt x="1106" y="1727" on="1"/>
        <pt x="1080" y="1685" on="1"/>
        <pt x="778" y="1873" on="1"/>
        <pt x="770" y="1866" on="0"/>
        <pt x="754" y="1854" on="1"/>
        <pt x="538" y="1686" on="1"/>
      </contour>
    </TTGlyph>
    <TTGlyph name="Odieresis" xMin="27" yMin="0" xMax="1578" yMax="1876">
      <contour>
        <pt x="214" y="1206" on="1"/>
        <pt x="214" y="1568" on="0"/>
        <pt x="788" y="1568" on="1"/>
        <pt x="1003" y="1568" on="0"/>
        <pt x="1186" y="1462" on="1"/>
        <pt x="1462" y="1302" on="0"/>
        <pt x="1550" y="995" on="1"/>
        <pt x="1578" y="895" on="0"/>
        <pt x="1578" y="786" on="1"/>
        <pt x="1578" y="462" on="0"/>
        <pt x="1348" y="230" on="1"/>
        <pt x="1202" y="84" on="0"/>
        <pt x="1000" y="28" on="1"/>
        <pt x="900" y="0" on="0"/>
        <pt x="789" y="0" on="1"/>
        <pt x="568" y="0" on="0"/>
        <pt x="195" y="229" on="0"/>
        <pt x="97" y="416" on="1"/>
        <pt x="141" y="440" on="1"/>
        <pt x="235" y="263" on="0"/>
        <pt x="585" y="50" on="0"/>
        <pt x="990" y="50" on="0"/>
        <pt x="1328" y="244" on="0"/>
        <pt x="1528" y="585" on="0"/>
        <pt x="1528" y="786" on="1"/>
        <pt x="1528" y="986" on="0"/>
        <pt x="1328" y="1320" on="0"/>
        <pt x="989" y="1518" on="0"/>
        <pt x="788" y="1518" on="1"/>
        <pt x="264" y="1518" on="0"/>
        <pt x="264" y="1208" on="1"/>
        <pt x="264" y="1086" on="0"/>
        <pt x="458" y="854" on="0"/>
        <pt x="458" y="706" on="1"/>
        <pt x="458" y="616" on="0"/>
        <pt x="330" y="491" on="0"/>
        <pt x="242" y="491" on="1"/>
        <pt x="153" y="491" on="0"/>
        <pt x="27" y="617" on="0"/>
        <pt x="27" y="706" on="1"/>
        <pt x="77" y="706" on="1"/>
        <pt x="77" y="638" on="0"/>
        <pt x="174" y="541" on="0"/>
        <pt x="242" y="541" on="1"/>
        <pt x="311" y="541" on="0"/>
        <pt x="408" y="638" on="0"/>
        <pt x="408" y="767" on="0"/>
        <pt x="379" y="855" on="0"/>
        <pt x="336" y="925" on="0"/>
        <pt x="286" y="987" on="0"/>
        <pt x="264" y="1022" on="1"/>
        <pt x="214" y="1104" on="0"/>
      </contour>
      <contour>
        <pt x="991" y="1679" on="1"/>
        <pt x="944" y="1694" on="1"/>
        <pt x="1020" y="1876" on="1"/>
        <pt x="1081" y="1851" on="1"/>
      </contour>
      <contour>
        <pt x="712" y="1679" on="1"/>
        <pt x="665" y="1694" on="1"/>
        <pt x="741" y="1876" on="1"/>
        <pt x="802" y="1851" on="1"/>
      </contour>
    </TTGlyph>
    <TTGlyph name="Ograve" xMin="27" yMin="0" xMax="1578" yMax="1931">
      <contour>
        <pt x="214" y="1206" on="1"/>
        <pt x="214" y="1568" on="0"/>
        <pt x="788" y="1568" on="1"/>
        <pt x="1003" y="1568" on="0"/>
        <pt x="1186" y="1462" on="1"/>
        <pt x="1462" y="1302" on="0"/>
        <pt x="1550" y="995" on="1"/>
        <pt x="1578" y="895" on="0"/>
        <pt x="1578" y="786" on="1"/>
        <pt x="1578" y="462" on="0"/>
        <pt x="1348" y="230" on="1"/>
        <pt x="1202" y="84" on="0"/>
        <pt x="1000" y="28" on="1"/>
        <pt x="900" y="0" on="0"/>
        <pt x="789" y="0" on="1"/>
        <pt x="568" y="0" on="0"/>
        <pt x="195" y="229" on="0"/>
        <pt x="97" y="416" on="1"/>
        <pt x="141" y="440" on="1"/>
        <pt x="235" y="263" on="0"/>
        <pt x="585" y="50" on="0"/>
        <pt x="990" y="50" on="0"/>
        <pt x="1328" y="244" on="0"/>
        <pt x="1528" y="585" on="0"/>
        <pt x="1528" y="786" on="1"/>
        <pt x="1528" y="986" on="0"/>
        <pt x="1328" y="1320" on="0"/>
        <pt x="989" y="1518" on="0"/>
        <pt x="788" y="1518" on="1"/>
        <pt x="264" y="1518" on="0"/>
        <pt x="264" y="1208" on="1"/>
        <pt x="264" y="1086" on="0"/>
        <pt x="458" y="854" on="0"/>
        <pt x="458" y="706" on="1"/>
        <pt x="458" y="616" on="0"/>
        <pt x="330" y="491" on="0"/>
        <pt x="242" y="491" on="1"/>
        <pt x="153" y="491" on="0"/>
        <pt x="27" y="617" on="0"/>
        <pt x="27" y="706" on="1"/>
        <pt x="77" y="706" on="1"/>
        <pt x="77" y="638" on="0"/>
        <pt x="174" y="541" on="0"/>
        <pt x="242" y="541" on="1"/>
        <pt x="311" y="541" on="0"/>
        <pt x="408" y="638" on="0"/>
        <pt x="408" y="767" on="0"/>
        <pt x="379" y="855" on="0"/>
        <pt x="336" y="925" on="0"/>
        <pt x="286" y="987" on="0"/>
        <pt x="264" y="1022" on="1"/>
        <pt x="214" y="1104" on="0"/>
      </contour>
      <contour>
        <pt x="545" y="1872" on="1"/>
        <pt x="588" y="1931" on="1"/>
        <pt x="866" y="1728" on="1"/>
        <pt x="839" y="1684" on="1"/>
      </contour>
    </TTGlyph>
    <TTGlyph name="Oslash" xMin="30" yMin="0" xMax="1581" yMax="1568">
      <contour>
        <pt x="794" y="0" on="1"/>
        <pt x="492" y="0" on="0"/>
        <pt x="269" y="200" on="1"/>
        <pt x="72" y="4" on="1"/>
        <pt x="36" y="40" on="1"/>
        <pt x="232" y="235" on="1"/>
        <pt x="146" y="325" on="0"/>
        <pt x="100" y="416" on="1"/>
        <pt x="144" y="440" on="1"/>
        <pt x="193" y="347" on="0"/>
        <pt x="268" y="271" on="1"/>
        <pt x="1310" y="1307" on="1"/>
        <pt x="1095" y="1518" on="0"/>
        <pt x="791" y="1518" on="1"/>
        <pt x="267" y="1518" on="0"/>
        <pt x="267" y="1208" on="1"/>
        <pt x="267" y="1086" on="0"/>
        <pt x="461" y="854" on="0"/>
        <pt x="461" y="706" on="1"/>
        <pt x="462" y="616" on="0"/>
        <pt x="334" y="491" on="0"/>
        <pt x="245" y="491" on="1"/>
        <pt x="156" y="491" on="0"/>
        <pt x="30" y="617" on="0"/>
        <pt x="30" y="706" on="1"/>
        <pt x="80" y="706" on="1"/>
        <pt x="80" y="638" on="0"/>
        <pt x="177" y="541" on="0"/>
        <pt x="245" y="541" on="1"/>
        <pt x="314" y="541" on="0"/>
        <pt x="411" y="638" on="0"/>
        <pt x="411" y="702" on="1"/>
        <pt x="410" y="767" on="0"/>
        <pt x="396" y="811" on="1"/>
        <pt x="372" y="883" on="0"/>
        <pt x="290" y="987" on="0"/>
        <pt x="268" y="1022" on="1"/>
        <pt x="218" y="1104" on="0"/>
        <pt x="217" y="1206" on="1"/>
        <pt x="217" y="1568" on="0"/>
        <pt x="791" y="1568" on="1"/>
        <pt x="954" y="1568" on="0"/>
        <pt x="1238" y="1448" on="0"/>
        <pt x="1346" y="1343" on="1"/>
        <pt x="1540" y="1536" on="1"/>
        <pt x="1576" y="1500" on="1"/>
        <pt x="1381" y="1306" on="1"/>
        <pt x="1581" y="1086" on="0"/>
        <pt x="1581" y="775" on="1"/>
        <pt x="1581" y="462" on="0"/>
        <pt x="1350" y="230" on="1"/>
        <pt x="1206" y="84" on="0"/>
        <pt x="1004" y="28" on="1"/>
        <pt x="904" y="0" on="0"/>
      </contour>
      <contour>
        <pt x="305" y="235" on="1"/>
        <pt x="513" y="50" on="0"/>
        <pt x="794" y="50" on="1"/>
        <pt x="993" y="50" on="0"/>
        <pt x="1331" y="244" on="0"/>
        <pt x="1531" y="585" on="0"/>
        <pt x="1531" y="786" on="1"/>
        <pt x="1531" y="1065" on="0"/>
        <pt x="1346" y="1271" on="1"/>
      </contour>
    </TTGlyph>
    <TTGlyph name="Otilde" xMin="27" yMin="0" xMax="1578" yMax="1862">
      <contour>
        <pt x="214" y="1206" on="1"/>
        <pt x="214" y="1568" on="0"/>
        <pt x="788" y="1568" on="1"/>
        <pt x="1003" y="1568" on="0"/>
        <pt x="1186" y="1462" on="1"/>
        <pt x="1462" y="1302" on="0"/>
        <pt x="1550" y="995" on="1"/>
        <pt x="1578" y="895" on="0"/>
        <pt x="1578" y="786" on="1"/>
        <pt x="1578" y="462" on="0"/>
        <pt x="1348" y="230" on="1"/>
        <pt x="1202" y="84" on="0"/>
        <pt x="1000" y="28" on="1"/>
        <pt x="900" y="0" on="0"/>
        <pt x="789" y="0" on="1"/>
        <pt x="568" y="0" on="0"/>
        <pt x="195" y="229" on="0"/>
        <pt x="97" y="416" on="1"/>
        <pt x="141" y="440" on="1"/>
        <pt x="235" y="263" on="0"/>
        <pt x="585" y="50" on="0"/>
        <pt x="990" y="50" on="0"/>
        <pt x="1328" y="244" on="0"/>
        <pt x="1528" y="585" on="0"/>
        <pt x="1528" y="786" on="1"/>
        <pt x="1528" y="986" on="0"/>
        <pt x="1328" y="1320" on="0"/>
        <pt x="989" y="1518" on="0"/>
        <pt x="788" y="1518" on="1"/>
        <pt x="264" y="1518" on="0"/>
        <pt x="264" y="1208" on="1"/>
        <pt x="264" y="1086" on="0"/>
        <pt x="458" y="854" on="0"/>
        <pt x="458" y="706" on="1"/>
        <pt x="458" y="616" on="0"/>
        <pt x="330" y="491" on="0"/>
        <pt x="242" y="491" on="1"/>
        <pt x="153" y="491" on="0"/>
        <pt x="27" y="617" on="0"/>
        <pt x="27" y="706" on="1"/>
        <pt x="77" y="706" on="1"/>
        <pt x="77" y="638" on="0"/>
        <pt x="174" y="541" on="0"/>
        <pt x="242" y="541" on="1"/>
        <pt x="311" y="541" on="0"/>
        <pt x="408" y="638" on="0"/>
        <pt x="408" y="767" on="0"/>
        <pt x="379" y="855" on="0"/>
        <pt x="336" y="925" on="0"/>
        <pt x="286" y="987" on="0"/>
        <pt x="264" y="1022" on="1"/>
        <pt x="214" y="1104" on="0"/>
      </contour>
      <contour>
        <pt x="1162" y="1833" on="1"/>
        <pt x="1106" y="1727" on="0"/>
        <pt x="1009" y="1682" on="1"/>
        <pt x="978" y="1668" on="0"/>
        <pt x="877" y="1668" on="0"/>
        <pt x="778" y="1749" on="1"/>
        <pt x="749" y="1773" on="0"/>
        <pt x="691" y="1811" on="0"/>
        <pt x="606" y="1811" on="0"/>
        <pt x="512" y="1737" on="0"/>
        <pt x="482" y="1680" on="1"/>
        <pt x="438" y="1704" on="1"/>
        <pt x="497" y="1816" on="0"/>
        <pt x="593" y="1850" on="1"/>
        <pt x="626" y="1862" on="0"/>
        <pt x="657" y="1862" on="1"/>
        <pt x="700" y="1862" on="0"/>
        <pt x="738" y="1838" on="1"/>
        <pt x="774" y="1815" on="0"/>
        <pt x="842" y="1761" on="0"/>
        <pt x="876" y="1740" on="1"/>
        <pt x="912" y="1718" on="0"/>
        <pt x="942" y="1718" on="1"/>
        <pt x="994" y="1718" on="0"/>
        <pt x="1089" y="1803" on="0"/>
        <pt x="1118" y="1857" on="1"/>
      </contour>
    </TTGlyph>
    <TTGlyph name="P" xMin="34" yMin="-352" xMax="1582" yMax="1569">
      <contour>
        <pt x="471" y="133" on="1"/>
        <pt x="674" y="345" on="0"/>
        <pt x="889" y="363" on="1"/>
        <pt x="889" y="1099" on="1"/>
        <pt x="888" y="1288" on="0"/>
        <pt x="650" y="1516" on="0"/>
        <pt x="378" y="1516" on="0"/>
        <pt x="237" y="1375" on="0"/>
        <pt x="237" y="1222" on="0"/>
        <pt x="284" y="1128" on="0"/>
        <pt x="354" y="1056" on="0"/>
        <pt x="435" y="994" on="0"/>
        <pt x="470" y="958" on="1"/>
        <pt x="552" y="872" on="0"/>
        <pt x="552" y="622" on="0"/>
        <pt x="453" y="558" on="1"/>
        <pt x="380" y="510" on="0"/>
        <pt x="302" y="510" on="1"/>
        <pt x="171" y="510" on="0"/>
        <pt x="34" y="641" on="0"/>
        <pt x="34" y="828" on="0"/>
        <pt x="166" y="960" on="0"/>
        <pt x="259" y="960" on="1"/>
        <pt x="259" y="910" on="1"/>
        <pt x="187" y="910" on="0"/>
        <pt x="84" y="807" on="0"/>
        <pt x="84" y="735" on="1"/>
        <pt x="84" y="662" on="0"/>
        <pt x="194" y="560" on="0"/>
        <pt x="276" y="560" on="1"/>
        <pt x="418" y="560" on="0"/>
        <pt x="478" y="664" on="1"/>
        <pt x="502" y="704" on="0"/>
        <pt x="502" y="822" on="0"/>
        <pt x="455" y="901" on="0"/>
        <pt x="420" y="934" on="1"/>
        <pt x="384" y="968" on="0"/>
        <pt x="344" y="1000" on="1"/>
        <pt x="186" y="1126" on="0"/>
        <pt x="187" y="1290" on="1"/>
        <pt x="187" y="1392" on="0"/>
        <pt x="354" y="1566" on="0"/>
        <pt x="642" y="1566" on="0"/>
        <pt x="883" y="1384" on="0"/>
        <pt x="923" y="1229" on="1"/>
        <pt x="1355" y="1569" on="1"/>
        <pt x="1451" y="1378" on="1"/>
        <pt x="1538" y="1200" on="0"/>
        <pt x="1582" y="957" on="0"/>
        <pt x="1582" y="859" on="1"/>
        <pt x="1582" y="627" on="0"/>
        <pt x="1480" y="484" on="1"/>
        <pt x="1417" y="397" on="1"/>
        <pt x="1329" y="277" on="0"/>
        <pt x="1284" y="171" on="1"/>
        <pt x="1196" y="241" on="0"/>
        <pt x="1044" y="310" on="0"/>
        <pt x="939" y="314" on="1"/>
        <pt x="939" y="85" on="1"/>
        <pt x="938" y="-254" on="0"/>
        <pt x="736" y="-333" on="1"/>
        <pt x="688" y="-352" on="0"/>
        <pt x="641" y="-352" on="1"/>
        <pt x="538" y="-352" on="0"/>
        <pt x="476" y="-314" on="1"/>
        <pt x="389" y="-262" on="0"/>
        <pt x="389" y="-156" on="1"/>
        <pt x="389" y="-101" on="0"/>
        <pt x="482" y="-12" on="0"/>
        <pt x="547" y="-12" on="1"/>
        <pt x="547" y="-62" on="1"/>
        <pt x="503" y="-62" on="0"/>
        <pt x="471" y="-90" on="1"/>
        <pt x="439" y="-120" on="0"/>
        <pt x="439" y="-160" on="1"/>
        <pt x="439" y="-236" on="0"/>
        <pt x="508" y="-274" on="1"/>
        <pt x="558" y="-302" on="0"/>
        <pt x="705" y="-302" on="0"/>
        <pt x="757" y="-265" on="1"/>
        <pt x="889" y="-171" on="0"/>
        <pt x="889" y="85" on="1"/>
        <pt x="889" y="314" on="1"/>
        <pt x="695" y="296" on="0"/>
        <pt x="507" y="99" on="1"/>
      </contour>
      <contour>
        <pt x="939" y="364" on="1"/>
        <pt x="1117" y="361" on="0"/>
        <pt x="1266" y="249" on="1"/>
        <pt x="1295" y="305" on="0"/>
        <pt x="1326" y="351" on="1"/>
        <pt x="1387" y="440" on="1"/>
        <pt x="1458" y="542" on="0"/>
        <pt x="1532" y="721" on="0"/>
        <pt x="1532" y="952" on="0"/>
        <pt x="1518" y="1034" on="1"/>
        <pt x="1491" y="1187" on="0"/>
        <pt x="1416" y="1337" on="1"/>
        <pt x="1339" y="1493" on="1"/>
        <pt x="934" y="1174" on="1"/>
        <pt x="939" y="1129" on="0"/>
        <pt x="939" y="1099" on="1"/>
      </contour>
    </TTGlyph>
    <TTGlyph name="Q" xMin="28" yMin="-301" xMax="2098" yMax="1568">
      <contour>
        <pt x="1275" y="231" on="1"/>
        <pt x="1529" y="454" on="0"/>
        <pt x="1529" y="795" on="1"/>
        <pt x="1530" y="986" on="0"/>
        <pt x="1428" y="1156" on="1"/>
        <pt x="1331" y="1319" on="0"/>
        <pt x="990" y="1518" on="0"/>
        <pt x="789" y="1518" on="1"/>
        <pt x="265" y="1518" on="0"/>
        <pt x="265" y="1208" on="1"/>
        <pt x="265" y="1086" on="0"/>
        <pt x="459" y="854" on="0"/>
        <pt x="459" y="706" on="1"/>
        <pt x="460" y="616" on="0"/>
        <pt x="332" y="491" on="0"/>
        <pt x="243" y="491" on="1"/>
        <pt x="154" y="491" on="0"/>
        <pt x="28" y="617" on="0"/>
        <pt x="28" y="706" on="1"/>
        <pt x="78" y="706" on="1"/>
        <pt x="78" y="638" on="0"/>
        <pt x="175" y="541" on="0"/>
        <pt x="243" y="541" on="1"/>
        <pt x="312" y="541" on="0"/>
        <pt x="409" y="638" on="0"/>
        <pt x="409" y="702" on="1"/>
        <pt x="408" y="767" on="0"/>
        <pt x="394" y="811" on="1"/>
        <pt x="370" y="883" on="0"/>
        <pt x="288" y="987" on="0"/>
        <pt x="266" y="1022" on="1"/>
        <pt x="216" y="1104" on="0"/>
        <pt x="215" y="1206" on="1"/>
        <pt x="215" y="1568" on="0"/>
        <pt x="789" y="1568" on="1"/>
        <pt x="1004" y="1568" on="0"/>
        <pt x="1187" y="1462" on="1"/>
        <pt x="1462" y="1302" on="0"/>
        <pt x="1550" y="995" on="1"/>
        <pt x="1579" y="890" on="0"/>
        <pt x="1579" y="785" on="1"/>
        <pt x="1579" y="699" on="0"/>
        <pt x="1560" y="613" on="1"/>
        <pt x="1506" y="362" on="0"/>
        <pt x="1307" y="191" on="1"/>
        <pt x="1329" y="162" on="0"/>
        <pt x="1350" y="130" on="1"/>
        <pt x="1470" y="-48" on="1"/>
        <pt x="1612" y="-251" on="0"/>
        <pt x="1780" y="-251" on="1"/>
        <pt x="1782" y="-251" on="0"/>
        <pt x="1784" y="-251" on="1"/>
        <pt x="1913" y="-251" on="0"/>
        <pt x="2004" y="-184" on="1"/>
        <pt x="2035" y="-162" on="0"/>
        <pt x="2058" y="-131" on="1"/>
        <pt x="2098" y="-161" on="1"/>
        <pt x="1994" y="-301" on="0"/>
        <pt x="1780" y="-301" on="1"/>
        <pt x="1592" y="-301" on="0"/>
        <pt x="1434" y="-82" on="1"/>
        <pt x="1390" y="-22" on="0"/>
        <pt x="1360" y="24" on="1"/>
        <pt x="1310" y="100" on="1"/>
        <pt x="1290" y="130" on="0"/>
        <pt x="1267" y="159" on="1"/>
        <pt x="1055" y="0" on="0"/>
        <pt x="570" y="0" on="0"/>
        <pt x="197" y="229" on="0"/>
        <pt x="98" y="416" on="1"/>
        <pt x="142" y="440" on="1"/>
        <pt x="236" y="263" on="0"/>
        <pt x="586" y="50" on="0"/>
        <pt x="1037" y="50" on="0"/>
        <pt x="1236" y="198" on="1"/>
        <pt x="1150" y="295" on="0"/>
        <pt x="1069" y="295" on="1"/>
        <pt x="942" y="295" on="0"/>
        <pt x="861" y="205" on="1"/>
        <pt x="823" y="239" on="1"/>
        <pt x="918" y="345" on="0"/>
        <pt x="1069" y="345" on="1"/>
        <pt x="1177" y="345" on="0"/>
      </contour>
    </TTGlyph>
    <TTGlyph name="R" xMin="56" yMin="-25" xMax="1680" yMax="1567">
      <contour>
        <pt x="892" y="1202" on="1"/>
        <pt x="934" y="1567" on="0"/>
        <pt x="1134" y="1567" on="1"/>
        <pt x="1247" y="1567" on="0"/>
        <pt x="1310" y="1440" on="1"/>
        <pt x="1376" y="1304" on="1"/>
        <pt x="1431" y="1196" on="0"/>
        <pt x="1502" y="1196" on="1"/>
        <pt x="1598" y="1196" on="0"/>
        <pt x="1632" y="1322" on="1"/>
        <pt x="1680" y="1310" on="1"/>
        <pt x="1650" y="1195" on="0"/>
        <pt x="1558" y="1153" on="1"/>
        <pt x="1329" y="1047" on="1"/>
        <pt x="1399" y="1016" on="0"/>
        <pt x="1411" y="934" on="1"/>
        <pt x="1517" y="240" on="1"/>
        <pt x="1540" y="81" on="0"/>
        <pt x="1665" y="21" on="1"/>
        <pt x="1643" y="-25" on="1"/>
        <pt x="1498" y="42" on="0"/>
        <pt x="1469" y="221" on="1"/>
        <pt x="1361" y="926" on="1"/>
        <pt x="1353" y="974" on="0"/>
        <pt x="1304" y="1015" on="0"/>
        <pt x="1258" y="1015" on="0"/>
        <pt x="1245" y="1009" on="1"/>
        <pt x="929" y="863" on="1"/>
        <pt x="922" y="536" on="0"/>
        <pt x="792" y="288" on="1"/>
        <pt x="698" y="110" on="0"/>
        <pt x="540" y="38" on="1"/>
        <pt x="458" y="0" on="0"/>
        <pt x="382" y="0" on="1"/>
        <pt x="261" y="0" on="0"/>
        <pt x="154" y="88" on="0"/>
        <pt x="154" y="158" on="1"/>
        <pt x="154" y="222" on="0"/>
        <pt x="245" y="316" on="0"/>
        <pt x="312" y="317" on="1"/>
        <pt x="312" y="267" on="1"/>
        <pt x="311" y="267" on="0"/>
        <pt x="309" y="267" on="1"/>
        <pt x="265" y="268" on="0"/>
        <pt x="235" y="236" on="1"/>
        <pt x="204" y="204" on="0"/>
        <pt x="204" y="113" on="0"/>
        <pt x="280" y="50" on="0"/>
        <pt x="453" y="50" on="0"/>
        <pt x="529" y="88" on="1"/>
        <pt x="740" y="192" on="0"/>
        <pt x="830" y="518" on="1"/>
        <pt x="880" y="698" on="0"/>
        <pt x="880" y="870" on="1"/>
        <pt x="880" y="1180" on="0"/>
        <pt x="678" y="1517" on="0"/>
        <pt x="524" y="1517" on="1"/>
        <pt x="400" y="1517" on="0"/>
        <pt x="259" y="1376" on="0"/>
        <pt x="259" y="1300" on="1"/>
        <pt x="258" y="1223" on="0"/>
        <pt x="282" y="1176" on="1"/>
        <pt x="320" y="1099" on="0"/>
        <pt x="416" y="1026" on="1"/>
        <pt x="456" y="994" on="0"/>
        <pt x="492" y="958" on="1"/>
        <pt x="574" y="872" on="0"/>
        <pt x="574" y="624" on="0"/>
        <pt x="475" y="560" on="1"/>
        <pt x="402" y="512" on="0"/>
        <pt x="324" y="512" on="1"/>
        <pt x="322" y="512" on="0"/>
        <pt x="320" y="511" on="1"/>
        <pt x="191" y="511" on="0"/>
        <pt x="124" y="576" on="1"/>
        <pt x="56" y="642" on="0"/>
        <pt x="56" y="829" on="0"/>
        <pt x="188" y="961" on="0"/>
        <pt x="281" y="961" on="1"/>
        <pt x="281" y="911" on="1"/>
        <pt x="209" y="911" on="0"/>
        <pt x="106" y="808" on="0"/>
        <pt x="106" y="736" on="1"/>
        <pt x="106" y="662" on="0"/>
        <pt x="161" y="611" on="1"/>
        <pt x="215" y="561" on="0"/>
        <pt x="295" y="561" on="1"/>
        <pt x="297" y="561" on="0"/>
        <pt x="298" y="561" on="1"/>
        <pt x="440" y="562" on="0"/>
        <pt x="500" y="666" on="1"/>
        <pt x="524" y="706" on="0"/>
        <pt x="524" y="823" on="0"/>
        <pt x="477" y="902" on="0"/>
        <pt x="442" y="936" on="1"/>
        <pt x="406" y="970" on="0"/>
        <pt x="366" y="1002" on="1"/>
        <pt x="208" y="1128" on="0"/>
        <pt x="209" y="1291" on="1"/>
        <pt x="209" y="1392" on="0"/>
        <pt x="376" y="1566" on="0"/>
        <pt x="512" y="1566" on="1"/>
        <pt x="513" y="1567" on="1"/>
        <pt x="648" y="1567" on="0"/>
        <pt x="844" y="1373" on="0"/>
      </contour>
      <contour>
        <pt x="1173" y="1517" on="0"/>
        <pt x="1097" y="1517" on="0"/>
        <pt x="1063" y="1491" on="1"/>
        <pt x="930" y="1389" on="0"/>
        <pt x="930" y="919" on="1"/>
        <pt x="1445" y="1156" on="1"/>
        <pt x="1380" y="1180" on="0"/>
        <pt x="1328" y="1286" on="1"/>
        <pt x="1270" y="1408" on="1"/>
        <pt x="1236" y="1475" on="0"/>
      </contour>
    </TTGlyph>
    <TTGlyph name="S" xMin="69" yMin="-30" xMax="1637" yMax="1596">
      <contour>
        <pt x="109" y="484" on="1"/>
        <pt x="448" y="20" on="0"/>
        <pt x="874" y="20" on="1"/>
        <pt x="1195" y="20" on="0"/>
        <pt x="1395" y="186" on="1"/>
        <pt x="1486" y="262" on="0"/>
        <pt x="1587" y="457" on="0"/>
        <pt x="1587" y="555" on="1"/>
        <pt x="1587" y="724" on="0"/>
        <pt x="1434" y="886" on="0"/>
        <pt x="1268" y="886" on="0"/>
        <pt x="1158" y="841" on="0"/>
        <pt x="1109" y="808" on="1"/>
        <pt x="1060" y="776" on="0"/>
        <pt x="1012" y="736" on="1"/>
        <pt x="829" y="586" on="0"/>
        <pt x="611" y="584" on="1"/>
        <pt x="609" y="584" on="1"/>
        <pt x="392" y="584" on="0"/>
        <pt x="96" y="856" on="0"/>
        <pt x="96" y="1118" on="1"/>
        <pt x="96" y="1296" on="0"/>
        <pt x="218" y="1434" on="1"/>
        <pt x="361" y="1596" on="0"/>
        <pt x="623" y="1596" on="1"/>
        <pt x="842" y="1596" on="0"/>
        <pt x="1038" y="1410" on="1"/>
        <pt x="1158" y="1297" on="0"/>
        <pt x="1232" y="1261" on="1"/>
        <pt x="1306" y="1225" on="0"/>
        <pt x="1362" y="1225" on="1"/>
        <pt x="1463" y="1225" on="0"/>
        <pt x="1574" y="1330" on="0"/>
        <pt x="1574" y="1508" on="0"/>
        <pt x="1502" y="1538" on="1"/>
        <pt x="1482" y="1546" on="0"/>
        <pt x="1460" y="1546" on="1"/>
        <pt x="1393" y="1546" on="0"/>
        <pt x="1366" y="1483" on="1"/>
        <pt x="1358" y="1464" on="0"/>
        <pt x="1358" y="1443" on="1"/>
        <pt x="1308" y="1443" on="1"/>
        <pt x="1308" y="1507" on="0"/>
        <pt x="1397" y="1596" on="0"/>
        <pt x="1460" y="1596" on="1"/>
        <pt x="1528" y="1596" on="0"/>
        <pt x="1576" y="1546" on="1"/>
        <pt x="1624" y="1497" on="0"/>
        <pt x="1624" y="1428" on="1"/>
        <pt x="1624" y="1303" on="0"/>
        <pt x="1553" y="1238" on="1"/>
        <pt x="1484" y="1174" on="0"/>
        <pt x="1394" y="1174" on="1"/>
        <pt x="1392" y="1174" on="1"/>
        <pt x="1302" y="1174" on="0"/>
        <pt x="1183" y="1230" on="0"/>
        <pt x="1075" y="1312" on="0"/>
        <pt x="1022" y="1360" on="1"/>
        <pt x="820" y="1546" on="0"/>
        <pt x="634" y="1546" on="1"/>
        <pt x="390" y="1546" on="0"/>
        <pt x="257" y="1400" on="1"/>
        <pt x="146" y="1278" on="0"/>
        <pt x="146" y="1116" on="1"/>
        <pt x="146" y="880" on="0"/>
        <pt x="414" y="636" on="0"/>
        <pt x="822" y="636" on="0"/>
        <pt x="1000" y="786" on="1"/>
        <pt x="1176" y="936" on="0"/>
        <pt x="1324" y="936" on="1"/>
        <pt x="1452" y="936" on="0"/>
        <pt x="1534" y="854" on="1"/>
        <pt x="1636" y="754" on="0"/>
        <pt x="1637" y="566" on="1"/>
        <pt x="1637" y="448" on="0"/>
        <pt x="1529" y="232" on="0"/>
        <pt x="1431" y="150" on="1"/>
        <pt x="1216" y="-30" on="0"/>
        <pt x="894" y="-30" on="1"/>
        <pt x="528" y="-30" on="0"/>
        <pt x="244" y="246" on="1"/>
        <pt x="157" y="331" on="0"/>
        <pt x="69" y="454" on="1"/>
      </contour>
    </TTGlyph>
    <TTGlyph name="T" xMin="23" yMin="0" xMax="1426" yMax="1567">
      <contour>
        <pt x="1268" y="1154" on="1"/>
        <pt x="1212" y="1132" on="0"/>
        <pt x="1124" y="1132" on="1"/>
        <pt x="1120" y="1132" on="1"/>
        <pt x="1028" y="1132" on="0"/>
        <pt x="914" y="1190" on="1"/>
        <pt x="672" y="1002" on="1"/>
        <pt x="678" y="922" on="0"/>
        <pt x="760" y="808" on="1"/>
        <pt x="872" y="654" on="1"/>
        <pt x="992" y="485" on="0"/>
        <pt x="993" y="316" on="1"/>
        <pt x="994" y="184" on="0"/>
        <pt x="900" y="92" on="1"/>
        <pt x="808" y="0" on="0"/>
        <pt x="679" y="0" on="1"/>
        <pt x="678" y="0" on="0"/>
        <pt x="676" y="0" on="1"/>
        <pt x="545" y="0" on="0"/>
        <pt x="360" y="185" on="0"/>
        <pt x="360" y="316" on="1"/>
        <pt x="360" y="400" on="0"/>
        <pt x="437" y="540" on="0"/>
        <pt x="503" y="582" on="1"/>
        <pt x="531" y="540" on="1"/>
        <pt x="476" y="504" on="0"/>
        <pt x="410" y="386" on="0"/>
        <pt x="410" y="324" on="1"/>
        <pt x="410" y="206" on="0"/>
        <pt x="566" y="50" on="0"/>
        <pt x="676" y="50" on="1"/>
        <pt x="784" y="50" on="0"/>
        <pt x="863" y="128" on="1"/>
        <pt x="943" y="206" on="0"/>
        <pt x="943" y="319" on="1"/>
        <pt x="943" y="470" on="0"/>
        <pt x="830" y="628" on="1"/>
        <pt x="712" y="788" on="1"/>
        <pt x="622" y="914" on="0"/>
        <pt x="622" y="1026" on="1"/>
        <pt x="866" y="1217" on="1"/>
        <pt x="834" y="1237" on="0"/>
        <pt x="800" y="1267" on="1"/>
        <pt x="656" y="1396" on="1"/>
        <pt x="519" y="1516" on="0"/>
        <pt x="248" y="1516" on="0"/>
        <pt x="72" y="1322" on="0"/>
        <pt x="72" y="1072" on="0"/>
        <pt x="233" y="920" on="0"/>
        <pt x="362" y="920" on="1"/>
        <pt x="362" y="870" on="1"/>
        <pt x="210" y="870" on="0"/>
        <pt x="23" y="1051" on="0"/>
        <pt x="23" y="1340" on="0"/>
        <pt x="229" y="1566" on="0"/>
        <pt x="516" y="1566" on="0"/>
        <pt x="646" y="1466" on="1"/>
        <pt x="702" y="1424" on="0"/>
        <pt x="806" y="1324" on="0"/>
        <pt x="862" y="1282" on="1"/>
        <pt x="993" y="1183" on="0"/>
        <pt x="1125" y="1183" on="1"/>
        <pt x="1128" y="1183" on="1"/>
        <pt x="1131" y="1183" on="1"/>
        <pt x="1317" y="1183" on="0"/>
        <pt x="1363" y="1308" on="1"/>
        <pt x="1376" y="1344" on="0"/>
        <pt x="1376" y="1378" on="1"/>
        <pt x="1376" y="1440" on="0"/>
        <pt x="1304" y="1516" on="0"/>
        <pt x="1255" y="1517" on="1"/>
        <pt x="1255" y="1567" on="1"/>
        <pt x="1325" y="1567" on="0"/>
        <pt x="1426" y="1466" on="0"/>
        <pt x="1426" y="1381" on="1"/>
        <pt x="1426" y="1214" on="0"/>
      </contour>
    </TTGlyph>
    <TTGlyph name="Thorn" xMin="34" yMin="-358" xMax="1599" yMax="1566">
      <contour>
        <pt x="471" y="133" on="1"/>
        <pt x="674" y="345" on="0"/>
        <pt x="889" y="363" on="1"/>
        <pt x="889" y="1099" on="1"/>
        <pt x="888" y="1288" on="0"/>
        <pt x="650" y="1516" on="0"/>
        <pt x="378" y="1516" on="0"/>
        <pt x="237" y="1375" on="0"/>
        <pt x="237" y="1222" on="0"/>
        <pt x="284" y="1128" on="0"/>
        <pt x="354" y="1056" on="0"/>
        <pt x="435" y="994" on="0"/>
        <pt x="470" y="958" on="1"/>
        <pt x="552" y="872" on="0"/>
        <pt x="552" y="622" on="0"/>
        <pt x="453" y="558" on="1"/>
        <pt x="380" y="510" on="0"/>
        <pt x="302" y="510" on="1"/>
        <pt x="171" y="510" on="0"/>
        <pt x="34" y="641" on="0"/>
        <pt x="34" y="828" on="0"/>
        <pt x="166" y="960" on="0"/>
        <pt x="259" y="960" on="1"/>
        <pt x="259" y="910" on="1"/>
        <pt x="187" y="910" on="0"/>
        <pt x="84" y="807" on="0"/>
        <pt x="84" y="735" on="1"/>
        <pt x="84" y="662" on="0"/>
        <pt x="194" y="560" on="0"/>
        <pt x="276" y="560" on="1"/>
        <pt x="418" y="560" on="0"/>
        <pt x="478" y="664" on="1"/>
        <pt x="502" y="704" on="0"/>
        <pt x="502" y="822" on="0"/>
        <pt x="455" y="901" on="0"/>
        <pt x="420" y="934" on="1"/>
        <pt x="384" y="968" on="0"/>
        <pt x="344" y="1000" on="1"/>
        <pt x="186" y="1126" on="0"/>
        <pt x="187" y="1290" on="1"/>
        <pt x="187" y="1392" on="0"/>
        <pt x="354" y="1566" on="0"/>
        <pt x="670" y="1566" on="0"/>
        <pt x="938" y="1310" on="0"/>
        <pt x="939" y="1099" on="1"/>
        <pt x="939" y="973" on="1"/>
        <pt x="1409" y="1228" on="1"/>
        <pt x="1480" y="1146" on="1"/>
        <pt x="1600" y="1006" on="0"/>
        <pt x="1599" y="865" on="1"/>
        <pt x="1599" y="607" on="1"/>
        <pt x="1599" y="425" on="0"/>
        <pt x="1483" y="332" on="1"/>
        <pt x="1284" y="171" on="1"/>
        <pt x="1196" y="241" on="0"/>
        <pt x="1044" y="310" on="0"/>
        <pt x="939" y="314" on="1"/>
        <pt x="939" y="85" on="1"/>
        <pt x="938" y="-256" on="0"/>
        <pt x="736" y="-338" on="1"/>
        <pt x="688" y="-358" on="0"/>
        <pt x="641" y="-358" on="1"/>
        <pt x="540" y="-358" on="0"/>
        <pt x="476" y="-317" on="1"/>
        <pt x="389" y="-263" on="0"/>
        <pt x="389" y="-156" on="1"/>
        <pt x="389" y="-101" on="0"/>
        <pt x="482" y="-12" on="0"/>
        <pt x="547" y="-12" on="1"/>
        <pt x="547" y="-62" on="1"/>
        <pt x="503" y="-62" on="0"/>
        <pt x="471" y="-90" on="1"/>
        <pt x="439" y="-120" on="0"/>
        <pt x="439" y="-160" on="1"/>
        <pt x="439" y="-234" on="0"/>
        <pt x="560" y="-308" on="0"/>
        <pt x="705" y="-308" on="0"/>
        <pt x="757" y="-271" on="1"/>
        <pt x="889" y="-177" on="0"/>
        <pt x="889" y="85" on="1"/>
        <pt x="889" y="314" on="1"/>
        <pt x="695" y="296" on="0"/>
        <pt x="507" y="99" on="1"/>
      </contour>
      <contour>
        <pt x="939" y="364" on="1"/>
        <pt x="1136" y="357" on="0"/>
        <pt x="1282" y="233" on="1"/>
        <pt x="1451" y="370" on="1"/>
        <pt x="1549" y="450" on="0"/>
        <pt x="1549" y="607" on="1"/>
        <pt x="1549" y="865" on="1"/>
        <pt x="1548" y="980" on="0"/>
        <pt x="1456" y="1100" on="1"/>
        <pt x="1430" y="1134" on="0"/>
        <pt x="1401" y="1168" on="1"/>
        <pt x="939" y="915" on="1"/>
      </contour>
    </TTGlyph>
    <TTGlyph name="U" xMin="113" yMin="-28" xMax="1044" yMax="1567">
      <contour>
        <pt x="1016" y="-25" on="1"/>
        <pt x="900" y="50" on="0"/>
        <pt x="900" y="207" on="1"/>
        <pt x="900" y="401" on="1"/>
        <pt x="353" y="-28" on="1"/>
        <pt x="252" y="84" on="0"/>
        <pt x="216" y="151" on="1"/>
        <pt x="140" y="290" on="0"/>
        <pt x="140" y="579" on="0"/>
        <pt x="246" y="1128" on="0"/>
        <pt x="246" y="1350" on="0"/>
        <pt x="184" y="1470" on="0"/>
        <pt x="113" y="1527" on="1"/>
        <pt x="143" y="1567" on="1"/>
        <pt x="223" y="1505" on="0"/>
        <pt x="296" y="1364" on="0"/>
        <pt x="296" y="1268" on="1"/>
        <pt x="296" y="1142" on="0"/>
        <pt x="190" y="570" on="0"/>
        <pt x="190" y="469" on="1"/>
        <pt x="190" y="313" on="0"/>
        <pt x="246" y="201" on="1"/>
        <pt x="280" y="134" on="0"/>
        <pt x="360" y="41" on="1"/>
        <pt x="375" y="52" on="0"/>
        <pt x="417" y="86" on="1"/>
        <pt x="900" y="465" on="1"/>
        <pt x="900" y="1537" on="1"/>
        <pt x="950" y="1537" on="1"/>
        <pt x="950" y="207" on="1"/>
        <pt x="950" y="106" on="0"/>
        <pt x="1011" y="44" on="1"/>
        <pt x="1028" y="26" on="0"/>
        <pt x="1044" y="17" on="1"/>
      </contour>
    </TTGlyph>
    <TTGlyph name="Uacute" xMin="114" yMin="-28" xMax="1045" yMax="1931">
      <contour>
        <pt x="1017" y="-25" on="1"/>
        <pt x="901" y="50" on="0"/>
        <pt x="901" y="207" on="1"/>
        <pt x="901" y="401" on="1"/>
        <pt x="354" y="-28" on="1"/>
        <pt x="253" y="84" on="0"/>
        <pt x="217" y="151" on="1"/>
        <pt x="141" y="290" on="0"/>
        <pt x="141" y="434" on="1"/>
        <pt x="141" y="580" on="0"/>
        <pt x="194" y="854" on="1"/>
        <pt x="247" y="1126" on="0"/>
        <pt x="247" y="1237" on="1"/>
        <pt x="247" y="1349" on="0"/>
        <pt x="215" y="1410" on="1"/>
        <pt x="184" y="1470" on="0"/>
        <pt x="114" y="1527" on="1"/>
        <pt x="144" y="1567" on="1"/>
        <pt x="224" y="1505" on="0"/>
        <pt x="297" y="1364" on="0"/>
        <pt x="297" y="1268" on="1"/>
        <pt x="297" y="1142" on="0"/>
        <pt x="191" y="570" on="0"/>
        <pt x="191" y="469" on="1"/>
        <pt x="191" y="315" on="0"/>
        <pt x="248" y="201" on="1"/>
        <pt x="282" y="134" on="0"/>
        <pt x="361" y="41" on="1"/>
        <pt x="376" y="52" on="0"/>
        <pt x="418" y="86" on="1"/>
        <pt x="901" y="465" on="1"/>
        <pt x="901" y="1537" on="1"/>
        <pt x="951" y="1537" on="1"/>
        <pt x="951" y="207" on="1"/>
        <pt x="951" y="106" on="0"/>
        <pt x="1012" y="44" on="1"/>
        <pt x="1029" y="26" on="0"/>
        <pt x="1045" y="17" on="1"/>
      </contour>
      <contour>
        <pt x="482" y="1684" on="1"/>
        <pt x="455" y="1728" on="1"/>
        <pt x="733" y="1931" on="1"/>
        <pt x="776" y="1872" on="1"/>
      </contour>
    </TTGlyph>
    <TTGlyph name="Ucircumflex" xMin="114" yMin="-28" xMax="1045" yMax="1934">
      <contour>
        <pt x="1017" y="-25" on="1"/>
        <pt x="901" y="50" on="0"/>
        <pt x="901" y="207" on="1"/>
        <pt x="901" y="401" on="1"/>
        <pt x="354" y="-28" on="1"/>
        <pt x="253" y="84" on="0"/>
        <pt x="217" y="151" on="1"/>
        <pt x="141" y="290" on="0"/>
        <pt x="141" y="434" on="1"/>
        <pt x="141" y="580" on="0"/>
        <pt x="194" y="854" on="1"/>
        <pt x="247" y="1126" on="0"/>
        <pt x="247" y="1237" on="1"/>
        <pt x="247" y="1349" on="0"/>
        <pt x="215" y="1410" on="1"/>
        <pt x="184" y="1470" on="0"/>
        <pt x="114" y="1527" on="1"/>
        <pt x="144" y="1567" on="1"/>
        <pt x="224" y="1505" on="0"/>
        <pt x="297" y="1364" on="0"/>
        <pt x="297" y="1268" on="1"/>
        <pt x="297" y="1142" on="0"/>
        <pt x="191" y="570" on="0"/>
        <pt x="191" y="469" on="1"/>
        <pt x="191" y="315" on="0"/>
        <pt x="248" y="201" on="1"/>
        <pt x="282" y="134" on="0"/>
        <pt x="361" y="41" on="1"/>
        <pt x="376" y="52" on="0"/>
        <pt x="418" y="86" on="1"/>
        <pt x="901" y="465" on="1"/>
        <pt x="901" y="1537" on="1"/>
        <pt x="951" y="1537" on="1"/>
        <pt x="951" y="207" on="1"/>
        <pt x="951" y="106" on="0"/>
        <pt x="1012" y="44" on="1"/>
        <pt x="1029" y="26" on="0"/>
        <pt x="1045" y="17" on="1"/>
      </contour>
      <contour>
        <pt x="265" y="1726" on="1"/>
        <pt x="531" y="1934" on="1"/>
        <pt x="863" y="1727" on="1"/>
        <pt x="837" y="1685" on="1"/>
        <pt x="535" y="1873" on="1"/>
        <pt x="295" y="1686" on="1"/>
      </contour>
    </TTGlyph>
    <TTGlyph name="Udieresis" xMin="114" yMin="-28" xMax="1045" yMax="1876">
      <contour>
        <pt x="1017" y="-25" on="1"/>
        <pt x="901" y="50" on="0"/>
        <pt x="901" y="207" on="1"/>
        <pt x="901" y="401" on="1"/>
        <pt x="354" y="-28" on="1"/>
        <pt x="253" y="84" on="0"/>
        <pt x="217" y="151" on="1"/>
        <pt x="141" y="290" on="0"/>
        <pt x="141" y="434" on="1"/>
        <pt x="141" y="580" on="0"/>
        <pt x="194" y="854" on="1"/>
        <pt x="247" y="1126" on="0"/>
        <pt x="247" y="1237" on="1"/>
        <pt x="247" y="1349" on="0"/>
        <pt x="215" y="1410" on="1"/>
        <pt x="184" y="1470" on="0"/>
        <pt x="114" y="1527" on="1"/>
        <pt x="144" y="1567" on="1"/>
        <pt x="224" y="1505" on="0"/>
        <pt x="297" y="1364" on="0"/>
        <pt x="297" y="1268" on="1"/>
        <pt x="297" y="1142" on="0"/>
        <pt x="191" y="570" on="0"/>
        <pt x="191" y="469" on="1"/>
        <pt x="191" y="315" on="0"/>
        <pt x="248" y="201" on="1"/>
        <pt x="282" y="134" on="0"/>
        <pt x="361" y="41" on="1"/>
        <pt x="376" y="52" on="0"/>
        <pt x="418" y="86" on="1"/>
        <pt x="901" y="465" on="1"/>
        <pt x="901" y="1537" on="1"/>
        <pt x="951" y="1537" on="1"/>
        <pt x="951" y="207" on="1"/>
        <pt x="951" y="106" on="0"/>
        <pt x="1012" y="44" on="1"/>
        <pt x="1029" y="26" on="0"/>
        <pt x="1045" y="17" on="1"/>
      </contour>
      <contour>
        <pt x="733" y="1679" on="1"/>
        <pt x="686" y="1694" on="1"/>
        <pt x="762" y="1876" on="1"/>
        <pt x="823" y="1851" on="1"/>
      </contour>
      <contour>
        <pt x="454" y="1679" on="1"/>
        <pt x="407" y="1694" on="1"/>
        <pt x="483" y="1876" on="1"/>
        <pt x="544" y="1851" on="1"/>
      </contour>
    </TTGlyph>
    <TTGlyph name="Ugrave" xMin="114" yMin="-28" xMax="1045" yMax="1931">
      <contour>
        <pt x="1017" y="-25" on="1"/>
        <pt x="901" y="50" on="0"/>
        <pt x="901" y="207" on="1"/>
        <pt x="901" y="401" on="1"/>
        <pt x="354" y="-28" on="1"/>
        <pt x="253" y="84" on="0"/>
        <pt x="217" y="151" on="1"/>
        <pt x="141" y="290" on="0"/>
        <pt x="141" y="434" on="1"/>
        <pt x="141" y="580" on="0"/>
        <pt x="194" y="854" on="1"/>
        <pt x="247" y="1126" on="0"/>
        <pt x="247" y="1237" on="1"/>
        <pt x="247" y="1349" on="0"/>
        <pt x="215" y="1410" on="1"/>
        <pt x="184" y="1470" on="0"/>
        <pt x="114" y="1527" on="1"/>
        <pt x="144" y="1567" on="1"/>
        <pt x="224" y="1505" on="0"/>
        <pt x="297" y="1364" on="0"/>
        <pt x="297" y="1268" on="1"/>
        <pt x="297" y="1142" on="0"/>
        <pt x="191" y="570" on="0"/>
        <pt x="191" y="469" on="1"/>
        <pt x="191" y="315" on="0"/>
        <pt x="248" y="201" on="1"/>
        <pt x="282" y="134" on="0"/>
        <pt x="361" y="41" on="1"/>
        <pt x="376" y="52" on="0"/>
        <pt x="418" y="86" on="1"/>
        <pt x="901" y="465" on="1"/>
        <pt x="901" y="1537" on="1"/>
        <pt x="951" y="1537" on="1"/>
        <pt x="951" y="207" on="1"/>
        <pt x="951" y="106" on="0"/>
        <pt x="1012" y="44" on="1"/>
        <pt x="1029" y="26" on="0"/>
        <pt x="1045" y="17" on="1"/>
      </contour>
      <contour>
        <pt x="455" y="1872" on="1"/>
        <pt x="498" y="1931" on="1"/>
        <pt x="776" y="1728" on="1"/>
        <pt x="749" y="1684" on="1"/>
      </contour>
    </TTGlyph>
    <TTGlyph name="V" xMin="42" yMin="-3" xMax="1599" yMax="1569">
      <contour>
        <pt x="705" y="336" on="1"/>
        <pt x="888" y="663" on="0"/>
        <pt x="888" y="976" on="1"/>
        <pt x="888" y="1206" on="0"/>
        <pt x="768" y="1366" on="1"/>
        <pt x="714" y="1438" on="0"/>
        <pt x="579" y="1517" on="0"/>
        <pt x="511" y="1517" on="1"/>
        <pt x="386" y="1517" on="0"/>
        <pt x="245" y="1376" on="0"/>
        <pt x="245" y="1300" on="1"/>
        <pt x="244" y="1223" on="0"/>
        <pt x="268" y="1176" on="1"/>
        <pt x="306" y="1099" on="0"/>
        <pt x="402" y="1026" on="1"/>
        <pt x="442" y="994" on="0"/>
        <pt x="478" y="958" on="1"/>
        <pt x="560" y="872" on="0"/>
        <pt x="560" y="624" on="0"/>
        <pt x="461" y="560" on="1"/>
        <pt x="388" y="512" on="0"/>
        <pt x="310" y="512" on="1"/>
        <pt x="308" y="512" on="0"/>
        <pt x="306" y="511" on="1"/>
        <pt x="177" y="511" on="0"/>
        <pt x="110" y="576" on="1"/>
        <pt x="42" y="642" on="0"/>
        <pt x="42" y="829" on="0"/>
        <pt x="174" y="961" on="0"/>
        <pt x="267" y="961" on="1"/>
        <pt x="267" y="911" on="1"/>
        <pt x="195" y="911" on="0"/>
        <pt x="92" y="808" on="0"/>
        <pt x="92" y="736" on="1"/>
        <pt x="92" y="662" on="0"/>
        <pt x="147" y="611" on="1"/>
        <pt x="201" y="561" on="0"/>
        <pt x="281" y="561" on="1"/>
        <pt x="283" y="561" on="0"/>
        <pt x="284" y="561" on="1"/>
        <pt x="426" y="562" on="0"/>
        <pt x="486" y="666" on="1"/>
        <pt x="510" y="706" on="0"/>
        <pt x="510" y="823" on="0"/>
        <pt x="463" y="902" on="0"/>
        <pt x="428" y="936" on="1"/>
        <pt x="392" y="970" on="0"/>
        <pt x="352" y="1002" on="1"/>
        <pt x="194" y="1128" on="0"/>
        <pt x="195" y="1291" on="1"/>
        <pt x="195" y="1392" on="0"/>
        <pt x="362" y="1566" on="0"/>
        <pt x="510" y="1567" on="1"/>
        <pt x="591" y="1567" on="0"/>
        <pt x="745" y="1480" on="0"/>
        <pt x="805" y="1402" on="1"/>
        <pt x="938" y="1229" on="0"/>
        <pt x="938" y="976" on="1"/>
        <pt x="938" y="663" on="0"/>
        <pt x="744" y="311" on="1"/>
        <pt x="777" y="286" on="0"/>
        <pt x="807" y="257" on="1"/>
        <pt x="868" y="199" on="1"/>
        <pt x="946" y="125" on="0"/>
        <pt x="1090" y="48" on="0"/>
        <pt x="1190" y="48" on="1"/>
        <pt x="1368" y="48" on="0"/>
        <pt x="1455" y="167" on="1"/>
        <pt x="1543" y="286" on="0"/>
        <pt x="1544" y="470" on="1"/>
        <pt x="1544" y="652" on="0"/>
        <pt x="1434" y="874" on="1"/>
        <pt x="1324" y="1097" on="0"/>
        <pt x="1324" y="1276" on="1"/>
        <pt x="1324" y="1406" on="0"/>
        <pt x="1483" y="1568" on="0"/>
        <pt x="1599" y="1569" on="1"/>
        <pt x="1599" y="1519" on="1"/>
        <pt x="1504" y="1519" on="0"/>
        <pt x="1374" y="1386" on="0"/>
        <pt x="1374" y="1206" on="0"/>
        <pt x="1406" y="1069" on="0"/>
        <pt x="1430" y="1008" on="1"/>
        <pt x="1456" y="947" on="0"/>
        <pt x="1484" y="889" on="1"/>
        <pt x="1593" y="668" on="0"/>
        <pt x="1592" y="461" on="1"/>
        <pt x="1592" y="258" on="0"/>
        <pt x="1493" y="128" on="1"/>
        <pt x="1393" y="-2" on="0"/>
        <pt x="1193" y="-3" on="1"/>
        <pt x="1192" y="-2" on="1"/>
        <pt x="990" y="-2" on="0"/>
        <pt x="832" y="166" on="1"/>
        <pt x="737" y="267" on="0"/>
        <pt x="597" y="334" on="0"/>
        <pt x="537" y="334" on="1"/>
        <pt x="437" y="334" on="0"/>
        <pt x="344" y="240" on="0"/>
        <pt x="344" y="116" on="0"/>
        <pt x="376" y="83" on="1"/>
        <pt x="406" y="50" on="0"/>
        <pt x="440" y="50" on="1"/>
        <pt x="494" y="50" on="0"/>
        <pt x="561" y="113" on="0"/>
        <pt x="561" y="158" on="1"/>
        <pt x="611" y="158" on="1"/>
        <pt x="610" y="91" on="0"/>
        <pt x="517" y="0" on="0"/>
        <pt x="452" y="0" on="1"/>
        <pt x="346" y="0" on="0"/>
        <pt x="306" y="101" on="1"/>
        <pt x="294" y="132" on="0"/>
        <pt x="294" y="170" on="1"/>
        <pt x="294" y="255" on="0"/>
        <pt x="410" y="384" on="0"/>
        <pt x="624" y="384" on="0"/>
      </contour>
    </TTGlyph>
    <TTGlyph name="W" xMin="42" yMin="-3" xMax="2140" yMax="1569">
      <contour>
        <pt x="705" y="336" on="1"/>
        <pt x="888" y="663" on="0"/>
        <pt x="888" y="976" on="1"/>
        <pt x="888" y="1206" on="0"/>
        <pt x="768" y="1366" on="1"/>
        <pt x="714" y="1438" on="0"/>
        <pt x="579" y="1517" on="0"/>
        <pt x="511" y="1517" on="1"/>
        <pt x="386" y="1517" on="0"/>
        <pt x="245" y="1376" on="0"/>
        <pt x="245" y="1300" on="1"/>
        <pt x="244" y="1223" on="0"/>
        <pt x="268" y="1176" on="1"/>
        <pt x="306" y="1099" on="0"/>
        <pt x="402" y="1026" on="1"/>
        <pt x="442" y="994" on="0"/>
        <pt x="478" y="958" on="1"/>
        <pt x="560" y="872" on="0"/>
        <pt x="560" y="624" on="0"/>
        <pt x="461" y="560" on="1"/>
        <pt x="388" y="512" on="0"/>
        <pt x="310" y="512" on="1"/>
        <pt x="308" y="512" on="0"/>
        <pt x="306" y="511" on="1"/>
        <pt x="177" y="511" on="0"/>
        <pt x="110" y="576" on="1"/>
        <pt x="42" y="642" on="0"/>
        <pt x="42" y="829" on="0"/>
        <pt x="174" y="961" on="0"/>
        <pt x="267" y="961" on="1"/>
        <pt x="267" y="911" on="1"/>
        <pt x="195" y="911" on="0"/>
        <pt x="92" y="808" on="0"/>
        <pt x="92" y="736" on="1"/>
        <pt x="92" y="662" on="0"/>
        <pt x="147" y="611" on="1"/>
        <pt x="201" y="561" on="0"/>
        <pt x="281" y="561" on="1"/>
        <pt x="283" y="561" on="0"/>
        <pt x="284" y="561" on="1"/>
        <pt x="426" y="562" on="0"/>
        <pt x="486" y="666" on="1"/>
        <pt x="510" y="706" on="0"/>
        <pt x="510" y="823" on="0"/>
        <pt x="463" y="902" on="0"/>
        <pt x="428" y="936" on="1"/>
        <pt x="392" y="970" on="0"/>
        <pt x="352" y="1002" on="1"/>
        <pt x="194" y="1128" on="0"/>
        <pt x="195" y="1291" on="1"/>
        <pt x="195" y="1392" on="0"/>
        <pt x="362" y="1566" on="0"/>
        <pt x="510" y="1567" on="1"/>
        <pt x="591" y="1567" on="0"/>
        <pt x="745" y="1480" on="0"/>
        <pt x="805" y="1402" on="1"/>
        <pt x="938" y="1229" on="0"/>
        <pt x="938" y="976" on="1"/>
        <pt x="938" y="663" on="0"/>
        <pt x="744" y="311" on="1"/>
        <pt x="777" y="286" on="0"/>
        <pt x="807" y="257" on="1"/>
        <pt x="868" y="199" on="1"/>
        <pt x="946" y="125" on="0"/>
        <pt x="1090" y="48" on="0"/>
        <pt x="1190" y="48" on="1"/>
        <pt x="1368" y="48" on="0"/>
        <pt x="1455" y="167" on="1"/>
        <pt x="1543" y="286" on="0"/>
        <pt x="1544" y="470" on="1"/>
        <pt x="1544" y="652" on="0"/>
        <pt x="1434" y="874" on="1"/>
        <pt x="1324" y="1097" on="0"/>
        <pt x="1324" y="1276" on="1"/>
        <pt x="1324" y="1406" on="0"/>
        <pt x="1483" y="1568" on="0"/>
        <pt x="1599" y="1569" on="1"/>
        <pt x="1599" y="1519" on="1"/>
        <pt x="1504" y="1519" on="0"/>
        <pt x="1374" y="1386" on="0"/>
        <pt x="1374" y="1206" on="0"/>
        <pt x="1406" y="1069" on="0"/>
        <pt x="1430" y="1008" on="1"/>
        <pt x="1456" y="947" on="0"/>
        <pt x="1484" y="889" on="1"/>
        <pt x="1593" y="668" on="0"/>
        <pt x="1593" y="433" on="1"/>
        <pt x="1593" y="253" on="0"/>
        <pt x="1492" y="127" on="1"/>
        <pt x="1604" y="48" on="0"/>
        <pt x="1741" y="48" on="1"/>
        <pt x="1908" y="48" on="0"/>
        <pt x="2084" y="286" on="0"/>
        <pt x="2084" y="651" on="0"/>
        <pt x="1974" y="874" on="1"/>
        <pt x="1865" y="1095" on="0"/>
        <pt x="1865" y="1276" on="1"/>
        <pt x="1865" y="1406" on="0"/>
        <pt x="2024" y="1568" on="0"/>
        <pt x="2140" y="1569" on="1"/>
        <pt x="2140" y="1519" on="1"/>
        <pt x="2044" y="1518" on="0"/>
        <pt x="1914" y="1386" on="0"/>
        <pt x="1914" y="1208" on="0"/>
        <pt x="1931" y="1138" on="1"/>
        <pt x="1957" y="1027" on="0"/>
        <pt x="2054" y="831" on="0"/>
        <pt x="2078" y="766" on="1"/>
        <pt x="2134" y="616" on="0"/>
        <pt x="2134" y="258" on="0"/>
        <pt x="1934" y="-2" on="0"/>
        <pt x="1757" y="-3" on="1"/>
        <pt x="1757" y="-3" on="0"/>
        <pt x="1756" y="-2" on="1"/>
        <pt x="1578" y="-2" on="0"/>
        <pt x="1457" y="91" on="1"/>
        <pt x="1358" y="-2" on="0"/>
        <pt x="1204" y="-2" on="1"/>
        <pt x="990" y="-2" on="0"/>
        <pt x="832" y="166" on="1"/>
        <pt x="737" y="267" on="0"/>
        <pt x="597" y="334" on="0"/>
        <pt x="537" y="334" on="1"/>
        <pt x="437" y="334" on="0"/>
        <pt x="344" y="240" on="0"/>
        <pt x="344" y="116" on="0"/>
        <pt x="376" y="83" on="1"/>
        <pt x="406" y="50" on="0"/>
        <pt x="440" y="50" on="1"/>
        <pt x="494" y="50" on="0"/>
        <pt x="561" y="113" on="0"/>
        <pt x="561" y="158" on="1"/>
        <pt x="611" y="158" on="1"/>
        <pt x="610" y="91" on="0"/>
        <pt x="517" y="0" on="0"/>
        <pt x="452" y="0" on="1"/>
        <pt x="346" y="0" on="0"/>
        <pt x="306" y="101" on="1"/>
        <pt x="294" y="132" on="0"/>
        <pt x="294" y="170" on="1"/>
        <pt x="294" y="255" on="0"/>
        <pt x="410" y="384" on="0"/>
        <pt x="624" y="384" on="0"/>
      </contour>
    </TTGlyph>
</ttFont>
